<svg xmlns="http://www.w3.org/2000/svg">
<defs>
<font id="AuldMagick" horiz-adv-x="987" >
  <font-face 
    font-family="AuldMagick"
    font-weight="400"
    font-stretch="semi-condensed"
    units-per-em="2048"
    panose-1="2 0 5 2 0 0 0 0 0 0"
    ascent="1638"
    descent="-410"
    x-height="548"
    cap-height="930"
    bbox="-151 -317 1541 1434.02"
    underline-thickness="150"
    underline-position="-442"
    unicode-range="U+0020-F002"
  />
<missing-glyph horiz-adv-x="1630" 
d="M900 495h2q36 0 59 -33q10 -16 10 -36q-2 -5 -5 -5q-7 0 -7 10q0 21 -21 41q-18 13 -38 13q-31 0 -52 -28q-7 -16 -7 -31q0 -28 23 -46q7 -8 15 -11q10 -2 31 -2q20 -3 33 -13q8 -3 18 -10q28 -28 28 -67v-3q0 -46 -41 -74q-23 -13 -43 -13h-8q-38 0 -69 34
q-18 25 -18 53v3q0 5 5 5h3q2 0 2 -10q0 -23 21 -46q25 -28 59 -28q43 0 69 38q10 18 10 38v6q0 28 -23 51q-15 15 -23 18q-13 5 -41 5q-3 0 -18 5q-13 8 -26 18q-18 21 -18 49q0 38 36 61q16 8 34 8zM1149 495h5q5 0 5 -8q2 0 59 -174l33 -103l82 239l16 46h5q2 0 2 -2
q0 -3 -10 -39q-69 -203 -90 -267l-2 -2h-3q-5 2 -5 7q-85 252 -100 301q0 2 3 2zM1082 495h2q3 0 3 -2v-298h97q6 0 6 -5t-6 -5h-102q-5 2 -5 5v300q2 5 5 5zM330 495q49 0 87 -26l3 -2v-3q-3 -5 -5 -5h-3q-2 0 -10 8q-33 15 -69 15q-54 0 -98 -36q-10 -12 -18 -23
q-28 -38 -28 -84q0 -49 33 -93q11 -13 21 -20q26 -21 64 -28q10 -3 23 -3q62 0 103 41v103h-54q-5 0 -5 5t2 5h64q6 -3 6 -5v-111q0 -2 -6 -7q-15 -13 -23 -18q-12 -8 -30 -16q-29 -7 -52 -7h-5q-54 0 -97 36q-13 10 -18 18q-36 46 -36 100v5q0 46 31 87q18 23 35 36
q13 8 26 15q16 5 36 11q13 2 23 2zM1033 493q5 0 5 -3v-303q0 -5 -5 -5t-5 5v303q0 3 5 3zM74 485h5q2 0 2 -5q0 -3 64 -190q34 -90 36 -100q0 -5 -5 -5h-2q-3 0 -5 10q-6 10 -34 92h-118q-28 -82 -36 -100l-2 -2h-3q-2 0 -5 2v5l92 265l8 25zM561 485h5q3 0 5 -8
q0 -2 77 -226q18 -53 21 -61q0 -5 -5 -5t-8 13q-3 5 -33 89h-118q0 -2 -36 -100l-3 -2h-2q-3 0 -6 2v3q3 5 83 236l20 56v3zM1433 485h5q3 0 3 -5q3 -11 92 -267l8 -21v-5q-3 -2 -5 -2h-3q-2 0 -5 10q0 3 -33 92h-118q-28 -82 -36 -100l-3 -2h-2q-5 0 -5 5q2 10 59 172

<glyph glyph-name=".notdef" horiz-adv-x="1630" 
d="M900 495h2q36 0 59 -33q10 -16 10 -36q-2 -5 -5 -5q-7 0 -7 10q0 21 -21 41q-18 13 -38 13q-31 0 -52 -28q-7 -16 -7 -31q0 -28 23 -46q7 -8 15 -11q10 -2 31 -2q20 -3 33 -13q8 -3 18 -10q28 -28 28 -67v-3q0 -46 -41 -74q-23 -13 -43 -13h-8q-38 0 -69 34
q-18 25 -18 53v3q0 5 5 5h3q2 0 2 -10q0 -23 21 -46q25 -28 59 -28q43 0 69 38q10 18 10 38v6q0 28 -23 51q-15 15 -23 18q-13 5 -41 5q-3 0 -18 5q-13 8 -26 18q-18 21 -18 49q0 38 36 61q16 8 34 8zM1149 495h5q5 0 5 -8q2 0 59 -174l33 -103l82 239l16 46h5q2 0 2 -2
q0 -3 -10 -39q-69 -203 -90 -267l-2 -2h-3q-5 2 -5 7q-85 252 -100 301q0 2 3 2zM1082 495h2q3 0 3 -2v-298h97q6 0 6 -5t-6 -5h-102q-5 2 -5 5v300q2 5 5 5zM330 495q49 0 87 -26l3 -2v-3q-3 -5 -5 -5h-3q-2 0 -10 8q-33 15 -69 15q-54 0 -98 -36q-10 -12 -18 -23
q-28 -38 -28 -84q0 -49 33 -93q11 -13 21 -20q26 -21 64 -28q10 -3 23 -3q62 0 103 41v103h-54q-5 0 -5 5t2 5h64q6 -3 6 -5v-111q0 -2 -6 -7q-15 -13 -23 -18q-12 -8 -30 -16q-29 -7 -52 -7h-5q-54 0 -97 36q-13 10 -18 18q-36 46 -36 100v5q0 46 31 87q18 23 35 36
q13 8 26 15q16 5 36 11q13 2 23 2zM1033 493q5 0 5 -3v-303q0 -5 -5 -5t-5 5v303q0 3 5 3zM74 485h5q2 0 2 -5q0 -3 64 -190q34 -90 36 -100q0 -5 -5 -5h-2q-3 0 -5 10q-6 10 -34 92h-118q-28 -82 -36 -100l-2 -2h-3q-2 0 -5 2v5l92 265l8 25zM561 485h5q3 0 5 -8
q0 -2 77 -226q18 -53 21 -61q0 -5 -5 -5t-8 13q-3 5 -33 89h-118q0 -2 -36 -100l-3 -2h-2q-3 0 -6 2v3q3 5 83 236l20 56v3zM1433 485h5q3 0 3 -5q3 -11 92 -267l8 -21v-5q-3 -2 -5 -2h-3q-2 0 -5 10q0 3 -33 92h-118q-28 -82 -36 -100l-3 -2h-2q-5 0 -5 5q2 10 59 172
q41 118 41 120zM564 462q-21 -62 -54 -159h110zM76 462q-2 -5 -56 -159h113q-54 151 -57 159zM1436 462q-3 -8 -57 -159h113q-54 154 -56 159zM730 364q16 0 21 -13v-10q0 -10 -13 -18h-8q-10 0 -18 10q-2 6 -2 11q0 13 13 18q5 2 7 2zM728 105q2 0 5 -5q46 -67 61 -90v93
q0 2 3 2v-105h-3q0 3 -61 92l-3 3v-92q0 -3 -2 -3v105zM617 105q21 0 36 -15q18 -16 18 -39t-20 -38q-16 -13 -34 -13q-25 0 -41 23q-10 13 -10 26v7q0 16 16 34q18 15 35 15zM1005 105q15 0 23 -15v-10h-3q-2 0 -2 5q0 7 -10 12q-3 3 -8 3q-13 0 -18 -13q-3 -2 -3 -5v-2
q0 -11 13 -16q5 -2 13 -2q10 -3 18 -11q5 -7 5 -18v-2q0 -16 -13 -26q-7 -5 -15 -5q-21 0 -28 21q-3 2 -3 10v2h3q2 0 2 -5q0 -7 10 -18q6 -5 16 -5q15 0 25 16v10q0 13 -10 23q-7 5 -20 5q-18 5 -18 23q0 15 15 23h8zM479 105h33q3 0 3 -2q0 -3 -3 -3h-30v-46h33v-3h-33
v-48q0 -3 -3 -3l-3 3v100q0 2 3 2zM853 105h67q3 0 3 -2q0 -3 -3 -3h-31v-100h-2v100h-34v5zM569 51q0 -23 23 -38q13 -8 25 -8h3q23 0 39 23q7 13 7 23v5q0 18 -20 36q-13 8 -29 8q-23 0 -38 -20q-10 -13 -10 -29z" />
    <glyph glyph-name=".null" horiz-adv-x="500" 
 />
    <glyph glyph-name="nonmarkingreturn" horiz-adv-x="500" 
 />
    <glyph glyph-name="space" unicode=" " horiz-adv-x="500" 
 />
    <glyph glyph-name="space" unicode="&#xa0;" horiz-adv-x="500" 
 />
    <glyph glyph-name="exclam" unicode="!" horiz-adv-x="197" 
d="M138 501q-2 -74 -8 -135q-13 -133 -32 -138h-1q-20 0 -20 154q0 151 -20 270q-8 47 -8 74q0 14 3 22q6 23 39 23q18 0 27.5 -9.5t15.5 -37.5q6 -27 6 -74v-8q-1 -53 -2 -141zM158 -5q-20 -33 -45 -33q-29 0 -64 43q-19 21 -19 34q0 2 1 5q4 13 35 25q19 6 36 6
q12 0 23 -3q26 -7 37 -30q5 -10 5 -20q0 -13 -9 -27z" />
    <glyph glyph-name="quotedbl" unicode="&#x22;" horiz-adv-x="275" 
d="M234 788q-9 -29 -25 -50.5t-29 -22.5h-7q-12 0 -13 6v2q0 10 13 37q13 24 13 41v4q0 1 -1 1q-2 19 -22 46q-21 26 -22 42v1q0 15 19 39q19 22 29 23q2 0 3 -1q10 -3 31 -41q19 -32 22 -58q0 -1 -1 -2v-8q0 -24 -10 -59zM123 778q-9 -29 -24.5 -50.5t-28.5 -22.5h-7
q-12 0 -14 6v2q0 10 14 37q13 25 13 43v2q0 1 -1 1q-2 19 -23 46q-20 26 -22 42v1q0 15 20 39q18 22 28 23q2 0 3 -1q10 -3 32 -41q19 -32 21 -58q0 -1 -1 -2q1 -5 1 -10q0 -24 -11 -57z" />
    <glyph glyph-name="numbersign" unicode="#" horiz-adv-x="701" 
d="M428 625q14 -14 18 -60q3 -38 3 -119v-44q41 -1 74 -1q22 1 41 1q56 0 84 -5q23 -4 23 -10q0 -3 -7 -7q-40 -24 -217 -34q-1 -34 -3 -66q98 -1 99 -15q0 -15 -103 -29q-11 -108 -26 -114h-1q-15 0 -18 108q-36 -3 -75 -6q-2 -46 -5 -86q-11 -133 -29 -138h-1
q-18 0 -19 147q0 33 -2 75q-71 -3 -116 -3q-27 0 -45 1q-49 3 -62 17q-8 7 -10 22q-1 5 -1 9q0 21 18 26q8 2 25 2q24 0 66 -5q47 -6 122 -9q-3 30 -5 58q-56 1 -75 10t-22 30q-1 5 -1 10q0 19 15 25q8 4 27 4q18 0 46 -4q-5 37 -5 58q0 16 3 24q5 15 27 15h7
q22 -2 31.5 -23t11.5 -81q31 -3 67 -4q-5 74 -12 120q-7 47 -7 72q0 13 2 20q4 18 27 18h7q15 -2 23 -9zM392 343q-41 -1 -70 -2q-1 -26 -1 -61h73q0 29 -2 63z" />
    <glyph glyph-name="dollar" unicode="$" horiz-adv-x="498" 
d="M245 980q13 0 13 -67q8 0 14 -1q4 62 17 67q2 1 4 1q14 0 14 -70q56 -6 80 -22q58 -38 62 -108v-10q0 -64 -49 -108q-31 -29 -52 -38q-13 -5 -28 -5q-10 0 -21 2q-1 -42 -2 -95q23 24 38 30q6 3 13 3t15 -4q14 -7 43 -33q62 -57 62 -134q0 -12 -1 -24q-11 -93 -97 -154
q-53 -38 -77 -51q-2 -151 -8 -158h-1q-5 0 -10 148q-13 -5 -22 -5q-4 0 -8 1q-2 -143 -8 -145q-6 0 -11 160q-7 11 -16 33q-10 28 -35 36q-11 3 -26 3q-20 0 -47 -6q-15 -3 -23.5 -5t-17.5 -3.5t-13 -2.5q-3 -1 -6 -1q-1 0 -2 1q-4 0 -4 1q-1 0 -1 1t2 3q1 3 4 5.5t9.5 8.5
t13 11t17.5 14q29 22 68 32q19 4 37 4q16 0 30 -4q1 0 7 -2q-1 62 -2 136l-14 -10l-31.5 -22.5t-24 -15t-18.5 -10t-14 -2.5q-1 -1 -3 -1q-7 0 -9 3q-4 2 -11 9t-11.5 14l-13.5 21q-16 27 -28 65.5t-12 65.5q0 35 34 84.5t79 86t77 39.5q0 76 2 120q-13 -1 -26 -4
q-36 -7 -57 -7h-5q-23 1 -23 12q0 3 3 8q16 26 110 31q4 62 17 67q2 1 4 1zM258 873q-1 -41 -3 -103q-1 -17 -2 -32q7 -5 15 -10q1 94 2 144q-6 1 -12 1zM306 865q-1 -38 -3 -95q-1 -28 -2 -54q15 -3 29 -3q21 0 40 7q30 12 30 38q0 38 -25.5 66t-68.5 41zM166 665
q-23 -1 -40 -27q-25 -40 -26 -65q-1 -2 -1 -4q0 -25 19 -73q14 -38 41 -47q9 -4 19 -4q19 0 42 13v193q-35 14 -54 14zM251 638q-2 -74 -4 -161q11 8 21 18v135q-9 4 -17 8zM296 462q-2 -103 -2 -182v-10q20 -4 36 -4q23 0 36 8q22 13 27 54q1 7 1 15q0 22 -9 47
q-12 33 -33 50q-25 22 -47 22h-9zM269 453q-10 -4 -22 -11q-1 -92 -2 -160q14 -4 26 -7q-2 81 -2 178z" />
    <glyph glyph-name="percent" unicode="%" horiz-adv-x="460" 
d="M260 298q-79 -127 -143 -212q-66 -85 -82 -85h-2q-3 1 -3 7q0 30 95 189q44 74 95.5 172t79.5 161q42 96 64 119q10 11 23 11q12 0 26 -11q15 -12 17 -28v-4q0 -16 -15 -53q-18 -41 -52.5 -99t-102.5 -167zM106 627h-3q-8 0 -16 -5q-15 -7 -16 -13q-1 -1 -1 -2
q0 -6 7 -15q14 -16 23 -16q0 -1 1 -1q8 0 22 14q9 9 9 18q0 4 -2 8q-7 12 -24 12zM110 661h2q39 -1 54 -29q4 -9 4 -19q0 -19 -19 -40q-31 -31 -51 -31q-1 0 -2 1q-21 1 -51 37q-16 20 -16 32q0 3 1 6q4 14 36 31q21 11 42 12zM366 86q-10 0 -20 -5q-14 -8 -16 -14v-2
q0 -6 7 -14q13 -16 22 -17h1q9 0 22 13q9 9 9 18q0 4 -2 9q-7 12 -23 12zM369 119h3q38 0 53 -28q4 -10 4 -20q0 -19 -19 -40q-31 -31 -51 -31q-1 0 -1 1q-21 1 -52 38q-16 19 -16 31q0 3 1 6q4 14 37 32q20 11 41 11z" />
    <glyph glyph-name="ampersand" unicode="&#x26;" horiz-adv-x="910" 
d="M362 879h4q30 0 54 -15q45 -28 63 -90q16 -60 16 -130v-8q-6 -125 -21 -206q0 -13 -6 -32t-10 -33q-4 -11 -4 -24v-6q1 -16 12 -26q20 -26 56 -76t66 -89t60 -71q15 -21 33 -22q1 -1 3 -1q16 0 26 17q9 13 9 34q0 6 -1 12q0 30 0.5 46t6 40t17.5 40q52 85 102 85
q5 0 11 -1h5q16 -1 16 -10q0 -3 -1 -6q-5 -16 -25 -21q-16 -10 -21 -27q-4 -12 -4 -25q0 -4 1 -9q2 -18 2 -39t-7 -35q-21 -53 -54 -93.5t-73 -55.5h-7q-17 0 -35 8q-22 10 -35.5 20.5t-35.5 31.5q-30 33 -83.5 99t-78.5 93q-42 -97 -68 -142q-29 -54 -78 -82.5t-104 -29.5
h-2q-40 0 -71 36q-32 36 -50 90q-20 43 -20 98v6q1 58 30 96q68 92 223 98q-61 81 -80 132q-18 56 -18 113q0 50 14 102q32 100 163 108zM351 853q-28 0 -61 -22q-28 -16 -38 -56q-5 -19 -5 -37q0 -20 6 -39q7 -22 14.5 -43.5t19 -46t18.5 -39t23.5 -43t21.5 -36.5
t25.5 -40.5t23.5 -37.5q7 -19 13 -19q9 0 12 54q1 26 4.5 71.5t5.5 75.5q2 23 2 53v16q-1 40 -5 73q-4 46 -25 82q-21 34 -53 34h-2zM312 387q-33 -29 -106 -53.5t-104 -49.5q-30 -19 -42 -60q-5 -17 -5 -34q0 -23 10 -46q11 -39 41 -54q14 -8 30 -8q15 0 30 7
q118 47 211 208q-3 18 -31.5 49.5t-33.5 40.5z" />
    <glyph glyph-name="quotesingle" unicode="'" horiz-adv-x="164" 
d="M123 817q-9 -29 -24.5 -50.5t-28.5 -22.5h-7q-12 0 -14 6v2q0 10 14 37q13 25 13 43v2q0 1 -1 1q-2 19 -23 46q-20 26 -22 42v1q0 15 20 39q18 22 28 23q2 0 3 -1q10 -3 32 -41q19 -32 21 -58q0 -1 -1 -2q1 -5 1 -10q0 -24 -11 -57z" />
    <glyph glyph-name="parenleft" unicode="(" horiz-adv-x="295" 
d="M134 464v-30q0 -43 5 -88q6 -49 19 -99q6 -25 15 -51q6 -21 15 -45q3 -10 27 -73q13 -34 17 -50q4 -11 4 -18q0 -5 -2 -7q-2 -3 -6 -3t-11 4q-6 4 -15 11q-9 8 -20 20q-12 13 -23 29q-14 18 -27 39q-15 24 -28 50q-15 31 -27 63q-6 16 -11 33q-15 50 -24 98q-5 28 -8 55
q-3 28 -4 56v23q0 22 1 45q2 33 7 67q4 31 11 62q6 28 14 58q7 28 19 64q10 33 23 63q11 26 23 48q10 20 21 35q10 14 20 23q15 13 30 13h6q16 -2 36 -21q17 -16 22 -33q2 -7 2 -16q0 -13 -5 -30q-4 -14 -12 -33q-6 -14 -18 -40q-18 -41 -23 -51q-16 -35 -27 -65
q-8 -21 -14 -42q-8 -25 -14 -49q-7 -28 -11 -54q-5 -31 -7 -61z" />
    <glyph glyph-name="parenright" unicode=")" horiz-adv-x="294" 
d="M160 495v6q1 15 1 30q0 41 -6 83q-6 48 -19 99q-6 24 -14 50l-15 45q-4 10 -28 73q-13 34 -17 50q-3 12 -3 19q0 4 1 7q2 3 6 3t11 -4t15 -12q10 -8 20 -20q12 -13 24 -29q13 -18 26 -39q15 -24 28 -50q15 -30 27 -62q6 -17 11 -33q16 -50 25 -99q5 -28 7 -55
q4 -28 4 -56v-23q0 -22 -1 -45q-2 -33 -6 -66q-5 -31 -11 -63q-6 -28 -14 -57t-19 -65q-11 -33 -23 -63q-11 -26 -23 -48q-11 -20 -22 -35q-10 -14 -20 -22q-15 -14 -31 -14h-5q-15 2 -36 22q-17 15 -21 32q-2 8 -2 17q0 14 4 30q4 13 12 32q6 14 18 40q19 41 23 51
q16 35 27 65q8 22 15 43q8 24 13 48q7 28 12 55q4 30 6 60z" />
    <glyph glyph-name="asterisk" unicode="*" horiz-adv-x="368" 
d="M177 120q-3 -3 -7 -6q-17 -13 -21 -24q-3 -7 -3 -16q0 -8 2 -18q2 -12 2 -20t-2 -13q-4 -9 -23 -17q-13 -6 -20 -6q-4 0 -6 2q-5 5 -6 34v11q0 18 5 31q7 16 27 37q15 14 31 23q5 3 9 4q-3 2 -7 5q-17 12 -29 13h-2q-12 0 -31 -10t-29 -10h-2q-10 1 -23 17q-12 13 -12 20
q0 1 1 3q3 6 30 16q21 8 37 8h4q17 -1 44 -14q18 -9 31 -22q4 -4 7 -8q1 3 2 8q5 13 5 23q0 5 -1 9q-4 12 -20 28q-17 16 -19 26v3q0 10 9 25q10 18 17 18h1q7 -1 25 -24q16 -20 20 -37q2 -8 2 -20q0 -11 -2 -25q-3 -21 -11 -36q-3 -6 -6 -10h9q22 0 32 7t20 27q10 22 19 27
q5 2 13 2q7 0 16 -2q22 -5 23 -12v-1q0 -7 -15 -31q-14 -21 -29 -30t-43 -14q-11 -2 -21 -2q-9 0 -17 2q-7 1 -11 2q1 -4 3 -9q7 -20 16.5 -27.5t31.5 -10.5q24 -4 31.5 -10.5t9.5 -27.5v-9q0 -14 -4 -16q-2 -2 -6 -2q-10 0 -29 6q-25 7 -38 18.5t-27 36.5q-9 18 -12 36
q-1 5 -1 10v2z" />
    <glyph glyph-name="plus" unicode="+" horiz-adv-x="572" 
d="M39 240q-7 8 -9 22v7q0 24 18 29q7 2 22 2q25 0 69 -6q47 -7 121 -11q-4 74 -11 121q-6 44 -6 68q0 15 2 23q5 18 26 18q4 0 9 -1q16 -1 24 -10t13 -34t5 -70t-2 -118q28 -1 52 -1h38q132 0 132 -16v-2q-8 -19 -146 -32q-36 -3 -78 -5q-8 -178 -31 -218q-3 -6 -7 -6
q-5 0 -10 22q-6 33 -6 105v21q0 33 -1 74q-52 -1 -91 -1q-44 0 -70 2q-49 3 -63 17z" />
    <glyph glyph-name="comma" unicode="," horiz-adv-x="183" 
d="M113 -112q-4 -4 -8 -7q-37 -31 -59 -31q-4 0 -8 1q-8 2 -8 8q0 10 20 32q33 36 36 71v5q0 31 -26 57q-12 14 -12 28q0 4 1 8q4 17 25 27q11 4 22 4t23 -4q23 -9 31 -48q3 -18 3 -36q0 -23 -5 -48q-11 -45 -35 -67z" />
    <glyph glyph-name="hyphen" unicode="-" horiz-adv-x="630" 
d="M319 4q-64 -2 -105 -3q-28 -1 -52 -1q-13 0 -24 1q-34 0 -52.5 2.5t-31 8.5t-17 13t-6.5 19q-1 5 -1 9q0 23 20 29q9 2 27 2q27 0 75 -6q107 -13 235 -13h89q124 0 124 -17v-1q-6 -19 -150 -34q-60 -6 -131 -9z" />
    <glyph glyph-name="hyphen" unicode="&#xad;" horiz-adv-x="630" 
d="M319 4q-64 -2 -105 -3q-28 -1 -52 -1q-13 0 -24 1q-34 0 -52.5 2.5t-31 8.5t-17 13t-6.5 19q-1 5 -1 9q0 23 20 29q9 2 27 2q27 0 75 -6q107 -13 235 -13h89q124 0 124 -17v-1q-6 -19 -150 -34q-60 -6 -131 -9z" />
    <glyph glyph-name="period" unicode="." horiz-adv-x="214" 
d="M162 35q-34 -35 -56 -35q-1 0 -2 1q-23 1 -56 42q-18 22 -18 36q0 3 1 6q4 15 41 34q22 12 44 13h4q20 0 34 -8q15 -9 24 -22q6 -10 6 -22q0 -5 -1 -10q-4 -19 -21 -35z" />
    <glyph glyph-name="slash" unicode="/" horiz-adv-x="458" 
d="M269 319q-78 -139 -145 -230q-66 -89 -87 -89q-2 0 -4 1q-3 3 -3 10q0 39 87 203q43 80 91 186.5t73 175.5q37 104 60 128q11 12 26 12q16 0 35 -13q14 -10 21 -20q5 -10 5 -25v-5q-1 -20 -9.5 -44t-29 -67t-48 -93.5t-72.5 -129.5z" />
    <glyph glyph-name="zero" unicode="0" horiz-adv-x="524" 
d="M136 387q0 -107 8.5 -191.5t20.5 -96.5t45 -17q17 -2 33 -2q17 0 34 2q23 4 36.5 11.5t24 22t15.5 46.5t8 73.5t4 112.5v34q0 171 -37 243q-29 55 -81 55q-22 0 -49 -10q-35 -13 -48.5 -75t-13.5 -208zM423 117q-84 -117 -161 -117q-110 0 -207 235q-23 57 -24 134
q-1 6 -1 12q0 70 16 134q17 69 51 127.5t77 81.5q32 14 65 14h12q38 -3 76 -30t69.5 -67.5t55 -98t32.5 -121.5q10 -65 10 -112q0 -33 -5 -57q-12 -59 -66 -135z" />
    <glyph glyph-name="one" unicode="1" horiz-adv-x="456" 
d="M367 79q24 0 41.5 -11.5t17.5 -27.5q0 -17 -58 -28.5t-140 -11.5t-140 11.5t-58 28.5q0 16 23.5 27.5t55.5 11.5q20 0 31.5 2.5t21 14t14 27.5t8 50.5t4 74.5t0.5 108t-0.5 108t-4 74.5t-8 50.5t-14 27.5t-21 14t-31.5 2.5q-32 0 -55.5 11.5t-23.5 28.5q0 16 22.5 27.5
t53.5 11.5t71 7t65 16q17 4 28 4h3q11 -1 15 -28q2 -20 2 -46v-24q-2 -43 -9 -124q-9 -99 -9 -176q0 -89 12 -149q22 -113 83 -113z" />
    <glyph glyph-name="two" unicode="2" horiz-adv-x="501" 
d="M470 135q1 -29 1 -48t-1 -28q-5 -38 -36 -49q-29 -10 -166 -10q-50 0 -84 2t-60.5 8.5t-39 16t-14.5 27.5q-1 4 -1 8q0 14 6 30q8 20 29 53t49.5 69.5t71.5 88.5q97 119 124 177q15 33 15 65q0 24 -9 47q-32 87 -97 101q-11 2 -23 2q-53 0 -107 -54q-63 -63 -64 -103
q-1 -1 -1 -2q0 -39 60 -39q26 0 44 -12t18 -29q0 -31 -32 -39q-10 -3 -21 -3q-23 0 -48 13q-37 17 -50 50q-4 11 -4 25q0 21 8 50q13 49 42 93q40 62 81 81q30 14 78 14q18 0 38 -2q53 -5 102.5 -28.5t66.5 -50.5q23 -37 25 -84v-11q0 -42 -14 -82q-17 -46 -50.5 -87
t-78 -64.5t-88 -62.5t-59.5 -69q-14 -26 -17 -39q-1 -3 -1 -6q0 -10 10 -16q12 -9 37 -11.5t74 -2.5q77 0 115 17t48 56q4 16 8 18h1q11 0 14 -80z" />
    <glyph glyph-name="three" unicode="3" horiz-adv-x="554" 
d="M373 37q-80 -28 -123 -34q-17 -3 -32 -3q-24 0 -44 6q-33 10 -77 44q-41 31 -58 75q-9 24 -9 46q0 18 6 34q13 37 53 52q29 11 49 11q26 0 38 -17q7 -12 7 -26q0 -28 -26 -70q-24 -39 -24 -57q0 -3 1 -6q5 -17 52 -30q14 -4 28 -4q31 0 63 19q46 26 73 78q23 44 23 91
q0 8 -1 17q-6 89 -106 111q-74 16 -107 26q-36 10 -36 16q1 7 71 9q54 2 97 30.5t61 72.5q10 23 10 47q0 20 -8 41q-7 20 -43 34q-34 12 -73 12h-6q-33 -1 -51 -5q-17 -4 -17 -9q0 -4 12 -9q38 -16 47 -48q3 -9 3 -18q0 -22 -16 -40q-22 -26 -64 -26q-43 0 -61 22t-18 76
q0 43 26.5 75.5t68.5 47.5q32 11 72 11q12 0 24 -1q54 -4 108 -28q84 -38 91 -90q1 -5 1 -10q0 -51 -60 -136q-16 -24 -24.5 -36.5t-13.5 -25.5q-4 -11 -4 -16v-2q1 -6 9 -12.5t19.5 -10t33.5 -9.5q34 -9 52 -24q12 -11 12 -21q0 -4 -2 -8q-5 -9 -5 -18q0 -6 2 -12
q5 -16 20 -25q20 -13 25 -35q2 -8 2 -16q0 -16 -6 -32q-10 -26 -29.5 -52t-50.5 -48t-65 -34z" />
    <glyph glyph-name="four" unicode="4" horiz-adv-x="592" 
d="M226 427q-32 -36 -54 -71.5t-22 -48.5q0 -14 21 -24t51 -10q41 0 57.5 26.5t18.5 94.5l3 120zM559 36q-14 -24 -116 -32q-47 -4 -92 -4q-54 0 -105 5q-96 10 -96 33q0 17 23 28.5t55 11.5q33 0 55.5 17t22.5 41q0 31 -32.5 45t-105.5 14h-138l89 166q37 69 70 123.5
t43 62.5q24 20 70 108q44 84 71 85h1q31 0 31 -107q0 -50 -7 -125q-9 -103 -9 -155q0 -32 3 -45q9 -35 67 -35q34 0 58 -11.5t24 -27.5t-24 -27.5t-57 -11.5t-50 -11t-17 -26q0 -10 8 -23q25 -40 95 -50q35 -6 54 -20q12 -9 12 -19q0 -5 -3 -10z" />
    <glyph glyph-name="five" unicode="5" horiz-adv-x="592" 
d="M365 640q-95 -36 -157 -36q-11 0 -21 2q-66 7 -66 64q0 40 34 53t137 13q159 0 166 -32v-3q0 -25 -93 -61zM420 69q-42 -30 -89.5 -51.5t-72.5 -21.5q-43 0 -93 37.5t-79 87.5q-21 35 -21 62q0 11 4 21q14 36 43 50q14 6 28 6q15 0 29 -6q28 -13 42 -49q5 -14 5 -25
q0 -9 -2 -15q-7 -17 -26 -17q-25 0 -25 -9q0 -10 24 -34q13 -13 33 -19q19 -6 36 -6q28 0 53 14q28 15 28 34q0 10 -7 20t-7 18q0 5 2 9q5 11 22 11q16 0 28 32t12 78q0 42 -16.5 77t-40.5 53q-23 16 -50 16h-4q-30 -2 -55 -27q-38 -38 -65 -38q-3 0 -6 1q-29 5 -29 55
q0 22 29.5 37t74.5 19q21 1 43 1q25 0 51 -2q48 -4 92.5 -20t67.5 -39q45 -44 53 -113q1 -14 1 -28q0 -55 -24 -109q-30 -69 -89 -110z" />
    <glyph glyph-name="six" unicode="6" horiz-adv-x="488" 
d="M398 575q0 -16 -19 -27t-46 -11q-34 0 -43 19q-5 8 -5 20q0 17 8 41q7 22 7 39q0 15 -5 26q-12 24 -51 34q-17 4 -26 7q-17 5 -17 8v1q2 5 57 8h7q56 0 94 -43q39 -47 39 -122zM412 82q-28 -40 -74 -62q-42 -20 -89 -20h-9l-112 4l104 29q62 17 85.5 53.5t31.5 129.5
q3 30 3 55q0 44 -8 71q-13 41 -48 54q-21 8 -42 8q-25 0 -49 -11q-44 -22 -71 -75t-27 -121q0 -31 -3 -52q-7 -47 -28 -47q-7 0 -15 5q-27 16 -30 132q-1 18 -1 37q0 98 16 200q18 121 47 151q2 2 4 3q8 7 13 7q12 0 12 -33q0 -23 -6 -62q-5 -34 -7 -51q-1 -8 -1 -15
q0 -9 2 -18q2 -16 7 -21t21 -7q6 -1 12 -1q10 0 20 2q16 3 49 10q20 4 40 4q24 0 47 -6q42 -11 72.5 -36.5t51 -63t26.5 -78.5q2 -15 2 -30q0 -28 -7 -58q-11 -46 -39 -87z" />
    <glyph glyph-name="seven" unicode="7" horiz-adv-x="441" 
d="M410 691q-7 -20 -64 -37.5t-134 -22.5q-44 -3 -77 -3q-46 0 -68 6q-37 10 -37 46q0 35 41.5 47.5t156.5 12.5q102 0 144 -10q39 -9 39 -30q0 -5 -1 -9zM268 29q-2 -12 -12.5 -20.5t-24.5 -8.5q-49 0 -70 48q-13 31 -13 76q0 25 4 56q12 84 54 185q24 59 46.5 100t29.5 41
q6 -13 7 -97v-13q0 -80 -6 -191q-6 -120 -15 -176z" />
    <glyph glyph-name="eight" unicode="8" horiz-adv-x="535" 
d="M195 481q66 -26 104 -26q21 0 34 8q36 21 36 120q0 41 -3.5 62t-17.5 34.5t-35.5 17t-64.5 3.5q-45 0 -79.5 -17t-48.5 -43q-15 -26 -15 -54q0 -2 1 -2q0 -30 24 -58t65 -45zM128 118q21 -67 78 -77q10 -2 21 -2q51 0 124 40q68 36 77 85q1 7 1 14q0 42 -42 82
q-50 46 -145 75q-17 5 -33 5q-28 0 -51 -17q-35 -27 -42 -81q-3 -15 -3 -31q0 -42 15 -93zM429 77q-75 -75 -172 -77h-6q-94 0 -157 70q-62 69 -63 135q-1 1 -1 3q0 63 59 111q29 24 36 40q3 6 3 13q0 10 -5 21q-10 18 -43 54q-34 38 -43 60q-5 13 -5 27q0 10 3 21
q6 26 36 77q35 63 75.5 85.5t119.5 22.5q62 0 108 -18t70 -47q22 -29 22 -68v-3q-1 -42 -28 -86q-30 -48 -30 -79v-4q2 -32 40 -87q57 -82 57 -135v-7q-4 -56 -76 -129z" />
    <glyph glyph-name="nine" unicode="9" horiz-adv-x="496" 
d="M206 764q45 0 84 -14q50 -17 89 -56t61 -91q26 -51 26 -114q0 -16 -2 -32q-11 -93 -35 -171q-2 -3 -7 -17.5t-7.5 -20.5t-8 -16t-11.5 -17q-5 -7 -15 -8q-2 -1 -4 -1q-7 0 -12 5q-10 13 -10 38q0 7 1 14q0 10 2 27.5t3 20.5v2q0 7 -5 11q-6 5 -15 6h-4q-15 0 -23 6
q-12 7 -12 26q0 4 1 8q2 13 7.5 27.5t14 31t12.5 25.5q21 50 21 97q0 35 -11 69q-19 58 -64 73q-12 5 -25 5t-25 -4q-27 -9 -47 -28q-35 -36 -49 -87q-10 -33 -10 -66q0 -18 3 -36q1 -14 6 -28t12.5 -30.5t10.5 -25.5q6 -16 6 -28q0 -15 -9 -25q-10 -10 -25 -10q-10 0 -23 4
q-46 13 -65 70q-12 38 -12 80q0 52 18 109q28 79 56 120q15 24 41 38q24 13 51 13h10zM127 230h7q13 0 24 -9q12 -11 14 -27q1 -4 1 -8q0 -14 -7 -35q-8 -24 -8 -38v-7q0 -7 5 -12q5 -7 13 -9q2 -1 5 -1t6 1q6 1 9 1h2v-1q3 0 10 3q8 3 10.5 3.5t10 4t10 4.5t10 4.5t9.5 4.5
q1 1 7 3.5t7.5 3.5t7 3t7.5 2.5t7 2.5t8 2t7 0.5t8 0.5t8 -1q11 -1 18 -11q4 -9 4 -17v-5q-9 -35 -53 -60q-45 -21 -86 -30q-14 -3 -27 -3q-25 0 -43 13q-25 20 -45 79q-1 2 -4.5 13t-4.5 14.5t-3.5 13.5t-3 15t-1.5 14q-1 5 -1 10q0 3 1 5q0 7 2 14q2 17 16.5 27.5
t32.5 11.5z" />
    <glyph glyph-name="colon" unicode=":" horiz-adv-x="226" 
d="M162 139q-34 -34 -56 -34q-1 0 -2 1q-23 1 -56 41q-18 22 -18 36q0 3 1 6q4 15 40 34q22 12 45 13h4q20 0 34 -8q15 -9 24 -22q6 -10 6 -22q0 -5 -1 -10q-4 -18 -21 -35zM165 392q-44 -28 -67 -28q-1 0 -1 1q-23 0 -41 29q-5 8 -5 20q0 8 3 17q5 23 21 42q26 31 40 31h1
q14 -1 46.5 -33.5t33.5 -45.5q0 -13 -31 -33z" />
    <glyph glyph-name="semicolon" unicode=";" horiz-adv-x="226" 
d="M115 568q15 0 48 -33q32 -32 33 -45v-1q0 -13 -30 -32q-44 -29 -67 -29q-1 0 -1 1q-23 0 -41 30q-5 8 -5 19q0 8 3 17q5 23 20 42q25 31 40 31zM120 300q39 0 57 -27q7 -12 7 -25q0 -17 -13 -35q10 -22 10 -53q0 -17 -3 -37q-9 -56 -38 -82q-3 -3 -7 -6q-38 -32 -60 -32
q-4 0 -7 1q-8 2 -8 9q0 10 20 32q31 34 35 67v8q0 29 -21 53q-18 7 -44 38q-18 22 -18 36q0 3 1 6q5 15 41 35q22 12 45 12h3z" />
    <glyph glyph-name="semicolon" unicode="&#x37e;" horiz-adv-x="226" 
d="M115 568q15 0 48 -33q32 -32 33 -45v-1q0 -13 -30 -32q-44 -29 -67 -29q-1 0 -1 1q-23 0 -41 30q-5 8 -5 19q0 8 3 17q5 23 20 42q25 31 40 31zM120 300q39 0 57 -27q7 -12 7 -25q0 -17 -13 -35q10 -22 10 -53q0 -17 -3 -37q-9 -56 -38 -82q-3 -3 -7 -6q-38 -32 -60 -32
q-4 0 -7 1q-8 2 -8 9q0 10 20 32q31 34 35 67v8q0 29 -21 53q-18 7 -44 38q-18 22 -18 36q0 3 1 6q5 15 41 35q22 12 45 12h3z" />
    <glyph glyph-name="less" unicode="&#x3c;" horiz-adv-x="616" 
d="M539 580h3q10 0 20 -7q10 -8 14 -21q4 -9 4 -20q0 -5 -1 -11q-3 -17 -16 -27q-9 -8 -21.5 -15.5t-20.5 -11.5t-25.5 -11.5t-22.5 -10.5q-103 -42 -239 -88q-59 -19 -113 -31q33 -12 103.5 -42t108.5 -43q58 -22 194 -63q40 -14 54 -32q5 -8 5 -18q0 -11 -8 -24
q-7 -14 -20 -21q-10 -6 -21 -6h-6q-13 0 -27 3.5t-23 6.5t-26 10t-23 9q-96 39 -228 105q-101 51 -154 94q-16 17 -19 21q-1 3 -1 6q0 10 14 20q16 11 58 32q29 13 89.5 37t90.5 38q87 38 201 101q33 17 56 20z" />
    <glyph glyph-name="equal" unicode="=" horiz-adv-x="638" 
d="M76 456q24 0 75 -6q108 -14 238 -14h86q63 0 96 -5q29 -4 29 -11q0 -5 -12 -10q-62 -26 -269 -34q-65 -3 -106 -4h-75q-35 1 -53 3.5t-31 8t-17.5 13t-5.5 18.5q-1 5 -1 10q0 14 8 22q9 9 38 9zM83 347q25 0 76 -6q108 -14 238 -14h85q64 0 97 -5q29 -4 29 -11
q0 -4 -13 -9q-61 -27 -269 -35q-64 -2 -105 -3q-28 -1 -52 -1q-13 0 -24 1q-34 0 -52.5 2.5t-31 8t-17 13t-6.5 18.5q-1 5 -1 10q0 14 8 22q9 9 38 9z" />
    <glyph glyph-name="greater" unicode="&#x3e;" horiz-adv-x="616" 
d="M77 592q22 -3 56 -20q114 -63 200 -101q31 -14 91.5 -38t88.5 -37q43 -21 59 -32q14 -10 14 -19q0 -4 -2 -7q-3 -4 -19 -21q-53 -43 -154 -94q-132 -66 -227 -105q-6 -2 -23.5 -9t-26 -10t-23 -6.5t-26.5 -3.5h-6q-11 0 -21 6q-13 7 -20 21q-8 13 -8 24q0 10 5 18
q13 18 53 32q137 41 194 63q39 13 109.5 43t102.5 42q-54 12 -112 31q-136 46 -239 88q-6 3 -23 10.5t-25.5 11.5t-21 11.5t-21.5 15.5q-12 10 -15 27q-2 6 -2 11q0 11 5 20q3 13 14 21q9 7 20 7h3z" />
    <glyph glyph-name="question" unicode="?" horiz-adv-x="387" 
d="M284 261q-54 -39 -90 -40q-2 -1 -3 -1q-35 0 -69 35q-35 35 -35 75q0 68 104 151q54 43 82 91q27 44 27 79q0 23 -12 42q-22 34 -73 34q-25 0 -56 -8q-47 -12 -57 -30q-4 -8 -4 -22q0 -18 7 -46q8 -30 8 -46q0 -8 -2 -12q-3 -9 -14 -9q-6 0 -15 3q-40 13 -49 49
q-3 11 -3 23q0 38 33 79q50 61 123 61q82 0 126.5 -41.5t44.5 -118.5q0 -48 -26.5 -88.5t-93.5 -94.5q-50 -40 -85.5 -75t-35.5 -44q0 -23 25 -33q14 -6 32 -6q12 0 25 3q33 6 54 28q20 20 40 28q9 3 16 3q8 0 13 -4q4 -4 4 -10q0 -8 -6 -18q-11 -19 -35 -37zM234 -23
q-34 -34 -56 -34h-3q-22 3 -39 48q-5 14 -5 27q0 24 21 43q19 16 43 16q16 0 34 -7q38 -14 39 -36v-1q0 -22 -34 -56z" />
    <glyph glyph-name="at" unicode="@" horiz-adv-x="605" 
d="M256 408h4q172 0 280 -159q29 -43 34 -104q1 -11 1 -21q0 -45 -19 -67q-31 -33 -68 -44q-16 -5 -31 -5q-21 0 -40 9q-35 14 -47 47q-4 2 -8 2t-7 -2q-6 -4 -22 -18q-28 -27 -41 -27q-1 0 -1 1q-13 1 -38 35q-21 30 -24 75q-1 10 -1 19q0 34 9 66q11 39 36 68t54 29
q36 0 81 -25q30 -18 30 -28q0 -4 -4 -6q-15 -10 -18 -87q-1 -15 -1 -29q0 -53 10 -71q9 -1 16 -1q32 0 52 16q28 20 28 58q0 14 -4 31q-23 94 -147 178q-43 24 -89 33q-28 4 -53 4q-17 0 -33 -2q-40 -6 -69.5 -26t-39.5 -53q-4 -11 -4 -21q0 -14 7 -26q11 -23 56 -72
q34 -37 49.5 -56t22.5 -36q4 -11 4 -19q0 -5 -1 -9q-5 -11 -20 -29q-16 -17 -38 -27q-19 -9 -37 -9q-3 0 -5 1q-21 1 -24 14v1q0 6 10 11q10 6 27 7q23 2 31 17q2 5 2 11q0 11 -7 23q-12 19 -38 32q-65 33 -84 99q-7 22 -7 41q0 41 27 74q32 40 74 57.5t114 19.5q3 1 5 1
q3 0 6 -1zM316 271q-18 -1 -27 -10q-13 -13 -14 -83q-1 -7 -1 -14q0 -58 12 -78q11 -16 33 -16t38 17q9 9 12 38v20q0 19 -2 38q-5 29 -13.5 55t-20.5 30q-8 3 -17 3z" />
    <glyph glyph-name="A" unicode="A" 
d="M442 791q-28 -1 -71 -23q-60 -28 -60 -48q0 -2 1 -3q5 -21 101 -113q95 -89 124 -201q40 -13 79 -33q25 -13 52 -26q0 29 -2 56q-2 116 -11 172t-29.5 90.5t-67.5 70.5q-74 58 -116 58zM345 357q-30 0 -56 -11q-30 -13 -44 -44q-11 -22 -11 -43q0 -9 3 -17q6 -29 33 -37
q36 -11 96 -32q8 -3 11 -4q25 55 35 129l4 46q-40 13 -71 13zM186 280q-74 -65 -74 -122v-8q6 -61 95 -89q17 -5 35 -5q26 0 50 12q40 22 71 72h-6q-22 0 -52 10q-35 10 -62 26q-42 27 -53 48q-7 13 -7 30q0 11 3 26zM867 851q8 -9 17 -19q62 -71 62 -107q0 -13 -9 -13
q-13 0 -42 24q-40 34 -64 34q-13 0 -22 -10q-22 -30 -22 -194q0 -48 2 -109q1 -77 4 -125q9 15 9 34q1 21 10 36.5t22 15.5q28 -1 28 -30v-2q-3 -50 -62 -101l-4 -3q7 -96 26 -133t68 -64q37 -23 56 -45q11 -15 11 -24q0 -6 -4 -10q-6 -4 -16 -4q-16 0 -40 8q-43 13 -94 43
q-43 27 -65.5 39t-37.5 14h-8q-11 0 -17 -6q-9 -9 -16 -30q-10 -24 -24 -34q-9 -5 -16 -5q-6 0 -12 5q-7 5 -7 16q0 5 2 13q5 19 24 36q28 25 38 148q-9 3 -18 4q-79 25 -99 34q-7 -72 -43 -136q-45 -77 -94.5 -105.5t-147.5 -30.5h-12q-79 0 -125 35q-50 36 -86 130
q-9 23 -9 44q0 23 10 44q20 39 95 102l127 109l-97 31q-23 8 -39 15q-23 11 -23 16q0 4 12 4q16 1 30 1q78 0 117 -33q29 -28 29 -67q0 -19 -8 -41q51 23 116 23h13q-28 204 -231 281q-116 46 -116 85h1q0 38 117 41q40 1 76 12.5t45 26.5q23 34 51 34q8 0 15 -3
q37 -10 132 -84l118 -89l85 99l85 99z" />
    <glyph glyph-name="B" unicode="B" horiz-adv-x="1035" 
d="M885 54q-64 -43 -167 -51q-27 -3 -53 -3q-76 0 -150 20q-99 25 -155 78q-95 89 -162 91h-1q-49 0 -50 -54q0 -22 -13 -38.5t-31 -16.5q-28 0 -40 12q-10 7 -10 20q0 22 37 59q68 66 168 89q161 37 161 227q0 80 -29 188q-24 95 -54 133.5t-83 44.5q-14 3 -29 3
q-26 0 -47 -9q-32 -13 -43 -38q-10 -20 -10 -45v-11q2 -32 26.5 -67t65.5 -64q69 -49 92 -101q9 -23 9 -42q0 -27 -19 -49q-32 -37 -107 -42l-106 -9l101 36l100 37l-131 109q-115 95 -124 160q-1 5 -1 10q0 61 85 133q46 40 117 53q26 4 53 4q40 0 81 -12q64 -18 97 -62
q16 -20 32 -20q4 0 7 1q20 5 52 40q36 39 89 54q28 8 57 8q23 0 46 -6q49 -12 90.5 -38.5t61.5 -70.5q10 -26 10 -52q0 -20 -5 -40q-8 -22 -8 -42q0 -54 57 -83q50 -26 50 -32q0 -7 -45 -7h-3q-72 0 -120 61q-51 60 -51 141v5q0 41 -18.5 75.5t-46.5 42.5q-18 7 -36 7
q-54 0 -92 -67q-46 -84 -46 -237v-54q0 -98 -13 -142q-17 -51 -75 -91l-92 -64l160 -98q62 -39 98.5 -58t69.5 -30q21 -7 38 -7q10 0 19 2q23 6 45 20.5t54 44.5q56 52 59 123v8q0 66 -43 128q-46 65 -130 104q-6 2 -11 5q-75 36 -75 59q0 5 4 10q12 12 48 12q40 0 113 -16
q64 -14 110 -57t65 -101q17 -54 17 -110v-9q-2 -62 -33.5 -119t-86.5 -93z" />
    <glyph glyph-name="C" unicode="C" horiz-adv-x="1100" 
d="M191 844q75 60 180 79q42 7 84 7q62 0 121 -16q99 -27 162 -92q38 -41 88 -53q20 -6 39 -6q26 0 48 11q36 19 36 61q0 31 12 52t29 21q34 0 41 -35q1 -9 1 -19q0 -27 -16 -62q-21 -47 -60 -77q-33 -26 -56 -37.5t-51 -16.5q-8 -2 -18 -2q-22 0 -48 7q-39 11 -85 29.5
t-125 54.5q-131 60 -189 70q-17 3 -33 3q-43 0 -89 -19q-104 -40 -148 -130q-31 -59 -31 -126q0 -35 9 -71q23 -108 111 -196q186 -146 384 -177q52 -9 97 -9q108 0 178 49q65 47 65 116q0 34 -14 72q-69 51 -69 61q0 8 51 8q71 0 116.5 -32t55.5 -79q3 -14 3 -29
q0 -36 -18 -79q-26 -59 -86 -108q-63 -53 -216 -69q-50 -5 -96 -5q-96 0 -172 23q-39 11 -72 23t-80 33t-84 45.5t-77.5 61t-68.5 78t-47 97t-22 119.5q-1 18 -1 36q0 102 32 173q34 81 129 155z" />
    <glyph glyph-name="D" unicode="D" horiz-adv-x="1091" 
d="M901 84q-75 -59 -178 -76q-42 -8 -82 -8q-62 0 -120 16q-99 27 -161 91q-39 40 -88 54q-22 5 -39 5q-26 0 -46 -12q-36 -19 -36 -61q0 -29 -12.5 -50.5t-29.5 -21.5q-33 0 -39 35q-3 8 -3 17q0 29 18 64q20 46 59 76q31 25 55 36.5t51 17.5q9 1 19 1q20 0 46 -7
q38 -11 83 -29.5t124 -53.5q132 -59 189 -69q16 -2 32 -2q43 0 88 17q102 40 148 129q29 59 29 125q0 35 -7 71q-25 107 -111 193q-87 86 -170 123q-56 25 -97 25q-36 0 -59 -21q-24 -23 -24 -62q0 -50 42 -126q53 -97 53 -160q0 -11 -2 -21q-11 -66 -98 -117
q-56 -31 -82 -31h-1q-27 1 -71 39q-62 54 -64 112v6q0 41 40 41q19 0 27 -17q6 -12 6 -27q0 -7 -1 -16q-2 -6 -2 -12q0 -19 13 -36q17 -21 48 -27q5 -1 13 -1q28 0 46 25q15 22 15 51q0 9 -1 20q-7 40 -42 59q-40 20 -40 107v6q1 92 43 159q19 32 19 47q0 6 -4 10
q-9 7 -58 7q-33 0 -86 -3q-173 -12 -222 -73q-16 -20 -16 -42q0 -45 71 -95q67 -49 69 -60q0 -10 -51 -10q-70 0 -115 32.5t-55 80.5q-4 14 -4 29q0 35 19 76q24 58 85 107q63 51 124 69q48 14 138 14q18 0 40 -2q294 -7 454 -131.5t170 -351.5q1 -17 1 -34q0 -104 -32 -173
q-36 -80 -128 -154z" />
    <glyph glyph-name="E" unicode="E" horiz-adv-x="848" 
d="M808 628q5 -14 5 -30q0 -10 -1 -20q-7 -29 -26 -45q-26 -23 -36 -23v1q-10 0 -10 24q0 18 -25 30.5t-61 12.5q-54 0 -60 10q-1 1 -1 4q0 11 26 38q49 52 107 52h1q58 -1 81 -54zM570 267q-40 -34 -128 -40q-17 -3 -32 -3q-62 0 -89 24q-12 10 -17 44q-6 27 -6 57v14l4 91
l29 -88q13 -42 41 -65t66 -23q57 0 77 29q10 14 10 32q0 21 -10 46q-20 49 -77 106q-83 83 -98 168q-5 18 -5 34q0 57 46 82q16 8 23 8h3q2 -1 2 -5q0 -5 -6 -15q-3 -3 -3 -11q0 -17 20 -53q28 -50 78 -105q95 -104 114 -189q4 -20 4 -39q0 -59 -46 -99zM720 126
q-85 -89 -179 -113q-42 -11 -92 -11q-63 0 -138 16q-113 27 -172 73t-84 131.5t-25 238.5q0 82 2 125t7 80t20.5 59.5t33.5 41t54 44.5q73 57 132 69q32 8 88 8q45 0 104 -5q49 -4 92 -4q40 0 75 4q73 6 99 25q30 22 40 22h2q3 -1 3 -6q0 -9 -8 -26q-37 -98 -165 -98
q-65 0 -154 25q-46 14 -70 20t-50 10q-20 1 -30 1h-9q-11 -1 -28.5 -10t-28 -20t-30.5 -34q-47 -49 -65 -155q-13 -66 -13 -133q0 -44 6 -91q13 -116 56 -189q34 -56 96 -90.5t134 -38.5q15 -1 30 -1q57 0 111 12q71 15 129 59t87 105q22 48 30 48t8 -29v-2q0 -25 -28 -70
q-28 -48 -70 -91z" />
    <glyph glyph-name="F" unicode="F" horiz-adv-x="959" 
d="M671 -183q-127 -100 -241 -104q-5 -1 -11 -1q-110 0 -222 87q-50 37 -66 109q-9 30 -9 62q0 42 13 84q20 76 71 127q20 19 33 40q29 43 29 72q0 12 -6 21q-6 11 -19 11q-17 0 -49 -27q-4 -4 -10 -8q-40 -32 -66 -32q-7 0 -13 2q-10 4 -10 13q0 14 26 41q49 52 99 52
q10 0 22 -3q56 -14 77 -80q9 -27 9 -53q0 -65 -52 -129q-66 -83 -69 -159v-8q0 -73 56 -117q58 -47 162 -47q90 0 173 62t83 130q0 23 -33 97t-79 155q-57 99 -74 157q-13 40 -13 81q0 18 3 36q7 61 45 167q8 22 8 38q0 23 -14 39q-26 27 -122 68q-110 45 -179 45
q-13 0 -25 -2q-74 -10 -106 -82q-10 -23 -10 -45q0 -41 30 -78q48 -62 143 -84q24 -7 39 -12q21 -6 21 -11t-36 -7h-13q-60 0 -111 21q-56 24 -85.5 64.5t-36.5 88.5q-3 10 -3 21q0 37 20 74q25 48 81 82q88 55 174 55q12 0 22 -1q96 -8 246 -88q81 -43 130.5 -64t83.5 -25
q8 -1 13 -1q25 0 39 12q18 14 28 48q11 36 15 36q6 0 11 -50v-6q0 -57 -51 -88q-55 -33 -161 -33q-85 0 -110 -49q-11 -23 -11 -64t13 -101l29 -136l93 102q64 69 92 78q6 1 12 1q27 0 72 -29q36 -24 50 -51q8 -14 8 -25q0 -12 -8 -22q-18 -25 -37 -25l-2 -1q-20 0 -51 24
q-25 17 -55 22q-12 2 -22 2q-16 0 -27 -5q-43 -24 -43 -96q-2 -1 -2 -2q0 -69 42 -92q42 -21 48 -99q1 -12 1 -26q0 -65 -24 -134q-29 -84 -78 -125z" />
    <glyph glyph-name="G" unicode="G" horiz-adv-x="948" 
d="M260 143q13 -11 23 -20q31 -25 72 -36q41 -13 78 -13q3 0 5 1q40 0 83 4q79 5 145.5 36t95.5 87q23 43 30 97q3 33 3 62v33q-5 41 -13 98q-3 32 -32 54q-29 18 -63 18h-5q-11 4 -21 4t-18 -4q-14 -7 -17 -25q-3 -12 -3 -25v-8q2 -18 7 -34q9 -32 9 -63q0 -36 -11 -72
q-21 -67 -78 -107q-22 -15 -46 -24q-25 -9 -51 -9q-3 0 -4 1q-29 0 -49 15q-45 37 -58 96q-5 26 -5 51q0 30 8 58q5 20 10 20q3 0 6 -6q9 -16 9 -34q0 -7 -2 -14q0 -50 27.5 -94t80.5 -52q8 -1 13 -1q29 0 54 20q24 20 24 45q0 7 -1 12q-3 42 -24.5 85t-54 91t-47.5 78
q-8 19 -13 40.5t-7 37.5q-1 10 -1 23v20q1 25 2.5 38t6 42.5t4.5 39.5q4 13 4 21q0 22 -22 29q-12 4 -24 4q-22 0 -43 -13q-51 -13 -88 -47t-50 -79q-11 -32 -16.5 -64.5t-8.5 -74.5t-3 -62q-1 -10 -1 -29t1 -46v-65q2 -43 4 -66t9 -59.5t23.5 -65t42.5 -49.5zM671 49
q-10 -4 -26 -11t-27.5 -11t-26.5 -10t-28 -9t-28 -5q-13 -3 -24 -3q-3 0 -6 1q-14 0 -29 3q-60 12 -87.5 19t-73.5 23.5t-79 37.5q-105 69 -157 183q-49 106 -49 220v19q1 109 54.5 206t154.5 146q138 63 281 70q5 2 10 2q4 0 8 -2q6 -1 8 -6t4 -9v-14q-2 -8 -2 -12
q3 -15 25.5 -29t41.5 -24q14 -9 14 -17v-4q-10 0 -47 2q-13 2 -24 2q-21 0 -37 -4q-23 -5 -40 -21q-22 -23 -23 -53v-6q0 -27 11 -51q12 -26 32 -50q20 -29 55 -40q17 -6 34 -6t36 6q7 3 26.5 8.5t30.5 9t26 11t23.5 17t13.5 22.5q1 6 1 14q0 20 -7 51q-6 25 -6 44
q0 14 3 24q23 101 94 115q15 -2 24 -13.5t11 -22.5t2 -32t2 -26q-3 -38 -5.5 -58t-12.5 -50.5t-27 -51.5q-32 -7 -36 -29q-2 -4 -2 -7q0 -18 25 -32q86 -65 101 -143q5 -29 5 -58q0 -88 -53 -172q-70 -111 -194 -164z" />
    <glyph glyph-name="H" unicode="H" horiz-adv-x="966" 
d="M665 -277q-81 -20 -109 -20q-2 0 -2 1q-29 0 -96 23q-117 39 -128 120q-3 10 -3 19q0 69 76 119q63 43 148 43q32 0 67 -6q51 -9 79 -10h5q25 0 45 8q22 9 33.5 27.5t28.5 55.5q27 63 27 134q0 47 -11 97q-29 127 -115 196q-36 30 -53.5 41t-41.5 13h-6q-23 0 -42 -9
q-23 -10 -73 -35q-103 -53 -103 -102q0 -10 5 -20q50 -114 50 -187v-19q-8 -76 -88 -157q-52 -52 -79 -70q-26 -16 -53 -16q-3 0 -4 1q-31 1 -87 24q-63 24 -86 54q-19 23 -19 54q0 10 1 20q6 31 19 55q25 43 55 43q4 0 9 -1q40 -8 40 -79q0 -93 42 -115q11 -6 24 -6
q36 0 84 42q2 3 11 10q39 33 45 53q1 7 1 13q0 18 -8 41q-15 33 -72 133l-18 30q-105 179 -105 294l2 1q0 116 105 215q54 50 80 66q22 13 39 13q5 0 9 -1q21 -4 56 -32q42 -34 76 -37h9q32 0 71 18q43 20 57 20q10 0 10 -10q0 -8 -6 -22q-10 -24 -65 -38.5t-143 -15.5
q-153 -3 -192 -39q-21 -21 -21 -64q0 -35 14 -85q24 -84 79 -88h6q55 0 158 70q45 30 98.5 52t83.5 23q49 0 108.5 -53.5t101.5 -133t42 -144.5t-16.5 -130t-45 -118t-66.5 -97t-80.5 -67.5t-86.5 -30.5q-11 -2 -21 -2q-34 0 -67 18q-33 15 -72 16h-7q-35 0 -58 -13
q-23 -12 -33 -27q-6 -12 -6 -22q0 -30 48 -59q63 -38 151 -38q21 0 43 2q13 1 26 3q26 1 47 1q65 0 68 -18v-2q0 -22 -95 -43z" />
    <glyph glyph-name="I" unicode="I" horiz-adv-x="753" 
d="M318 930h6q62 0 109 -25q43 -23 99.5 -85t79.5 -80q3 -2 7 -6t8.5 -5.5t8.5 -1.5q9 8 14.5 30t10.5 30q4 11 21 14h6q12 0 19 -8q6 -9 6 -36v-14q0 -48 -47 -72q-43 -20 -99 -20h-4q-45 0 -81 25q-27 21 -63 68.5t-55 63.5q-55 49 -111 49q-6 0 -13 -1q-50 -4 -76 -53
q-19 -35 -19 -79q0 -16 3 -32q2 -36 36 -54q17 -8 34.5 -14t39 -11t35 -8.5t39.5 -8.5t36 -7q8 -3 26.5 -6t28.5 -7q13 -6 13 -17v-3q-1 -15 -14 -20q-9 -1 -101 -5q-13 -1 -25 -1q-93 0 -158 50q-78 61 -78 168v13q0 38 19 74t56 57q63 37 183 38zM576 619h3q15 0 23 -13
q5 -16 7 -20v-2q0 -5 -4 -19q-6 -18 -6 -23v-3q0 -53 47 -128q67 -95 75 -171q2 -14 2 -26q0 -86 -72 -163q-38 -44 -97 -67q-50 -20 -104 -20h-17q-78 4 -144 46.5t-95 106.5q-4 11 -10 32t-14 37t-19 28q-6 6 -10 6q-3 0 -4 -3q-5 -6 -5 -22q0 -3 2 -5v-14q0 -10 -2 -16
q-3 -18 -16 -32.5t-33 -15.5h-5q-13 0 -24 9q-14 11 -18 26q-6 20 -6 39q0 36 22 67q27 38 98 46q21 2 40 2q42 0 63 -13q30 -23 53 -89q12 -37 17 -50t20 -39t34 -42q30 -26 78 -26q8 0 19 1q63 6 89 31q33 34 33 92q0 14 -2 29q-2 35 -31 94.5t-33 75.5q0 2 -4 14.5
t-4.5 16t-1.5 13.5q-2 5 -2 12q0 2 2 5q0 6 2 12q-34 6 -46 33q-5 16 -5 31q0 38 34 74q16 15 22 19.5t20 12.5t29 11z" />
    <glyph glyph-name="J" unicode="J" horiz-adv-x="718" 
d="M296 930q170 0 274.5 -84.5t104.5 -224.5q0 -52 6.5 -120.5t6.5 -118.5q0 -52 -13 -111q0 -95 -38 -203.5t-98.5 -193t-125.5 -114.5q-96 -45 -147 -47q-3 -1 -4 -1q-49 0 -117 39q-43 24 -52 86q-3 17 -3 33q0 44 19 87q26 57 75 71q14 5 26 5q20 0 26 -15q4 -9 4 -26
q0 -25 -8 -65q-9 -38 -9 -63q0 -23 7 -35q15 -25 72 -25q42 0 88 27.5t69 66.5q39 62 55 252q8 101 8 203q0 88 -5 176q-15 189 -52 250q-38 61 -99 87q-38 15 -75 15q-26 0 -51 -7q-62 -18 -98 -73q-18 -29 -18 -57q0 -20 10 -39q23 -47 119 -135q107 -95 134 -159
q29 -38 36 -76q2 -11 2 -20q0 -28 -15 -55q-32 -44 -89 -61q-39 -12 -75 -12q-20 0 -39 4q-55 9 -93 44q-39 33 -39 79v4q1 17 4 25q1 4 6 4q14 0 54 -52q26 -32 61.5 -55.5t58.5 -23.5q33 0 50 33q12 22 12 51q0 12 -3 25q-7 44 -36 74q-39 25 -79 58q-79 62 -124 131
t-49 129v16q0 50 22 92q26 47 90 76t154 29z" />
    <glyph glyph-name="K" unicode="K" horiz-adv-x="803" 
d="M734 136q-16 -27 -37.5 -46.5t-34.5 -19.5q-30 0 -77 87.5t-47 146.5q0 24 -18 64t-44 72q-40 50 -40 64v1q3 11 61 11q63 0 77 30q3 7 3 13q0 23 -39 44q-16 9 -27.5 36t-11.5 55q0 44 -21 56q-13 5 -40 5q-22 0 -55 -4q-6 -1 -12 -1q-29 -4 -47 -4q-39 0 -39 14v1
q3 20 92 40q22 5 42 5q62 0 121 -41q78 -56 78 -133q0 -49 14 -64q7 -9 22 -9q11 0 25 5q16 6 26 6h3q13 0 13 -7q0 -5 -6 -13q-10 -14 -33.5 -24t-46.5 -10q-51 0 -52 -27q-1 -2 -1 -3q0 -31 38 -153q22 -69 46 -95q18 -20 36 -20q9 0 16 2q26 9 39 9q5 0 7 -1q8 -3 8 -11
q0 -22 -38 -81zM232 47q-70 -45 -94 -45h-3q-36 0 -73 56q-32 47 -32 86q0 10 1 19q5 15 11 26q12 20 28 20q9 0 19 -6q26 -15 26 -52q0 -10 -1 -21q-2 -9 -2 -15q0 -15 4 -25q9 -20 31 -20q14 0 36 11q60 30 92 104q6 14 6 33q0 64 -78 180q-89 133 -94 221v9q0 85 74 189
q36 53 64 75t67.5 30t121.5 8q107 0 157 -18t101 -73q33 -38 56 -80.5t23 -65.5q-1 -25 -4 -31q-2 -4 -3 -4q-3 0 -4 3q-5 6 -15 28q-32 78 -121 142t-164 64q-71 0 -128.5 -21.5t-92.5 -56.5t-51 -79q-10 -30 -10 -60q0 -15 3 -29q7 -45 43 -87.5t95 -72.5q19 -9 30 -17
q17 -11 17 -17t-14 -6q-29 -2 -29 -36q0 -22 13 -60q13 -39 13 -79q0 -45 -16 -90q-31 -88 -103 -137z" />
    <glyph glyph-name="L" unicode="L" horiz-adv-x="773" 
d="M666 59q-72 -56 -174 -56h-11q-111 4 -208 69q-99 69 -128 69h-1q-25 0 -25 -50q0 -23 -12 -39t-29 -16q-19 0 -31 8q-17 13 -17 37q0 20 13 49q30 65 92 86q79 27 107 55q18 19 18 44q0 13 -4 27q-13 42 -73 119q-65 83 -85 129q-15 31 -15 63q0 12 3 26q9 43 53 117
q35 59 95.5 94t128.5 40h27q53 0 105 -14q63 -17 113 -63t69 -111q7 -24 7 -53q0 -21 -5 -46q-10 -57 -38 -108q-61 -104 -61 -142v-1q0 -24 25 -24q13 0 34 8q16 5 30 5q8 0 15 -2q17 -5 17 -20q0 -16 -13 -24q-14 -8 -37 -8q-29 0 -69 15q-72 27 -83 70q-1 6 -1 15
q0 26 14 69q18 55 49 107q49 79 49 133q0 116 -226 116q-43 0 -65.5 -0.5t-44.5 -5.5t-30 -11.5t-16.5 -22.5t-11.5 -33t-6 -50q-1 -19 -1 -36q0 -43 13 -77q17 -49 69 -96q62 -58 70 -91q2 -7 2 -17q0 -31 -23 -87q-25 -56 -25 -86q0 -9 3 -15q9 -30 81 -79q99 -69 157 -69
q1 0 4 1q58 1 118 75q23 29 36 40q12 10 17 10q12 0 12 -26q0 -22 -22.5 -56.5t-54.5 -60.5z" />
    <glyph glyph-name="M" unicode="M" horiz-adv-x="1319" 
d="M449 181q-23 -41 -36.5 -65t-31.5 -44.5t-31 -29.5t-37 -15t-45 -6q-9 -1 -18 -1q-18 0 -44 1q-111 2 -123 12q-1 2 -1 4q0 14 43 54q55 50 121 50q24 0 49 -6q24 -6 43 -6q33 0 42 21q14 31 20 216q2 35 2 68q0 199 -38 304q-42 114 -122 114q-8 0 -15 -1
q-65 -6 -89 -41q-14 -20 -14 -45q0 -20 8 -44q20 -53 82 -106q67 -55 87 -106q7 -20 7 -38q0 -26 -19 -46q-30 -33 -102 -37h-40q-19 0 -19 4t27 10q52 11 67 29q4 6 4 15q0 14 -13 33q-22 29 -85 79q-92 72 -98 163v11q0 83 79 142q74 56 140 56q65 0 151 -56
q42 -27 62 -33q10 -4 17 -4t13 3q12 6 23 31q15 33 68 45q27 7 58 7q27 0 56 -5q60 -12 95 -43q30 -29 46 -29q1 0 1 1q18 0 39 29q17 22 68 30q29 5 62 5q24 0 52 -2q36 -4 56.5 -7t40 -12t28.5 -17.5t17.5 -29.5t12 -43t7.5 -62q6 -40 6 -74q0 -96 -43 -145
q-30 -34 -49 -128q-16 -79 -16 -149q0 -14 2 -27q2 -81 30 -81q14 0 39.5 12.5t46.5 29.5q29 24 42 24q9 0 9 -12q0 -42 -71 -125q-29 -32 -42 -45t-30 -15q-3 -1 -6 -1q-14 0 -26 9q-14 9 -46 35q-54 45 -72 143q-7 40 -7 80q0 58 16 116q24 97 82 140q59 45 59 78
q0 15 -13 27q-17 17 -29 52q-11 31 -11 61v13q0 31 -18 56q-20 28 -47 43q-25 13 -53 13h-8q-34 -3 -59 -24q-20 -17 -31 -97q-10 -66 -10 -145v-76q0 -116 -16 -189q-19 -85 -75 -181q-62 -103 -97 -128q-20 -16 -49 -16q-20 0 -43 8q-88 25 -102 40q-4 3 -4 11q0 15 17 39
q13 16 49 25q22 5 45 5q14 0 28 -3q19 -2 32 -2t24 2.5t18 11.5t13 20t10 32.5t7 46t7 61.5q7 76 7 152q0 83 -8 167q-17 159 -59 219q-22 32 -42 34h-3q-20 0 -55 -23q-36 -26 -46 -85q-7 -33 -7 -90q0 -44 4 -104q3 -50 3 -93q0 -74 -8 -126q-16 -83 -68 -179z" />
    <glyph glyph-name="N" unicode="N" horiz-adv-x="1006" 
d="M118 47q-7 -19 -24.5 -32t-33.5 -13q-13 4 -13 20q0 19 18 53q46 73 165 73q75 0 101.5 21t44.5 94q27 132 27 245q0 32 -1 65q-12 136 -69.5 222t-145.5 86q-66 0 -92 -30q-16 -19 -16 -42q0 -18 9 -39q18 -52 80 -107q68 -61 90 -117q8 -23 8 -43q0 -27 -16 -47
q-28 -35 -102 -41l-104 -9l103 38l103 37l-116 93q-67 54 -88 99q-16 34 -16 79q0 15 1 31q9 77 35 99t118 29q19 2 38 2q44 0 86 -9q58 -13 94 -41q38 -31 56 -37q7 -4 14 -4t14 4q12 8 32 39q23 35 64 51q34 14 73 14h13q45 -2 89.5 -19t77.5 -44t47 -63q8 -19 8 -38
t-8 -39q-7 -18 -7 -31q0 -12 7 -19q12 -15 54 -16q33 0 39 -7q1 -1 1 -2q0 -15 -81 -73q-70 -50 -94 -100.5t-28 -156.5q-1 -26 -1 -50q0 -57 5 -93q10 -59 39 -59q26 0 68 49q13 15 24 25q22 19 31 19q7 0 7 -10q0 -15 -24.5 -53t-59.5 -75q-23 -27 -34.5 -38.5t-26 -21.5
t-19.5 -10q0 -2 -2 -2q-6 0 -16 7q-13 6 -21.5 14.5t-25.5 30.5q-63 70 -63 200q0 17 1 33q9 154 89 242q49 57 59 88q2 7 2 15q0 21 -19 39q-20 16 -34 52.5t-14 70.5q0 79 -37 99q-11 6 -27 6q-32 0 -77 -29q-39 -25 -57.5 -93.5t-25.5 -207.5q-9 -174 -50 -285.5
t-142 -243.5q-26 -35 -46 -35t-67 35q-42 30 -61 31h-3q-17 0 -27 -25z" />
    <glyph glyph-name="O" unicode="O" horiz-adv-x="1074" 
d="M789 52q-46 -20 -105 -35q-55 -14 -90 -14h-5q-71 0 -189.5 50t-149.5 90q-13 17 -37 19h-10q-19 0 -38 -6q-24 -10 -42 -29.5t-18 -41.5q0 -21 -11.5 -36t-27.5 -15q-27 0 -33 9q-2 3 -2 6q0 22 41 100q42 79 131 82h10q88 0 232 -64q62 -27 134 -46.5t112 -19.5
q49 0 116.5 35t117.5 84.5t53 86.5q2 41 17 106q3 15 3 30q0 63 -45 146q-56 103 -134 147q-37 21 -133 41t-194 26q-79 5 -131 5q-43 0 -65 -3q-47 -8 -60 -43q-6 -15 -6 -34q0 -35 20 -85q29 -77 91 -153q26 -32 27 -57v-4q0 -25 -21 -55q-30 -41 -85 -57q-38 -12 -72 -12
q-17 0 -35 3q-52 9 -89 41q-36 32 -36 75v4q1 17 4 23q2 4 6 4q14 0 52 -48q24 -30 57.5 -52t53.5 -22q34 0 47 30q5 14 5 30q0 19 -8 40q-14 40 -49 65q-48 37 -57 101q-3 14 -3 27q0 51 26 103q32 68 95 114q82 62 187 79q46 8 91 8q56 0 112 -11q98 -23 186 -84t138 -151
q69 -127 71 -251v-6q0 -122 -65 -218q-68 -101 -190 -157z" />
    <glyph glyph-name="P" unicode="P" horiz-adv-x="934" 
d="M234 930q130 0 210 -64.5t80 -169.5q0 -34 0.5 -51t6.5 -33.5t13 -22.5t26 -11t38.5 -6t57.5 -1q41 0 59.5 1t37.5 6t24 10t8 21q1 8 1 15q0 8 -1 16l-9 48q-12 57 -18 87.5t-17 57.5t-19 36.5t-25 15.5q-13 4 -26 4q-4 0 -10 -1q-17 -3 -49 -9q-33 -8 -53 -9h-8
q-23 0 -23 10q0 5 5 13q17 23 79 32q27 4 56 4q36 0 72 -5q65 -11 94 -38q20 -17 34.5 -63.5t14.5 -94.5q1 -20 5.5 -54.5t5.5 -55.5v-11q0 -17 -3 -33q-4 -24 -23.5 -37.5t-55.5 -18.5h-9q-26 0 -89 -7q-49 -5 -94 -5q-21 0 -43 2h-11q-39 0 -45.5 -9.5t-6.5 -67.5v-4
q0 -111 -62.5 -233t-137.5 -157q-74 -34 -111 -35h-4q-38 0 -90 29q-33 17 -40 65q-1 11 -1 24q0 34 14 68q20 44 58 55q10 2 18 2q16 0 22 -11q3 -7 3 -20q0 -19 -7 -49q-6 -29 -6 -48q0 -17 6 -26q10 -20 54 -20q30 0 65.5 20.5t54.5 50.5q29 48 42 194q5 76 5 153
q0 67 -4 135q-12 144 -39 191q-29 46 -76 66q-29 12 -56 12q-21 0 -39 -5q-48 -14 -77 -57q-13 -21 -13 -41q0 -17 8 -32q17 -36 90 -102q81 -73 104 -122q20 -29 27 -58q2 -9 2 -17q0 -20 -12 -39q-33 -45 -95 -54q-16 -3 -31 -3q-45 0 -81 22q-49 26 -49 76v3q0 11 3 16
q1 4 4 4q12 0 42 -38q20 -25 46.5 -42.5t44.5 -17.5q26 0 39 25q8 16 8 38q0 10 -1 20q-6 34 -28 57q-30 18 -60 43q-75 59 -108 125q-26 51 -26 92q0 13 3 25q10 52 62.5 85.5t138.5 33.5z" />
    <glyph glyph-name="Q" unicode="Q" horiz-adv-x="1045" 
d="M508 930h14q127 0 241 -61q121 -64 184 -179q68 -126 68 -245q0 -27 -3 -55q-20 -145 -132 -243q24 -22 51 -52q35 -41 52 -84q9 -25 9 -41q0 -13 -6 -20q-16 -24 -29 -24q-3 0 -5 3q-15 6 -44 55q-28 47 -59 62t-98 15q-2 -1 -7 -1q-1 0 -4 1h-10q-94 -33 -153 -33h-4
q-69 1 -185 49t-145 87q-11 17 -36 19h-9q-20 0 -38 -7q-23 -9 -40.5 -28t-17.5 -40q0 -20 -11 -34.5t-26 -14.5q-26 0 -32 7q-2 3 -2 7q0 20 39 96q41 77 127 82h10q85 0 226 -64q97 -43 190 -59q0 1 -1.5 5t-2.5 6q-7 25 -7 42t10 23q8 5 42 5q23 0 57 -2q65 -6 105 -25
q52 34 87.5 73t38.5 67q1 42 15 105q3 13 3 30q0 60 -43 140q-55 100 -131 144q-36 20 -129 39.5t-188 24.5q-82 7 -132 7q-39 0 -58 -4q-47 -8 -59 -42q-6 -15 -6 -33q0 -36 19 -83q29 -75 88 -148q26 -32 27 -57v-2q0 -24 -21 -54q-29 -40 -82 -57q-35 -10 -68 -10
q-17 0 -35 3q-50 9 -86 40q-36 30 -36 73v4q1 16 4 22q2 3 6 3q13 0 49 -46q25 -30 56.5 -51t52.5 -21q32 0 45 30q6 14 6 29q0 19 -7 39q-15 38 -48 62q-59 44 -59 121q0 19 4 40q18 105 113 175q109 82 256 85z" />
    <glyph glyph-name="R" unicode="R" horiz-adv-x="1003" 
d="M217 396q-17 -4 -43 -4t-44 10.5t-18 24.5t19 19q6 1 13 1q13 0 30 -5q26 -8 44 -19t18 -16q0 -6 -19 -11zM324 37q-74 -34 -111 -35h-4q-38 0 -90 29q-33 17 -40 65q-1 11 -1 24q0 34 14 68q20 44 58 55q10 2 18 2q16 0 22 -11q3 -7 3 -20q0 -19 -7 -49q-6 -29 -6 -48
q0 -18 6 -27q10 -19 54 -19q30 0 65.5 20.5t54.5 50.5q29 48 42 194q5 79 5 158q0 65 -4 130q-10 144 -39 191q-29 46 -76 66q-29 12 -58 12q-20 0 -39 -5q-47 -14 -75 -57q-13 -21 -13 -41q0 -17 8 -32q17 -36 90 -102q42 -38 69 -71q42 -50 42 -72q0 -10 -8 -14
q-5 -3 -12 -3q-37 0 -128 73q-75 59 -108 125q-26 51 -26 92q0 13 3 25q10 52 62.5 85.5t138.5 33.5q130 0 210 -64.5t80 -171.5q0 -32 0.5 -49t6.5 -33.5t12.5 -22.5t26 -11t39 -6t57.5 -1q41 0 59.5 1t37.5 5.5t24 9.5t8 21q1 9 1 16q0 8 -1 16l-9 48q-12 57 -18 87.5
t-17 57.5t-19 36.5t-25 15.5q-13 4 -26 4q-4 0 -10 -1q-17 -3 -49 -9q-33 -8 -53 -9h-8q-23 0 -23 10q0 5 5 13q17 23 79 32q27 4 56 4q35 0 71 -5q66 -11 95 -38q20 -17 34.5 -63.5t14.5 -94.5q0 -47 15 -86t36 -47q12 -3 13 -7v-1q0 -10 -53 -13q-29 0 -43.5 -5t-26 -14.5
t-15.5 -37t-6.5 -61.5t-2.5 -99q0 -163 25 -197q9 -12 23 -12q24 0 68 37q5 4 8 8q23 17 32 17q7 0 7 -9v-3q-3 -42 -73 -122q-29 -33 -43.5 -46t-30.5 -15q-5 -2 -8 -2q-12 0 -22 7q-13 8 -40 32q-64 55 -64 183v27q2 91 3 146v12q0 46 -10 71q-11 28 -27.5 36.5t-51.5 8.5
q-49 0 -65.5 -22.5t-16.5 -86.5q0 -111 -62.5 -233t-137.5 -157z" />
    <glyph glyph-name="S" unicode="S" horiz-adv-x="1094" 
d="M774 37q-131 -34 -239 -34q-77 0 -144 18q-159 42 -263 188q-69 99 -89 215q-9 49 -9 96q0 64 16 120q27 99 99 174.5t174 96.5q93 19 162 19q24 0 46 -1q82 -10 196 -62q111 -50 165 -50q58 0 58 53q0 22 12 38.5t30 16.5q20 0 20 -20q0 -21 -22 -65q-27 -50 -95 -76
q-52 -20 -111 -20q-18 0 -39 3q-82 7 -148 48q-69 41 -141 52q-26 3 -49 3q-46 0 -88 -13q-63 -21 -113.5 -63.5t-80 -110t-29.5 -147.5q0 -207 176 -301q122 -68 311 -68q79 0 171 13q118 16 162.5 42t79.5 97q33 69 33 99v6q-4 28 -58 62q-73 46 -142 46h-4
q-72 -1 -173 -51q-108 -54 -208 -57h-10q-92 0 -149 46q-61 46 -61 129q0 42 43 76t103 44q20 3 41 3q39 0 78 -12q10 -3 12 -7v-3q0 -10 -75 -12q-48 -1 -84.5 -17.5t-54.5 -39.5q-15 -20 -15 -42q0 -5 1 -9q3 -29 30 -53q19 -17 52 -17q13 0 27 2q52 9 156 54
q153 67 236 78q16 1 30 1q58 0 82 -35q12 -15 31 -20q7 -3 14 -3q10 0 20 5q9 6 18 6q20 0 43 -26q30 -36 46 -99q10 -40 10 -77q0 -21 -3 -41q-23 -123 -91.5 -194.5t-195.5 -103.5z" />
    <glyph glyph-name="T" unicode="T" horiz-adv-x="1025" 
d="M213 65q-2 -40 -32 -49q-8 -3 -16 -3q-23 0 -49 23q-11 10 -11 29q0 21 14 54q28 60 74 86q18 10 63 18q38 6 74 6h11q32 0 49 1.5t23 7.5q3 2 3 6t-2 8q-4 7 -18 21q-20 19 -33 49q-12 24 -12 44v9q2 18 7 20h2q11 0 30 -47q16 -34 38 -59t40 -25h3q59 0 67 50q2 7 2 15
q0 46 -43 106q-41 57 -45 95v9q0 34 26 80q49 89 49 122v1q0 20 -41 39q-43 19 -99.5 30t-114.5 15h-22q-43 0 -69 -11q-42 -16 -62 -59q-16 -29 -16 -58q0 -12 5 -25q8 -40 46 -50q53 -15 137 -45q40 -14 51 -20q6 -5 6 -8q0 -2 -4 -4q-9 -5 -46 -11q-10 -2 -22 -2
q-26 0 -63 11q-53 14 -97 40q-64 39 -79 70q-7 14 -7 34q0 24 10 57q30 97 121 146q73 39 173 39q21 0 44 -1q129 -11 268 -80q64 -32 125 -55t84 -23v-1q32 3 51 32q6 25 6 44v9q0 20 12 39q13 21 30 21q41 -1 41 -39q0 -7 -2 -15q-10 -65 -85 -128q-49 -40 -96 -50
q-19 -4 -42 -4q-36 0 -80 9q-35 8 -54 11q-16 3 -30 3h-4q-18 -1 -23 -4.5t-8 -13.5q-1 -6 -1 -13q0 -4 1 -9q2 -13 8 -37q21 -81 31 -120.5t16.5 -83t6.5 -59.5t-7 -37.5t-16.5 -32t-30.5 -29.5q-29 -26 -41 -38q-10 -11 -10 -22v-3q2 -14 15 -22t46 -24q85 -43 154 -43
q103 0 167 97q42 62 56 64q10 0 10 -30q0 -41 -51 -99t-120 -100q-69 -41 -115 -41h-3q-32 0 -100.5 23t-133.5 56q-115 56 -174 56h-6q-59 -3 -60 -72z" />
    <glyph glyph-name="U" unicode="U" horiz-adv-x="1026" 
d="M574 103q-50 -33 -74.5 -49t-57 -30t-46.5 -16q-7 -2 -16 -2q-12 0 -30 3q-31 4 -54 12t-69 25q-88 34 -106 52q-7 6 -7 14q0 13 28 30q36 19 55 99.5t27 248.5q5 107 6 165v11q0 49 -6 82q-5 35 -16.5 44.5t-34.5 9.5q-28 -2 -53 -17t-31.5 -34.5t-21.5 -25.5
q-7 -4 -13 -4q-8 0 -17 7q-7 5 -7 17q0 11 7 29q13 36 48 76q30 38 46 53.5t37 20.5q7 3 16 3q12 0 23 -5q19 -8 58 -29q20 -11 31.5 -18.5t23.5 -21.5t18 -24t11.5 -35t7 -46.5t3.5 -65.5v-85q-2 -41 -3 -112q-2 -62 -2 -111q0 -74 3 -121q5 -76 31 -113q18 -30 49 -30
q7 0 15 3q41 9 120 53q36 20 56 33.5t38 36t25.5 44.5t14 66t7 90.5t0.5 126.5q0 52 -4 92q-13 153 -82 153q-34 0 -81 -37q-35 -26 -40 -26q-2 0 -2 3q0 11 46 77q23 34 36 52.5t31 32t31 17.5q7 3 17 3q9 0 21 -2q24 -4 47 -12.5t65 -24.5q63 -25 76 -44q3 -5 3 -12
q0 -15 -20 -33q-22 -21 -33 -118q-10 -81 -10 -187v-52q1 -60 3 -95q5 -164 27 -189q9 -9 27 -9q16 0 39 6q36 10 58 10h4q23 -1 23 -20q0 -28 -52 -94q-36 -48 -59 -53q-3 -1 -7 -1q-21 0 -62 28q-30 18 -52.5 47.5t-22.5 51.5q-3 41 -20 46q-3 1 -7 1q-33 0 -140 -71z" />
    <glyph glyph-name="V" unicode="V" horiz-adv-x="1084" 
d="M923 115q-100 -105 -242 -113h-22q-131 0 -255 87q-121 82 -201 84q-71 0 -71 -64q0 -28 -15.5 -47.5t-37.5 -19.5q-26 0 -37 6q-12 7 -12 20q0 2 1 3q0 15 12.5 40.5t39.5 67.5q22 35 66.5 60t84.5 25q114 0 175 85q53 76 53 205q0 15 -1 31q-8 156 -72 231
q-47 53 -108 53q-28 0 -58 -10q-53 -17 -75 -50q-11 -19 -11 -38q0 -15 7 -29q17 -34 69 -51q33 -10 57 -43t24 -66q0 -51 -36 -96.5t-90 -67.5q-31 -13 -60 -13q-20 0 -39 6q-17 6 -23 11q-3 3 -3 5q0 9 52 10q85 4 88 52v2q0 48 -80 148q-38 50 -46 99q-1 13 -1 24
q0 35 16 64q20 38 61.5 64t95.5 36q21 4 46 4q33 0 70 -7q64 -13 124 -49q39 -25 70.5 -95t42.5 -154q5 -51 5 -90q0 -54 -10 -84q-20 -55 -99 -117l-127 -97l151 -76q141 -70 226 -70q0 -1 2 -1q82 0 150 66q40 42 41 74v2q0 31 -36 80q-23 31 -38.5 68t-20.5 71
q-1 18 -1 33t1 30q5 27 20.5 43.5t38.5 16.5q38 0 38 11q0 12 -38 43q-26 21 -44.5 59.5t-18.5 70.5t-27.5 69t-66.5 57q-23 11 -34 19q-19 10 -19 15v1q2 5 25 5q24 0 69 -5q72 -6 105.5 -34.5t43.5 -88.5q8 -46 35 -93t59 -68q42 -27 42 -41v-4q-9 -15 -82 -31
q-32 -6 -48 -10.5t-27.5 -11t-12.5 -11.5v-2q0 -6 6 -15q7 -13 18.5 -25t35.5 -33q84 -79 84 -149v-6q-4 -74 -104 -181h-1z" />
    <glyph glyph-name="W" unicode="W" horiz-adv-x="1280" 
d="M874 132q29 -19 82 -32.5t99 -13.5h10q61 0 81 15q22 16 22 69q0 35 -18 72.5t-44 56.5q-32 24 -48 74q-13 35 -13 69q0 13 3 26q6 46 35 62q14 7 14 40v6q-1 38 -22 89q-43 116 -56 161q-8 30 -50 40q-17 4 -36 4q-27 0 -55 -8q-50 -14 -80 -46q-32 -33 -32 -80
q0 -49 32 -166q21 -79 31 -166q5 -45 5 -77q0 -30 -5 -51q-6 -25 -6 -47q0 -64 51 -97zM412 140q60 -42 123 -50q19 -3 38 -3q40 0 75 14q47 20 78 67t31 112q0 50 -13 93t-31 53q-21 11 -29 74q-5 34 -5 76q0 35 3 76q5 61 5 94q0 31 -2.5 57.5t-13 36.5t-25 15.5
t-43.5 9.5q-33 4 -45 4q-34 0 -43 -34q-7 -23 -7 -122q0 -61 3 -152v-41q0 -107 -13 -152q-16 -54 -75 -102q-26 -21 -38 -31t-21.5 -22.5t-9.5 -17.5q-1 0 -1 -1q0 -5 7 -14q7 -11 17 -18t35 -22zM1189 97q-60 -76 -144 -90q-21 -4 -43 -4q-72 0 -164 34q-78 27 -125 27
q-35 0 -54 -15q-40 -35 -128 -35q-21 0 -47 3q-126 11 -211 69l-108 74l-33 -79q-24 -55 -50 -55q-12 0 -25 11q-27 24 -27 51q0 24 19 50q39 58 128 74q108 22 160 35.5t52 258.5q0 211 -48 295q-36 61 -101 61q-23 0 -50 -7q-82 -23 -85 -87q-2 -4 -2 -6q0 -62 75 -121
q33 -25 62 -63t38 -67q4 -16 4 -31q0 -28 -14 -54q-23 -42 -68 -60q-25 -11 -49 -11q-22 0 -42 8q-19 6 -27 11q-13 7 -13 9v1q1 8 62 15q85 12 89 44v3q0 31 -75 66q-33 15 -64 56.5t-41 85.5q-7 36 -7 69q0 23 3 44q8 53 42 90t77 57q35 16 81 16h17q55 -4 108 -34
q58 -34 89 -34v-1q32 0 78 30q46 29 90 29q28 0 57 -13t94 -17q18 -1 39 -1q44 0 87 6q44 6 80 6q83 0 128 -31q65 -47 65 -166q0 -45 8 -73q9 -31 25 -31q4 0 8 3q10 6 21 6q4 0 8 -1q12 -5 12 -20q0 -17 -17.5 -28t-41.5 -11q-77 0 -84 -47v-10q0 -44 58 -109
q76 -83 82 -145v-10q0 -61 -58 -131z" />
    <glyph glyph-name="X" unicode="X" horiz-adv-x="1082" 
d="M665 930q25 0 66 -11q38 -10 59 -54q16 -34 16 -70q0 -10 -1 -20q-6 -48 -39 -67q-15 -9 -25 -9t-15 8q-13 15 -18 68q-6 56 -21 72q-12 9 -31 9q-13 0 -28 -4q-31 -7 -58 -35t-36 -61q-4 -15 -4 -38q0 -55 24 -157q32 -141 86 -277t96 -174q40 -38 92 -45q13 -3 26 -3
q36 0 67 18q42 24 55 70q3 13 3 24q0 26 -19 49q-27 30 -119 78q-100 51 -136 92q-28 23 -43 52q-10 19 -10 35q0 10 3 19q13 39 51 61.5t81 26.5h12q36 0 68 -16q36 -18 46 -55q3 -8 3 -13v-4q0 -5 -6 -5q-12 0 -49 26q-27 20 -58 31q-23 8 -39 8q-4 0 -8 -1
q-30 -8 -30 -43q0 -7 1 -18q9 -51 53 -77q32 -10 72 -28q90 -40 141.5 -95t57.5 -107q1 -7 1 -14q0 -44 -36 -82q-40 -46 -122 -64q-52 -13 -98 -13q-66 0 -122 26q-97 43 -128 145q-12 34 -44 113q-26 -90 -75.5 -164.5t-102.5 -99.5q-75 -34 -113 -35h-2q-38 0 -90 28
q-33 18 -40 66q-1 11 -1 24q0 34 14 66q20 44 58 56q11 2 18 2q16 0 22 -10q3 -7 3 -20q0 -19 -7 -50q-8 -29 -8 -49q0 -16 6 -25q12 -20 55 -20q31 0 66 21t53 51q29 48 42 192q6 78 6 157q0 65 -4 131q-11 143 -39 189q-29 47 -77 67q-28 11 -56 11q-19 0 -37 -5
q-48 -14 -75 -57q-15 -21 -15 -42q0 -15 8 -30q17 -37 90 -102q81 -73 103 -122q21 -28 27 -57q1 -8 1 -15q0 -22 -11 -42q-32 -45 -94 -54q-16 -2 -30 -2q-45 0 -82 22q-49 27 -49 76v2q0 13 3 18q1 3 6 3q11 0 40 -37q20 -25 46.5 -42.5t44.5 -17.5q24 0 37 25q9 17 9 39
v18q-6 33 -28 57q-30 17 -60 42q-75 59 -108 125q-26 50 -26 91q0 13 3 25q10 52 62.5 85t138.5 33q90 0 157 -31t101 -88q20 39 43 59q45 36 72.5 50.5t57.5 14.5z" />
    <glyph glyph-name="Y" unicode="Y" horiz-adv-x="1003" 
d="M914 930q13 0 23 -5q12 -6 22 -40.5t13 -77.5q1 -30 1 -50q0 -29 -3 -32q-1 -2 -3 -2q-10 0 -46 34q-27 26 -47 26q-9 0 -16 -3q-24 -17 -99 -129q-65 -96 -120 -155q36 -85 36 -187q0 -24 -1 -47q-10 -131 -67 -186q-54 -55 -89 -68q-19 -6 -44 -6t-54 5q-37 8 -62 50
q-26 40 -26 85q0 2 2 4q0 47 30 68q14 10 26 10q9 0 14 -6q15 -14 25 -65q10 -56 29 -69q8 -9 26 -9q14 0 33 6q29 10 53 40t29 63q1 9 1 19q0 55 -39 172q-46 138 -112 269t-111 166q-44 34 -96 37h-13q-45 0 -79 -22q-39 -26 -48 -74q-1 -8 -1 -15q0 -32 24 -54
q30 -29 125 -69q104 -44 144 -83q31 -20 49 -46q13 -20 13 -39q0 -8 -1 -15q-12 -52 -66 -79q-39 -19 -80 -19q-17 0 -33 4q-57 11 -76 57q-4 13 -4 18t7 5q13 0 50 -23q29 -17 61 -26q18 -5 33 -5q8 0 14 1q26 9 26 38q0 11 -4 25q-15 50 -61 73q-36 9 -73 22
q-92 33 -149 84t-67 102q-3 11 -3 23q0 38 27 75q35 46 116 73q61 20 119 20q53 0 101 -18q99 -36 141 -134q14 -35 39.5 -83t28.5 -55q30 51 66 106q63 96 131.5 155.5t114.5 60.5z" />
    <glyph glyph-name="Z" unicode="Z" horiz-adv-x="984" 
d="M815 -219q-72 -50 -173 -63q-37 -5 -73 -5q-59 0 -114 14q-88 21 -149 73.5t-61 121.5q0 43 -18 68t-49 25q-64 0 -64 -103q0 -27 -3 -43q-5 -31 -21 -31q-10 0 -25 13q-35 31 -35 75q0 17 6 35q17 68 85 106q33 19 62 19q8 0 15 -2q35 -7 87 -47q37 -29 64 -68.5
t27 -66.5q0 -57 41.5 -96.5t99.5 -49.5q20 -5 41 -5q39 0 81 13q65 19 105 69q65 81 65 175q0 93 -63 199q-39 67 -81.5 90t-121.5 23q-59 0 -113 -19t-79 -47q-23 -28 -50 -38q-12 -5 -22 -5q-13 0 -20 8q-9 6 -9 16t8 21q12 25 46 47q57 35 59 52v2q0 17 -48 58
q-66 58 -68 92v1q0 34 62 78q36 28 55 28h3q17 -3 32 -37q10 -22 14 -54v-23q0 -18 -3 -31q-1 -6 -1 -12q0 -28 40 -43q30 -11 68 -11q24 0 52 5q70 11 116 48q81 65 81 174v2q-2 111 -85 184q-81 70 -151 70h-16q-76 -10 -189 -114q-20 -20 -40 -35q-72 -62 -101 -62
q-7 0 -11 5q-5 4 -5 11q0 32 74 122q59 70 109.5 93.5t152.5 23.5q76 0 148 -22t124.5 -58t88 -83.5t48.5 -97.5q4 -21 4 -44q0 -29 -9 -58q-15 -52 -62 -95q-33 -31 -69.5 -53t-53.5 -22q-6 0 -8 -5v-2q0 -22 101 -101q91 -69 123 -163q15 -48 15 -94q0 -48 -15 -94
q-33 -93 -124 -157z" />
    <glyph glyph-name="bracketleft" unicode="[" horiz-adv-x="334" 
d="M89 928h2q13 0 21 -15q2 -1 24 -3q24 -3 69 -3t57 -1q2 0 12.5 -0.5t16.5 -2.5t11 -6q2 -4 2 -7v-5q-3 -7 -9 -10q-14 -4 -29.5 -7.5t-27.5 -5.5t-30.5 -3.5t-27.5 -2t-31 -1t-29 -1.5v-33q-11 -233 -12 -296q-2 -88 -2 -193v-72q-1 -149 -5 -207h28q42 0 85 4q6 0 31 4
q13 1 23 1q9 0 15 -1q10 -1 15 -10q3 -7 3 -14q0 -3 -1 -6q0 -10 -7 -17.5t-16 -9.5q-18 -4 -54 -4q-14 0 -31 1q-4 0 -34 1.5t-41 2.5t-32 5t-38 9q-8 1 -13 7q-4 4 -4 8q0 3 1 5q7 11 36 13q-3 17 -5 39q-15 162 -19 532v49q0 140 5 190q-14 9 -14 26q0 5 1 11q1 10 11 15
q7 3 15 3h4q9 10 24 11z" />
    <glyph glyph-name="backslash" unicode="\" horiz-adv-x="457" 
d="M188 319q-44 79 -71.5 129.5t-48 93.5t-29 67t-9.5 44v5q0 15 6 25t20 20q19 13 35 13q15 0 26 -12q23 -24 60 -128q25 -69 73 -175.5t90 -186.5q87 -162 87 -202q0 -8 -3 -11q-2 -1 -4 -1q-20 0 -86 89q-67 91 -146 230z" />
    <glyph glyph-name="bracketright" unicode="]" horiz-adv-x="334" 
d="M245 0h-2q-13 0 -21 14q-2 1 -25 4q-24 3 -68 3h-57q-2 1 -12.5 1.5t-16.5 2.5t-11 6q-2 3 -2 7q0 2 1 5q2 6 8 9q13 5 29 8.5t27.5 5t30.5 3t28 2t31 1.5t28 1q0 18 1 34q10 233 12 296q2 89 2 193v72q0 149 5 207h-19q-47 0 -95 -4q-6 -1 -30 -4q-14 -2 -24 -2
q-9 0 -15 1q-10 2 -14 12q-4 6 -4 13q0 3 1 6q1 9 7.5 16.5t16.5 10.5q18 4 53 4q14 0 31 -1q5 -1 35 -2.5t41 -2.5t32 -4.5t37 -8.5q8 -2 14 -7q4 -5 4 -9q0 -2 -1 -4q-7 -11 -36 -13q2 -17 5 -39q14 -162 19 -533q0 -180 -5 -238q14 -10 14 -28q0 -5 -1 -10q-2 -9 -11 -14
q-7 -4 -16 -4h-4q-9 -9 -23 -10z" />
    <glyph glyph-name="asciicircum" unicode="^" horiz-adv-x="328" 
d="M160 206q10 0 29 -16q37 -36 96 -128q13 -23 13 -37q0 -3 -1 -5q-8 -19 -34 -20h-2q-20 0 -32 25q-21 52 -62 117q-8 -19 -20 -42q-30 -56 -45 -76q-8 -14 -23 -19q-9 -3 -16 -3t-14 2q-8 2 -13.5 8t-5.5 14q1 10 19 33q25 30 77 114q1 2 5 8t6 8.5t6 6.5t8 6.5t9 3.5z
" />
    <glyph glyph-name="underscore" unicode="_" horiz-adv-x="629" 
d="M319 4q-65 -2 -106 -3q-28 -1 -52 -1q-13 0 -24 1q-34 0 -52 2.5t-31 8.5t-17.5 13t-5.5 19q-1 5 -1 9q0 23 20 29q8 2 26 2q27 0 75 -6q107 -13 236 -13h89q123 0 123 -17v-1q-6 -19 -150 -34q-60 -6 -130 -9z" />
    <glyph glyph-name="grave" unicode="`" horiz-adv-x="160" 
d="M47 650q12 28 29.5 48.5t30.5 20.5q19 0 20 -9v-1q0 -9 -17 -35q-17 -27 -17 -45q0 -19 18 -48q19 -29 19 -44v-1q-1 -15 -23 -37q-21 -20 -31 -20q-1 0 -2 1q-10 3 -29 43q-15 35 -15 61t17 66z" />
    <glyph glyph-name="a" unicode="a" horiz-adv-x="511" 
d="M141 126q19 -31 61 -31q0 -1 1 -1q40 0 71 31q24 24 25 104v3q0 78 -20 151q-20 74 -48 84q-16 6 -33 6q-6 0 -13 -1q-24 -3 -37 -16q-25 -26 -28 -158v-28q0 -108 21 -144zM229 50q-21 -19 -34 -29t-26 -16q-12 -5 -20 -5h-2q-8 1 -20 10t-22 22t-27 36q-32 46 -42 111
q-6 31 -6 62q0 33 6 66q11 63 35.5 118.5t64.5 90t85 34.5q13 0 28 -2q75 -13 142 -58q38 -25 38 -40q0 -7 -8 -12q-20 -13 -29 -98q-6 -50 -6 -97q0 -35 3 -69q7 -80 27 -80q12 0 25.5 12t20.5 28q5 13 9 16q1 1 3 1q5 0 7 -29v-3q0 -21 -13 -47q-15 -29 -37 -46
q-30 -25 -47 -25h-3q-18 3 -47 42q-17 24 -26 33.5t-21 10.5h-3q-11 0 -21 -7q-11 -9 -34 -30z" />
    <glyph glyph-name="b" unicode="b" horiz-adv-x="442" 
d="M207 109q33 -21 55 -21q0 -1 1 -1q21 0 35 24q13 23 19 69.5t6 123.5q0 84 -19 124q-15 31 -37 31t-50 -28q-27 -27 -39 -99q-8 -44 -8 -86q0 -27 3 -53q8 -68 34 -84zM325 79q-29 -29 -43 -42.5t-33 -24.5t-28 -12h-3q-10 0 -27 5q-20 6 -36 15.5t-49 30.5q-14 9 -25 18
q-34 27 -34 42q0 8 8 13q21 13 29 131q3 54 3 108q0 65 -5 131q-9 121 -31 143q-21 20 -21 35t21 36q16 15 24 15q3 0 5 -1q7 -7 7 -47v-67l90 76q36 30 64 48q43 29 64 29q18 0 18 -23q0 -9 -19.5 -24.5t-47.5 -27.5q-66 -29 -75 -125q-3 -29 -4 -45v-8q0 -12 2 -21
q3 -12 8 -15q2 -3 7 -3q4 0 9 2q12 2 25.5 9.5t37.5 21.5q33 21 52 21q3 0 6 -1q18 -4 45 -40q18 -24 30.5 -79t12.5 -108q0 -78 -17.5 -121t-69.5 -95z" />
    <glyph glyph-name="c" unicode="c" horiz-adv-x="339" 
d="M213 20q-57 -20 -83 -20q-3 0 -5 1q-25 2 -43 31q-42 70 -50 176q-2 23 -2 45q0 80 23 152q28 91 82 122q37 22 56 23h1q17 0 23 -18q3 -12 29 -24.5t40.5 -17t24.5 -7.5l-36 -29q-6 -1 -11 -3q-12 -4 -25 -4q-11 0 -23 3q-28 5 -45 20t-27 15q-4 0 -7 -3
q-10 -11 -13 -65q-4 -62 -4 -112q0 -158 38 -206q13 -17 36 -24q13 -5 24 -5q9 0 17 3q20 7 40 13l36 -29z" />
    <glyph glyph-name="d" unicode="d" horiz-adv-x="458" 
d="M420 232q-8 -40 -37 -91t-62 -82q-31 -30 -46 -42t-35 -15q-8 -2 -14 -2q-13 0 -24 5q-17 6 -54 24q-25 12 -38 19t-25 19.5t-15.5 21.5t-5.5 32q-2 14 -2 28q0 8 1 17q1 21 5 63q8 102 16 148t21 64t37 18q21 0 28 -37q3 -22 3 -59q0 -29 -2 -67q-4 -41 -4 -71
q0 -21 2 -36q4 -40 15 -57.5t40 -32.5q31 -16 47 -16q6 0 10 2q16 7 36 59q29 75 29 138q0 39 -11 74q-28 91 -117 114q-30 7 -70 29t-67 46q-42 36 -49 62q-2 6 -2 15q0 23 14 59q13 33 32.5 56t34.5 23q22 0 22 -7q0 -8 -21 -29q-33 -33 -33 -60q0 -13 9 -25
q24 -36 138 -84q128 -53 173 -127q29 -49 29 -118q0 -36 -8 -78z" />
    <glyph glyph-name="e" unicode="e" horiz-adv-x="386" 
d="M112 364q0 -45 34 -53q7 -2 14 -2q30 0 70 25q24 15 25 34v2q0 19 -20 57q-21 40 -37 46q-3 1 -7 1q-15 0 -35 -17q-18 -15 -31 -42.5t-13 -50.5zM356 126q0 -28 -44 -62.5t-97 -52.5q-31 -11 -52 -11q-16 0 -26 6q-48 26 -82 128q-25 73 -25 130q0 24 4 45q13 74 15 97
q4 31 69.5 87.5t99.5 56.5q18 0 51.5 -37t60 -84t26.5 -72q0 -5 -36 -23.5t-86 -38.5q-36 -14 -57 -24t-36.5 -21t-19.5 -20q-3 -7 -3 -15q0 -4 1 -9q2 -15 10.5 -29.5t25.5 -37.5q27 -37 49 -41q3 -1 7 -1q22 0 65 20q22 10 40 15q14 3 23 3h6q11 -2 11 -9z" />
    <glyph glyph-name="f" unicode="f" horiz-adv-x="325" 
d="M158 38q-2 -16 -12 -27t-22 -11t-18 90q-4 59 -4 134q0 38 1 79q1 61 1 110q0 96 -5 141q-8 67 -39 91q-27 20 -30 35v3q0 13 16 22q15 9 23 42q4 22 4 45q0 12 -1 25q-2 16 -2 31q0 60 33 90q26 22 66 22q25 0 55 -8q26 -7 42 -18q18 -13 18 -26q0 -8 -8 -16
q-15 -16 -48 -16q-18 0 -42 5q-21 5 -35 5t-22 -4q-17 -9 -18 -37v-3q0 -49 37 -87q38 -39 91 -40q23 -1 40 -10q16 -10 16 -22q-1 -13 -15 -22t-33 -9h-1q-26 0 -38 -34q-12 -36 -16 -128q-18 -345 -34 -452z" />
    <glyph glyph-name="g" unicode="g" horiz-adv-x="456" 
d="M120 150q14 -36 40 -41q5 -2 12 -2q25 0 68 17q25 10 36 47t11 114q0 89 -11.5 119.5t-49.5 43.5q-26 8 -49 9h-3q-20 0 -26 -6q-19 -19 -30 -142q-6 -55 -6 -93q0 -46 8 -66zM419 -74q-6 -20 -32.5 -44t-57 -38t-73 -24t-70.5 -10q-38 0 -72 19.5t-49 47.5q-8 14 -8 27
q0 12 7 23q14 23 40 29q8 2 16 2q16 0 29 -8q20 -12 20 -36q0 -17 13.5 -28t34.5 -14q13 -2 26 -2q9 0 19 1q23 2 45.5 12.5t35.5 26.5q20 23 20 48v2q-1 25 -21 69q-11 25 -18 38.5t-16.5 23t-16.5 11.5h-4q-7 0 -18 -4q-15 -5 -29 -14t-40 -27q-27 -19 -39 -26
q-12 -8 -24 -8q-1 0 -1 1q-13 0 -21 7.5t-22 27.5q-15 21 -31.5 66.5t-25.5 89.5q-6 32 -6 59q0 26 6 48q11 44 57 113q56 85 104 108q16 7 30 7q27 0 45 -29q8 -12 30 -21t46 -9q47 0 56 -25q1 -5 1 -10q0 -20 -31 -40q-17 -11 -22 -75q-2 -23 -2 -46q0 -41 6 -83
q9 -66 26 -78q25 -18 38 -91q6 -35 6 -64q0 -30 -7 -53z" />
    <glyph glyph-name="h" unicode="h" horiz-adv-x="427" 
d="M321 -78q-30 -55 -68 -96.5t-61 -46.5q-14 -3 -22 -3q-9 0 -11 4q-1 1 -1 2q0 14 54 78q64 75 93 207q16 75 16 149q0 54 -9 107q-6 36 -9.5 56t-10 36.5t-12 21.5t-16.5 6h-3q-10 0 -21 -5q-12 -5 -33 -16q-38 -21 -49.5 -57.5t-11.5 -136.5q0 -118 16 -145
q6 -11 17 -11q18 0 49 31q19 19 29 20h1q5 0 5 -7v-3q-4 -31 -46 -77q-29 -32 -52 -36q-4 -1 -8 -1q-22 0 -58 17q-54 25 -66 49q-3 7 -3 13q0 16 23 31q19 12 19 180v42q-3 209 -26 309q-10 49 -10 60q0 4 3 4q5 0 23 -24q14 -18 22 -25q7 -6 17 -6q2 0 5 1q13 1 28 10.5
t46 32.5q30 22 54 33t36 11t13 -10v-4q0 -24 -59 -70q-78 -61 -78 -149v-88l87 62l86 62l37 -67q41 -72 41 -202q0 -30 -2 -62q-12 -176 -74 -287z" />
    <glyph glyph-name="i" unicode="i" horiz-adv-x="323" 
d="M231 685q-8 -38 -30 -58q-21 -18 -42 -18h-4q-23 2 -41.5 25.5t-18.5 62.5q0 19 21.5 33t52.5 14q37 0 52 -14q11 -11 11 -31q0 -6 -1 -14zM260 55q-12 -23 -27 -39t-24 -16h-1q-26 3 -41.5 10.5t-27.5 22.5t-17 46t-7.5 72t-2.5 110q0 95 -5 143q-5 49 -15 49
q-4 0 -8 -7q-12 -19 -26 -25q-6 -2 -11 -2q-8 0 -13 5q-4 4 -4 11q0 9 6 23q11 24 35 48q41 41 64 44h4q23 0 74 -26q35 -18 47 -29q8 -7 8 -13q0 -10 -20 -18q-26 -10 -36 -51.5t-10 -134.5q0 -117 9 -137q3 -7 10 -7q10 0 26 13q21 17 32 17q6 0 10 -5q4 -6 4 -15
q0 -28 -33 -89z" />
    <glyph glyph-name="j" unicode="j" horiz-adv-x="303" 
d="M153 70q-6 -10 -13 -18q-38 -48 -78 -52h-5q-27 0 -27 31q0 13 14 22.5t33 9.5q8 0 13 1q22 3 30 35q12 47 17 319q-1 47 -1 82q0 17 1 31v5q0 38 -7 58t-16 25q-5 2 -12 2t-17 -3q-20 -5 -33 -5q-11 0 -16 4q-4 3 -4 9q0 21 62 75q42 37 64 39h2q22 0 62 -28
q30 -21 38 -38q3 -6 3 -11q0 -10 -11 -17q-32 -20 -32 -162t33 -296q8 -36 12 -68q8 -51 8 -80q0 -33 -10 -37h-2q-14 0 -37 62l-28 75zM186 913q-9 -23 -24 -39t-27 -16q-24 0 -39 27q-15 24 -15 54q0 3 1 6q1 34 20 54q14 14 31 17q4 1 8 1q11 0 21 -6q12 -8 21 -22
t10 -34v-4q0 -18 -7 -38z" />
    <glyph glyph-name="k" unicode="k" horiz-adv-x="518" 
d="M408 -225q-32 -12 -66 -12q-25 0 -51 7q-60 16 -89 59q-9 14 -9 30q0 7 1 14q5 24 20 46.5t41 39.5t53 21q58 8 77 60q8 23 8 54q0 37 -12 85q-9 36 -35.5 56.5t-55.5 22.5h-5q-27 0 -52 -17q-27 -19 -36 -54q-8 -32 -8 -55q0 -25 9 -40q8 -14 20 -14q13 0 31 18
q14 14 26 23q19 14 29 14q7 0 9 -8q1 -2 1 -5q0 -22 -40 -64q-45 -48 -71 -55q-6 -2 -13 -2q-24 0 -62 18q-8 4 -15 8q-57 30 -61 55v2q0 17 31 17q13 0 22 49t9 119q0 96 -11 136t-41 51q-24 10 -29 17q-3 3 -3 6q0 5 7 12q9 11 41 33q28 20 47.5 55.5t19.5 67.5q0 36 6 56
q6 23 15 23q6 0 13 -9q28 -34 35 -137l9 -143l83 65q83 66 98 66t24 -40q6 -28 6 -59q0 -13 -1 -26q-4 -46 -18 -61q-31 -31 -54 -31h-2q-20 1 -20 24q0 6 1 14v5q0 13 -13 23q-16 11 -41 11q-30 0 -49 -17.5t-23 -47.5q-2 -11 -2 -20q0 -23 12 -32q16 -13 74 -13
q78 0 134 -37t56 -90q0 -19 -20 -68t-48 -99q-38 -68 -65 -91q-20 -16 -41 -16q-9 0 -19 3q-16 5 -27 5q-9 0 -15 -3q-14 -9 -14 -36q0 -31 22 -39q12 -4 36 -4q21 0 51 3q9 1 17 2q22 2 38 2q49 0 53 -16v-3q0 -15 -48 -34z" />
    <glyph glyph-name="l" unicode="l" horiz-adv-x="310" 
d="M229 57q-12 -23 -21 -34.5t-19 -17.5q-6 -5 -15 -5q-5 0 -11 2q-16 4 -34.5 12.5t-51.5 27.5q-21 12 -33 23q-14 11 -14 17q0 5 12 5q14 1 21 14t11 51q2 30 2 72v26q-1 60 -6 161q-4 89 -4 154q0 44 2 77q2 56 9 56q1 0 3 -2q13 -20 28 -20q1 0 3 1q17 2 50 33
q24 21 54 37q28 14 46 14h2q17 0 17 -9q0 -14 -41 -48q-42 -35 -55.5 -87t-17.5 -195q-2 -57 -3 -95q-1 -40 -1 -73q0 -124 12 -147q6 -12 20 -12q9 0 21 5q18 6 24 6h2q5 -1 5 -7q0 -11 -17 -42z" />
    <glyph glyph-name="m" unicode="m" horiz-adv-x="781" 
d="M195 49q-24 -21 -35 -29t-22 -8h-3q-13 1 -22 11t-28 35q-19 26 -19 43q0 16 15 25q12 7 24 49t19 92.5t7 98.5t-9 65q-6 11 -20 11h-5q-18 -2 -40 -17q-20 -15 -25 -15q-2 0 -2 3q0 13 38 76l60 100l40 -68q11 -20 16.5 -29t15 -16.5t14.5 -8.5h3q5 0 17 3q14 3 26 9
t38 20l37.5 18t26.5 10q12 4 17 4h2q5 -1 12 -6t11.5 -12.5t11.5 -22.5q8 -17 14 -24t13 -11q3 -2 6 -2q6 0 15 4q13 7 28 16.5t44 31.5q25 19 38 28t28.5 16.5t23.5 8.5h2q7 0 20 -4q13 -5 23.5 -12t29.5 -21q43 -32 49 -47v-5q0 -12 -20 -23q-21 -10 -36.5 -56t-22.5 -119
q-6 -62 -6 -94q0 -23 3 -30t10 -7q9 0 26 12q9 7 16 10q10 5 17 5q13 0 14 -18q0 -41 -51 -102q-30 -37 -53 -37q-7 0 -13 4q-39 23 -39 155q0 42 4 94q3 53 4 85v16q0 22 -2 41q-3 25 -9.5 35.5t-19.5 13.5q-5 1 -10 1q-10 0 -21 -3q-18 -6 -46 -19q-27 -13 -39.5 -33
t-18 -60.5t-7.5 -125.5q-4 -160 -24 -199q-8 -15 -22 -15q-20 0 -53 36q-30 34 -31 49v1q0 15 26 28q23 12 32 53q6 29 6 83q0 18 -1 40q-2 74 -7 111.5t-17 54.5q-9 11 -20 11q-5 0 -10 -1q-18 -7 -50 -32q-35 -28 -51 -71.5t-20 -123.5q-2 -24 -2 -44q0 -34 5 -59
q6 -42 20 -43q5 0 8 -3q2 -2 2 -6q0 -12 -26 -35z" />
    <glyph glyph-name="n" unicode="n" horiz-adv-x="562" 
d="M209 111q8 -14 8 -27q0 -30 -40 -55q-31 -18 -47 -18h-4q-16 3 -34 36q-12 23 -13 50q-1 3 -1 7q0 21 9 34q9 15 17 66t10 107q1 41 1 67t-5 39t-13 16h-6q-7 0 -17 -3q-17 -6 -27 -6h-5q-12 2 -12 14q0 22 40 76q20 28 46 34q7 2 13 2q18 0 31 -14q18 -18 18 -52
q0 -18 9 -30.5t22 -12.5q12 0 20.5 8.5t8.5 20.5q0 11 17 28.5t40 30.5q17 9 42 10h7q59 0 110 -31q33 -20 33 -38q0 -9 -8 -17q-11 -11 -23.5 -61t-19.5 -109q-7 -62 -7 -93q0 -18 3 -25q3 -12 19 -12q11 0 27 5q22 7 35 7h1q18 0 18 -15q0 -26 -56 -97q-37 -47 -53 -52
q-3 -1 -5 -1q-14 0 -30 23q-12 19 -21 91t-9 155q0 55 -2.5 90.5t-8 61.5t-14 37t-22.5 12h-2q-14 0 -31 -9q-18 -10 -44 -30q-26 -19 -40 -80q-11 -48 -11 -101q0 -15 1 -30q4 -69 25 -109z" />
    <glyph glyph-name="o" unicode="o" horiz-adv-x="448" 
d="M201 106q32 -21 57 -21q21 0 37 15q35 31 42 127q2 25 2 49q0 82 -25 136q-32 69 -94 69q-37 0 -49.5 -25t-14.5 -105q-1 -34 -1 -63q0 -80 7 -115q8 -47 39 -67zM332 63q-20 -17 -26 -22.5t-21.5 -16.5t-18.5 -13.5t-17 -6.5t-16 -4t-18 2.5t-20 5t-24.5 11.5
t-29.5 14.5t-37 19.5q-24 14 -42 27q-32 24 -32 38q0 6 6 10q13 8 22.5 61t9.5 119q0 44 0.5 66t5 45.5t9.5 33t19.5 23t29 20.5t44.5 21q54 24 79 30q10 2 20 2q13 0 24 -4q19 -7 53 -34q41 -34 54 -76q12 -39 12 -126v-14q-2 -101 -18 -143.5t-68 -88.5z" />
    <glyph glyph-name="p" unicode="p" horiz-adv-x="485" 
d="M206 262q3 -135 6.5 -142.5t76.5 -9.5h5q38 0 54 13q17 14 19 51q4 46 4 84q0 65 -11 108q-18 76 -62 76q-19 0 -42 -14q-30 -18 -40 -54q-10 -33 -10 -99v-13zM207 -79q1 -20 1 -36q0 -37 -4 -60q-7 -35 -22 -35q-13 0 -23.5 17.5t-11.5 42.5q-2 58 -8.5 87.5t-8.5 91.5
q-2 49 -30 49q-8 0 -17 -3q-11 -4 -20 -4q-6 0 -11 2q-13 4 -13 15q0 1 1 1q0 12 13.5 25t31.5 20q44 15 48 154v28q0 81 -10 112q-8 24 -26 24q-16 0 -40 -19q-20 -16 -25 -16q-2 0 -2 4q0 11 22 56q34 70 59 73h2q25 0 63 -56l39 -60l55 57q22 24 45 40.5t33 16.5
q21 0 47 -47.5t44 -114.5q16 -63 16 -113v-6q-2 -60 -35.5 -120t-81.5 -92q-34 -24 -65 -24q-12 0 -23 4t-18 5h-4q-5 0 -10 -2q-6 -4 -8.5 -11t-3.5 -22q-2 -11 -2 -25q0 -5 1 -9q0 -20 2 -50z" />
    <glyph glyph-name="q" unicode="q" horiz-adv-x="469" 
d="M292 550q17 0 33.5 -9.5t44.5 -31.5q44 -36 58 -80q11 -38 11 -122v-26q-1 -83 -10.5 -125.5t-36.5 -75.5q18 -42 18 -77q0 -18 -5 -34q-6 -19 -13 -35q-22 -44 -42 -45h-1q-11 0 -11 19q0 11 3 28q5 23 5 42q0 27 -10 48q-19 -17 -29 -25.5t-24.5 -16.5t-20.5 -11
t-18 -3q-2 0 -4 1q-16 0 -23 2.5t-28.5 11.5t-34.5 16.5t-45 24.5q-27 15 -47 29q-32 25 -32 39q0 6 6 10q14 9 24 65t10 126q0 46 0.5 69.5t5.5 48t10 35t20.5 24.5t31 21.5t46.5 21.5q78 35 106 35h2zM231 477q-40 0 -52.5 -26t-15.5 -111q-1 -41 -1 -73q0 -79 7 -114
q9 -50 42 -71q32 -22 59 -22q13 0 25 6q-9 4 -20 7q-19 5 -27 20q-7 10 -7 21q0 4 2 9q3 15 17.5 29t35.5 17q3 1 7 1q20 0 43 -21q6 28 9 61q2 23 2 45q0 90 -27 149q-34 73 -99 73z" />
    <glyph glyph-name="r" unicode="r" horiz-adv-x="401" 
d="M285 59q-19 -22 -30.5 -34t-27.5 -19q-14 -6 -25 -6h-3q-12 1 -36 10.5t-47.5 24t-64.5 41.5q-3 1 -3 4q0 2 1 4q2 5 9.5 11.5t18.5 13.5q23 15 34 90q6 43 6 86q0 31 -3 61q-8 72 -31 80q-6 2 -10 2q-8 0 -13 -4q-10 -8 -10 -23q0 -8 -1 -13q-3 -12 -8 -12q-3 0 -7 4
q-4 3 -4 13q0 8 3 21q6 27 21 59l35 77l65 -61q25 -24 37 -33.5t23 -10.5h3q9 0 14 7q6 7 17 26q18 32 48 36q4 1 8 1q24 0 44 -20q23 -24 23 -62q0 -49 -21 -56q-4 -2 -8 -2q-19 0 -50 31q-22 22 -39 22q-6 0 -12 -3q-45 -20 -45 -165q0 -121 18 -150q7 -12 20 -12
q20 0 55 32q32 29 44 29q5 0 6 -7v-3q0 -24 -54 -90z" />
    <glyph glyph-name="s" unicode="s" horiz-adv-x="498" 
d="M370 66q-38 -27 -60 -40.5t-39 -20.5q-11 -5 -19 -5q-5 0 -9 2q-10 4 -17.5 14.5t-15.5 32.5q-11 29 -36 37q-11 3 -26 3q-20 0 -47 -6q-15 -4 -23 -6t-17.5 -3.5t-13.5 -1.5q-3 -1 -5 -1t-3 1q-4 0 -4 1h-1q0 1 2 3q1 3 4 6t9.5 8.5t13 10.5t18.5 14q29 23 67 32
q19 5 36 5t31 -5q79 -24 118 -24q10 0 17 2q36 7 43 59q1 9 1 17q0 22 -8 46q-12 33 -33 50q-27 22 -51 22q-4 0 -9 -1q-28 -5 -87 -47q-21 -15 -31.5 -22t-23.5 -15t-18.5 -10.5t-14.5 -2.5t-12.5 2t-10.5 9.5t-11.5 14t-13.5 21.5q-16 26 -28 64.5t-12 65.5q0 42 44.5 100
t97.5 92q33 20 53 20q13 0 21 -8q24 -24 61 -30q13 -3 25 -3q22 0 40 8q28 12 28 38q0 60 -61 93q-41 22 -91 22q-25 0 -51 -5q-36 -7 -58 -7h-5q-23 1 -23 11q0 4 3 8q12 19 68 28q33 5 69 5q24 0 48 -2q62 -6 88 -23q58 -38 62 -108v-10q0 -64 -48 -109q-44 -39 -72 -42
q-4 -1 -8 -1q-28 0 -78 23q-52 24 -76 24q-24 -1 -41 -27q-25 -40 -26 -65q-1 -2 -1 -4q0 -26 19 -73q20 -51 60 -51h6q44 4 99 65q23 26 34.5 36.5t26.5 12.5h4q12 0 22 -7q12 -9 36 -30q62 -57 62 -135q0 -11 -1 -23q-11 -94 -97 -155z" />
    <glyph glyph-name="t" unicode="t" horiz-adv-x="381" 
d="M315 62q-15 -21 -24 -32t-21 -19.5t-20 -9.5q-2 -1 -5 -1q-8 0 -18 3q-15 3 -29.5 9.5t-40.5 19.5q-30 16 -40.5 34t-12.5 63q-1 9 -1 19q0 42 8 105q6 61 8 96v17q0 23 -3 39q-4 22 -12.5 29t-25.5 7q-41 1 -47 18q-1 3 -1 7q0 25 62 62q27 16 46.5 49.5t19.5 65.5
q1 31 11 59.5t23 35.5q4 2 7 2q22 -3 22 -92v-23q-1 -17 -1 -32q0 -14 1 -26q2 -23 4 -37t10 -20t18 -6t28 4q16 4 28 4q35 0 35 -32v-1q0 -19 -21 -31q-19 -12 -47 -12h-4q-9 1 -17 1q-7 0 -12 -1q-10 -1 -19 -8t-12 -16t-5 -31q-2 -18 -2 -38q0 -5 1 -9q0 -25 1 -70
q5 -141 25 -164q5 -6 13 -6q19 0 52 31q2 3 5 5q24 22 37 22q7 0 10 -8q2 -4 2 -9q0 -25 -36 -73z" />
    <glyph glyph-name="u" unicode="u" horiz-adv-x="565" 
d="M266 54q-51 -45 -83 -45v1q-32 0 -89 48q-36 30 -36 46q0 11 15 16q18 7 29 51.5t13 114.5q1 24 1 43t-1 33q-1 27 -6 43.5t-13 18.5q-3 1 -7 1q-7 0 -16 -3q-15 -5 -25 -6h-3q-15 0 -15 12q0 21 46 79q14 18 19.5 25t14.5 13t12 6t11.5 -6.5t14.5 -14t19 -25.5
q34 -45 34 -136q0 -30 -4 -65q-4 -37 -4 -73q0 -21 2 -41q3 -57 14 -78q11 -20 16.5 -27.5t16.5 -7.5q10 0 21 8t35 28q36 31 48 74q10 37 10 109v25q-1 19 -1 36q0 80 12 126q13 53 37 53q13 0 31 -19q15 -16 21 -79q2 -28 2 -61q0 -41 -4 -91q-1 -6 -1 -11q-5 -70 -5 -110
t5 -51q5 -9 19 -9q9 0 24 5q28 9 36 9h2q1 -1 1 -2q0 -9 -29 -46q-47 -58 -55 -70q-1 -1 -4 -1q-6 0 -20 9q-20 13 -44 37q-42 39 -59 41h-2q-18 0 -56 -33z" />
    <glyph glyph-name="v" unicode="v" horiz-adv-x="493" 
d="M270 89q22 -13 45 -15h7q18 0 26 8q33 33 42 145q2 28 2 54q0 74 -19 123q-21 56 -38 66q-5 2 -12 2q-17 0 -45 -15q-41 -21 -58 -102q-10 -45 -10 -90q0 -36 6 -72q14 -82 54 -104zM387 68q-43 -43 -72 -57q-22 -11 -48 -11q-8 0 -17 1q-36 5 -104 32q-18 6 -33 15
q-51 27 -54 51v2q0 15 29 15q10 0 22 44t18.5 99.5t8.5 107.5v18q0 37 -7 50q-5 8 -15 8h-7q-17 -4 -35 -19q-22 -19 -33 -19q-7 0 -9 8q-1 3 -1 6q0 27 44 87q17 23 25.5 32t20.5 10h2q10 0 19 -6q10 -8 30 -28q27 -26 42 -32q7 -4 16 -4q7 0 16 3q18 6 56 31q30 19 44 27
q11 6 24 6h4q14 -1 22.5 -10t25.5 -31q17 -24 29.5 -85.5t12.5 -123.5q0 -89 -15.5 -135.5t-60.5 -91.5z" />
    <glyph glyph-name="w" unicode="w" horiz-adv-x="762" 
d="M529 98q19 -11 37 -11q17 0 32 9q49 28 65 120q6 32 6 63q0 77 -36 143q-20 38 -39 44q-5 1 -10 1q-18 0 -48 -16q-41 -22 -58 -99q-10 -42 -10 -84q0 -35 7 -70q14 -77 54 -100zM243 43q-36 -43 -62 -43q-1 0 -2 1q-27 1 -68 50q-17 22 -23 35q-3 7 -3 12q0 4 2 8
q4 7 20 13q19 6 30 53t11 122q0 112 -10 134q-7 13 -27 13q-12 0 -31 -6q-33 -11 -44 -11q-5 0 -6 2v2q0 12 40 72l57 88l52 -70l53 -70l86 68l86 68l35 -66q10 -18 15.5 -27t13 -15.5t13.5 -6.5l1 -1q6 0 17 4q12 4 23.5 11t32.5 21q49 32 85 32q29 0 49 -21
q43 -49 43 -208q0 -102 -15.5 -149.5t-62.5 -92.5q-39 -36 -61 -47q-18 -9 -38 -9q-6 0 -12 1q-27 3 -84 23q-23 9 -44 18q-70 34 -75 59v3q0 14 33 14q19 0 26 81q3 38 3 78q0 43 -3 87q-8 85 -26 96q-7 5 -21 5q-8 0 -19 -2q-28 -5 -55 -20q-38 -20 -51.5 -57.5
t-13.5 -120.5q0 -59 10 -107t24 -57q16 -10 16 -25q0 -18 -20 -42z" />
    <glyph glyph-name="x" unicode="x" horiz-adv-x="571" 
d="M165 550h4q20 0 39 -19q59 -95 100 -154q18 -36 36 -36q5 0 10 3q8 7 27.5 23.5t30 26t22.5 26.5t17 34q4 10 4 20q0 18 -12 35q-20 25 -50 36q1 1 4 1h6q8 -2 15 -4q42 -7 71 -42t41 -80q1 -7 5 -22.5t6 -24.5v-21q-1 -13 -6 -23q-12 -1 -24 -3t-25.5 -6t-23 -6.5
t-25 -9t-22 -9t-24.5 -10.5t-22 -10q46 -85 83 -159q8 -13 29 -61t41 -69q13 -10 16 -26v-11q0 -10 -3 -20q-5 -15 -14 -28q-4 -5 -14 -20.5t-19 -24t-21 -11.5q-45 11 -82 63q-6 7 -10 15.5t-6 19.5t-3 18t-1.5 20.5t-1.5 18.5q-2 25 -9 54t-13.5 49.5t-17.5 53.5t-17 50
q-4 13 -18 17q-4 1 -8 1q-9 0 -17 -6q-9 -7 -35.5 -21.5t-42 -29t-20.5 -35.5v-6q0 -15 7 -26q9 -14 30.5 -30t25.5 -21q5 -3 5 -5q-1 -3 -21 -7q-35 -2 -65 -2q-61 0 -104 8h-2q-8 0 -10 9q-1 2 -1 5q0 6 4 11q18 26 39 49.5t48.5 47.5t47 39t55 41.5t49.5 37.5
q-1 2 -24 52q-9 17 -15 26.5t-16.5 23t-23.5 19.5q-11 5 -24 5h-4q-18 -1 -39.5 -21t-29.5 -24q-4 10 -5 22v9q0 7 1 12q1 9 3 23l3 21q3 36 19 65t47 33z" />
    <glyph glyph-name="y" unicode="y" horiz-adv-x="468" 
d="M338 550q16 -6 31 -13q65 -31 69 -55v-3q0 -14 -33 -14q-21 0 -28 -90q-4 -41 -4 -83q0 -52 5 -105q9 -98 30 -118q19 -19 19 -53q0 -19 -6 -42q-17 -66 -67 -117q-34 -33 -96 -43q-25 -5 -49 -5q-36 0 -70 10q-57 15 -75 50q-16 29 -16 49q0 3 1 6q2 21 26 40
q17 14 35 15h3q16 0 25 -9q10 -11 13 -27q1 -4 1 -7q0 -14 -11 -30q-2 -4 -2 -8q0 -9 10 -18q14 -15 43 -24q21 -7 38 -7q15 0 28 5q28 11 59 49q19 24 28.5 36.5t16.5 27.5t7 24q0 8 -5.5 22.5t-13.5 26.5t-25 35q-30 38 -49 43h-7q-19 0 -52 -20q-45 -28 -69 -33
q-6 -1 -12 -1q-17 0 -30 12q-18 16 -39 63q-37 82 -37 163q0 20 3 41q11 101 77 167l10 10t6.5 5t4.5 3q1 0 4 -3q2 -3 2.5 -6t3 -10.5l4.5 -13.5q-24 -40 -30 -145q-2 -27 -2 -51q0 -68 14 -107q8 -22 17 -37q22 -37 47 -37q15 0 31 14q51 47 69 197q9 69 9 106q0 24 -4 35
z" />
    <glyph glyph-name="z" unicode="z" horiz-adv-x="370" 
d="M269 -105q-28 -58 -56 -81.5t-70 -23.5q-31 0 -58.5 9t-35.5 22q-18 30 -19 93v9q0 57 12 114q12 60 35 106t48 46q4 0 6 -5q3 -5 3 -14q0 -28 -29 -88q-31 -65 -34 -101v-8q0 -34 20 -78q22 -50 38 -58q4 -2 9 -2q14 0 35 17q44 37 45 131v5q0 101 -43 181
q-35 65 -76 65q-10 0 -20 -4q-12 -4 -22 -4q-5 0 -10 1q-13 4 -13 18q0 13 17 27.5t41 22.5q48 15 74 62q13 24 13 46q0 19 -10 35q-7 12 -29 15q-7 1 -13 1q-17 0 -34 -6q-23 -7 -38 -7q-20 1 -20 13q0 3 1 7q10 30 73 64q46 25 71 25q24 0 52 -23q45 -38 45 -72
q-1 -35 -49 -88q-23 -25 -29 -46q-3 -9 -3 -16q0 -9 4 -14q6 -8 20 -8q5 0 10 1q22 3 51 21q12 8 23 12q17 8 26 8q10 0 10 -10q0 -12 -12.5 -25t-30.5 -19q-26 -11 -28 -39v-6q0 -29 18 -99q16 -66 16 -109v-14q-4 -46 -34 -109z" />
    <glyph glyph-name="braceleft" unicode="{" horiz-adv-x="373" 
d="M245 1008h4q51 -5 80 -44q12 -15 14 -36v-7q0 -17 -8 -32q-9 -24 -49 -59l-4 -4q-15 -16 -32 -16h-5q-20 4 -22 17q5 22 36 55q1 1 10 10.5t12 13.5t7.5 12t5.5 16v4q0 8 -6 15q-9 8 -20 10q-3 1 -7 1q-5 0 -10 -3q-8 -5 -12 -14q-7 -16 -11 -33.5t-6 -39t-3 -34.5
t-1.5 -39.5t-1.5 -35.5q-2 -22 -2 -49t1 -45.5t3 -50.5t2 -46q1 -9 1 -18q0 -30 -15 -52q12 -17 14 -36q1 -10 1 -23q0 -25 -3 -62q-4 -56 -4 -82q2 -22 2.5 -61.5t2.5 -72t7 -61.5q1 -2 3.5 -14t4 -16.5t5.5 -12.5t9 -13q7 -5 16 -5q5 0 11 2q14 5 19 18q1 2 1 5
q0 14 -18 37q-2 3 -19 21t-24.5 30t-11.5 26q8 12 21 15h4q19 0 41 -22q40 -33 50 -64q5 -14 5 -27q0 -17 -9 -34q-22 -37 -68 -49q-10 -3 -19 -3q-24 0 -47 18q-42 35 -48 79v12q0 26 3 68q4 51 4 73q-1 22 -2 63.5t-3 75t-6 62.5q-10 -4 -21 -4q-14 0 -29 6q3 -4 17 -19
t21.5 -25.5t11.5 -22.5q3 -3 3 -7t-7 -8q-8 -8 -20 -8q-1 0 -1 1q-13 0 -23 7q-41 38 -50 49q-14 19 -18 41q-2 7 -2 14q0 14 6 29q-6 14 -6 28q0 15 6 30q9 27 50 62q20 22 39 22h3q8 -2 15 -7q6 -4 6 -11v-2q-4 -13 -11 -24t-22 -26.5t-18 -19.5q15 6 29 6q11 0 21 -4
q5 29 8 134q2 20 2 51q0 55 -6 142q-1 6 -1 12q0 35 21 63q30 45 73 48zM113 517q-19 0 -30 -13q6 -7 16 -10q5 -2 10 -2q4 0 8 1q9 2 14 10q-3 13 -18 14z" />
    <glyph glyph-name="bar" unicode="|" horiz-adv-x="181" 
d="M37 391q-4 90 -6 148q-1 38 -1 72v33q1 47 4.5 72.5t11.5 43.5t18.5 24t27.5 8q8 1 15 1q19 0 29 -8q13 -12 15 -50v-13q0 -36 -9 -97q-9 -73 -14 -189q-4 -84 -4 -154q0 -28 1 -54q1 -36 1 -66q0 -157 -22 -162h-1q-22 0 -42 134q-17 108 -24 257z" />
    <glyph glyph-name="braceright" unicode="}" horiz-adv-x="373" 
d="M128 1008q43 -3 73 -48q21 -28 21 -63q0 -6 -1 -12q-6 -94 -6 -150q0 -25 1 -43q4 -105 9 -134q10 4 21 4q14 0 29 -6q-3 4 -18 19.5t-22.5 26.5t-10.5 24v2q0 7 6 11q7 5 15 7h3q18 0 39 -22q41 -35 50 -62q6 -15 6 -30q0 -14 -6 -28q5 -15 5 -29q0 -7 -1 -14
q-4 -22 -18 -41q-9 -11 -51 -49q-9 -7 -21 -7q-1 -1 -2 -1q-12 0 -20 8q-7 4 -7 8t3 7q4 12 11.5 22.5t21.5 25.5t17 19q-15 -6 -29 -6q-11 0 -21 4q-4 -29 -6 -62.5t-3 -75t-2 -63.5q0 -22 4 -73q3 -42 3 -68v-12q-6 -44 -48 -79q-23 -18 -47 -18q-9 0 -19 3q-46 12 -68 49
q-9 17 -9 34q0 13 5 27q10 31 50 64q22 22 40 22h4q14 -3 22 -15q-4 -14 -11.5 -26t-24.5 -30t-20 -21q-17 -22 -17 -37q0 -3 1 -5q5 -13 20 -18q5 -2 10 -2q9 0 16 5q5 5 9 13t5.5 12.5t4 16.5t3.5 14q5 29 7 61.5t2.5 72t2.5 61.5q0 26 -4 82q-3 37 -3 62q0 13 1 23
q2 19 14 36q-16 23 -16 54q0 8 1 16q1 14 3 46t3 51q1 12 1 28v17q-1 27 -2 49q-1 9 -1.5 35.5t-1.5 39.5t-3 34.5t-6.5 39t-10.5 33.5q-4 9 -12 14q-5 3 -10 3q-4 0 -7 -1q-12 -2 -20 -10q-6 -7 -6 -15v-4q1 -8 5.5 -16t7.5 -12t12 -13.5t10 -10.5q31 -33 36 -55
q-2 -13 -22 -17h-5q-17 0 -32 16l-4 4q-40 35 -49 59q-8 15 -8 32q0 3 1 7q1 21 13 36q28 39 80 44h4zM260 517q-15 -1 -18 -14q5 -8 15 -10q3 -1 7 -1q5 0 10 2q10 3 16 10q-11 13 -30 13z" />
    <glyph glyph-name="asciitilde" unicode="~" horiz-adv-x="600" 
d="M423 630q-98 4 -196 102q-24 24 -43 49q-23 17 -55 20q-7 1 -14 1q-24 0 -42 -9q-22 -12 -22 -31v-2q1 -15 18.5 -36t42.5 -37q38 -24 38 -33q0 -3 -2 -4q-5 -3 -18 -4h-5q-33 0 -57 22q-26 24 -34 59q-4 14 -4 29q0 21 7 43q11 37 42 59q20 11 42 11q6 0 12 -1
q28 -4 56 -20q47 -16 120 -81q66 -59 101 -72q13 -5 27 -5q21 0 43 13q53 33 53 91v6l37 -8q0 -80 -41 -122q-38 -40 -97 -40h-9z" />
    <glyph glyph-name="exclamdown" unicode="&#xa1;" horiz-adv-x="196" 
d="M72 404q10 133 29 138h1q20 0 23 -153q4 -151 26 -270q9 -50 9 -76q0 -13 -2 -20q-6 -23 -39 -23h-3q-16 0 -24 9q-10 9 -16.5 37.5t-7 81.5t-1.5 141q0 74 5 135zM147 718q19 -21 19 -33v-4q-4 -14 -35 -27q-20 -7 -38 -7q-11 0 -20 3q-27 6 -38 29q-5 10 -5 20
q0 13 8 27q19 34 45 34q28 0 64 -42z" />
    <glyph glyph-name="cent" unicode="&#xa2;" horiz-adv-x="458" 
d="M262 450q-27 5 -44 20t-27 15q-4 0 -7 -3q-10 -11 -13 -65q-4 -62 -4 -112q0 -36 2 -66q19 40 39 85q32 71 54 126zM194 116q5 -10 11 -17q13 -17 36 -24q13 -5 24 -5q9 0 17 3q20 7 40 13l36 -29l-96 -37q-57 -20 -83 -20q-3 0 -5 1q-23 2 -39 26q-6 -8 -11 -15
q-66 -89 -87 -89q-2 0 -4 1q-3 3 -3 10q0 35 70 170q-15 47 -19 104q-2 23 -2 45q0 80 23 152q28 91 82 122q37 22 56 23h1q17 0 23 -18q3 -10 21 -21q34 93 56 116q11 12 26 12q16 0 35 -13q14 -10 21 -20q5 -10 5 -25v-5q-1 -20 -9.5 -44t-29 -67t-48 -93.5t-72.5 -129.5
q-39 -69 -75 -126z" />
    <glyph glyph-name="sterling" unicode="&#xa3;" horiz-adv-x="568" 
d="M285 760h3q68 0 126 -40q58 -41 77 -115q5 -20 5 -43q0 -18 -3 -38q-7 -46 -28 -88q-42 -84 -43 -115v-3q0 -19 17 -19q10 0 25 6q11 4 21 4q6 0 11 -1q13 -4 13 -17t-10 -19q-10 -7 -26 -7q-20 0 -50 13q-52 22 -58 57q-1 6 -1 14q0 22 9 55q13 45 36 87q34 64 34 109
q0 95 -161 95q-30 0 -46.5 -0.5t-32 -4.5t-21.5 -9t-12 -18.5t-8 -27t-4 -40.5q-1 -15 -1 -29q0 -36 9 -64q13 -40 50 -79q40 -42 48 -67q3 -9 3 -21q0 -20 -9 -49q15 -17 23 -29q13 -11 28 -11q9 0 20 5q23 9 23 30v5q-1 12 -12.5 26.5t-25.5 24.5q-10 7 -15 11q-8 7 -8 11
q0 5 10 8q5 2 10 2q11 0 20 -7q13 -10 21 -29t11 -41q1 -8 1 -17q0 -14 -3 -28q-5 -24 -18 -40q-13 -13 -28 -13q-16 0 -33 10q-16 5 -43 27q-6 -21 -6 -36q0 -14 5 -24q10 -20 55 -55q71 -56 112 -56q1 0 3 1q41 1 84 62q16 22 25 32q8 8 13 8q8 0 8 -21q0 -19 -16 -47
t-38 -49q-52 -46 -125 -46h-8q-79 3 -147 57q-72 56 -93 56q-18 0 -18 -41q0 -19 -8.5 -32t-21.5 -13t-22 8q-11 11 -11 29q0 17 10 41q21 53 65 69q55 21 75 44q14 16 14 38q0 9 -2 19q-29 26 -46 29h-4q-15 0 -27 -15q-24 -27 -24 -64q0 -8 1 -16l-20 2q-1 15 -1 28
q0 43 15 72q19 37 54 41q4 1 8 1q3 0 6 -1q-9 13 -15 23q-35 52 -51 81t-19 61q-1 9 -1 18q0 22 6 41q9 27 33 73q28 53 75.5 81t102.5 30z" />
    <glyph glyph-name="currency" unicode="&#xa4;" horiz-adv-x="434" 
d="M378 374q4 0 9 -4q6 -4 6 -10v-4q-4 -8 -26 -26q-31 -26 -67 -66q3 -16 3 -46v-16q-1 -51 -8 -73q19 -13 40 -31q50 -43 62 -57q7 -9 7 -16q0 -4 -3 -8q-5 -6 -10 -6q-2 0 -4 1q-8 3 -27 25q-29 35 -71 73q-1 0 -1 1h-1q-9 -14 -29 -31q-16 -14 -21.5 -18.5t-16.5 -9.5
t-14 -5q0 -1 -1 -1q-3 0 -15 4q-13 4 -21 8.5t-30 16.5l-4 2q-3 -4 -7 -8q-42 -50 -56 -61q-9 -8 -16 -8q-4 0 -8 3q-7 5 -7 10q0 2 1 5q4 7 25 26q20 16 49 45q-16 13 -16 20q0 3 3 5q7 4 12 32t5 62q0 36 1 50q-10 8 -21 17q-51 43 -62 57q-8 9 -8 16q0 4 3 8q5 7 11 7
q2 0 4 -1q8 -4 26 -25q19 -23 52 -55q5 11 15.5 18t34.5 18q39 18 53 18h1q14 -1 39 -21q16 -13 23 -27l14 16q34 41 48.5 55t23.5 15zM199 299q-18 0 -24.5 -10.5t-7.5 -43.5q17 -18 18 -24v-1q0 -2 -2 -2q-4 0 -17 8q-1 -19 -1 -35q0 -31 3 -47q10 10 15 11h1q2 0 2 -2
q0 -6 -14 -27q5 -15 18 -23q17 -11 31 -11q27 0 37 48q-8 8 -9 12v1q0 2 2 2q3 0 9 -3q0 7 1 14q1 13 1 24q0 18 -2 33q-5 -4 -8 -4h-1q-2 0 -2 2q0 4 8 17q-14 61 -58 61z" />
    <glyph glyph-name="yen" unicode="&#xa5;" horiz-adv-x="734" 
d="M661 760q9 0 17 -5q8 -4 15.5 -32.5t8.5 -63.5q2 -26 2 -42q0 -24 -4 -26h-1q-7 0 -32 28q-20 21 -34 21q-6 0 -11 -4q-18 -13 -72 -105q-46 -78 -85 -126q14 -37 20 -84q27 13 52 14h5q32 0 52 -21q22 -24 22 -67l-19 -4v2q0 33 -29 50q-12 8 -24 8q-5 0 -9 -1
q-17 -5 -45 -28q1 -14 1 -27q20 8 38 9h3q33 0 54 -22q22 -23 22 -66l-19 -4v2q0 32 -29 50q-11 7 -23 7h-8q-16 -4 -41 -24q-9 -97 -45 -139q-40 -44 -65 -54q-13 -6 -31 -6q-17 0 -38 5q-27 5 -45 40q-18 33 -18 70q0 1 1 3q0 38 22 55q10 9 18 9q6 0 11 -5q10 -11 17 -54
q7 -45 20 -57q7 -6 18 -6t25 5q20 8 37.5 32.5t21.5 51.5v9q-21 -15 -35 -20q-20 -12 -37 -12q-12 0 -22 7q-24 16 -26 48v6q0 28 16 45q-9 16 -9 33q0 14 7 30q13 31 42 31h5q5 0 8 -1t3 -3q0 -5 -20 -18q-14 -8 -23.5 -19.5t-9.5 -19.5v-2q0 -12 17 -18q8 2 13 2h4
q11 -1 12 -4q15 3 26 10q5 8 12 15q-29 112 -81.5 237t-88.5 156q-32 28 -69 31h-9q-31 0 -56 -18q-28 -22 -34 -61q-1 -6 -1 -12q0 -26 18 -45q21 -23 89 -56q74 -36 102 -67q22 -17 35 -39q10 -17 10 -34q0 -5 -1 -10q-9 -42 -48 -64q-27 -16 -56 -16q-12 0 -24 3
q-41 9 -54 48q-3 9 -3 14t4 5q9 0 37 -20q20 -14 43 -21q14 -4 23 -4q6 0 10 1q19 7 19 31q0 9 -2 20q-11 41 -44 60q-26 7 -52 18q-66 27 -106.5 68.5t-48.5 83.5q-2 10 -2 20q0 31 20 61q25 38 82 59q44 17 85 17q38 0 72 -15q71 -30 101 -110q10 -28 28 -67.5t21 -45.5
q21 42 46 88q45 77 94.5 126t81.5 50zM429 227q-11 -7 -19 -10q-20 -12 -37 -12q-12 0 -22 7l-4 3q-19 -17 -19 -30v-1q0 -16 26 -20q6 -2 11 -2q20 0 35 12q10 14 23 27q4 4 10 9q-2 9 -4 17z" />
    <glyph glyph-name="brokenbar" unicode="&#xa6;" horiz-adv-x="185" 
d="M37 563.127q-4 38.6992 -6 63.6387q-1 16.3398 -1 30.96v14.1895q1 20.21 4.5 31.1748t11.5 18.7051q8 7.73926 18.5 10.3193t27.5 3.44043q8 0.429688 15 0.429688q19 0 29 -3.44043q13 -5.15918 15 -21.499v-5.58984q0 -15.4805 -9 -41.71q-9 -31.3896 -14 -81.2686
q-4 -36.1191 -4 -66.2188q0 -12.04 1 -23.2197q1 -15.4795 1 -28.3789q0 -67.5088 -22 -69.6592h-1q-22 0 -42 57.6191q-17 46.4395 -24 110.508zM41 26.127q-4 38.6992 -6 63.6387q-1 16.3398 -1 30.96v14.1895q1 20.21 4.5 31.1748t11.5 18.7051q8 7.73926 18.5 10.3193
t27.5 3.44043q8 0.429688 15 0.429688q19 0 29 -3.44043q13 -5.15918 15 -21.499v-5.58984q0 -15.4805 -9 -41.71q-9 -31.3896 -14 -81.2686q-4 -36.1191 -4 -66.2188q0 -12.04 1 -23.2197q1 -15.4795 1 -28.3789q0 -67.5088 -22 -69.6592h-1q-22 0 -42 57.6191
q-17 46.4395 -24 110.508z" />
    <glyph glyph-name="section" unicode="&#xa7;" horiz-adv-x="373" 
d="M182 761q34 -1 86 -39q23 -16 33 -33q6 -10 6 -17q0 -6 -4 -9q-4 -5 -12 -5q-6 0 -15 4q-19 7 -37 25q-21 20 -51 27q-13 2 -24 2q-16 0 -30 -5q-23 -10 -23 -32q0 -8 33 -41t80 -70q57 -46 82.5 -81t29.5 -73q7 -18 7 -34q0 -23 -14 -40q-28 -88 -138 -94v-1
q98 -78 98 -142q0 -38 -32 -70q-33 -33 -65 -33q-2 0 -3 1q-34 1 -84 38q-23 16 -33 34q-6 10 -6 17q0 5 4 9t11 4t16 -3q19 -8 37 -26q21 -20 52 -26q12 -3 23 -3q16 0 30 6q23 9 23 31q0 8 -33 41t-80 71q-57 45 -82.5 80t-29.5 74q-7 18 -7 34q0 22 14 39q28 88 138 94v1
q-98 78 -98 142q0 38 32 70q33 33 66 33zM172 475q-49 0 -70 -30q5 -4 5 -17q0 -15 -7 -44q-2 -9 -3 -16q11 -35 41 -71q7 -2 13 -4q29 -7 52 -7q47 0 68 30q-5 4 -5 17q0 16 7 44q2 9 3 16q-11 35 -41 71q-7 2 -13 4q-28 7 -50 7z" />
    <glyph glyph-name="dieresis" unicode="&#xa8;" horiz-adv-x="388" 
d="M341 559q-27 -27 -44 -27q-1 0 -1 1q-18 1 -44 32q-14 18 -14 29q0 2 1 4q3 12 32 27q17 9 34 10h3q16 0 27 -6q11 -7 18 -18q5 -7 5 -17q0 -4 -1 -7q-3 -15 -16 -28zM133 559q-27 -27 -44 -27q-1 0 -1 1q-18 1 -44 32q-14 18 -14 29q0 2 1 4q3 12 32 27q17 9 34 10h3
q16 0 27 -6q11 -7 18 -18q5 -7 5 -17q0 -4 -1 -7q-3 -15 -16 -28z" />
    <glyph glyph-name="copyright" unicode="&#xa9;" horiz-adv-x="417" 
d="M255 144q-23 -8 -34 -8h-2q-10 1 -17 13q-21 35 -21 85q0 13 1 27q7 68 41 87q15 9 24 9q7 0 9 -7q4 -11 39 -19l-15 -12q-2 -1 -4 -1q-7 -3 -14 -3q-13 0 -25 10q-7 6 -11 6q-2 0 -3 -1q-4 -4 -5 -26q-1 -24 -1 -43q0 -65 15 -85q6 -7 15 -10q5 -1 9 -1t8 1q8 3 16 5
l15 -12zM387 257v-19q0 -55 -5 -83q-6 -33 -22.5 -55.5t-57.5 -52.5q-33 -24 -49.5 -34t-37.5 -12q-6 -1 -11 -1q-15 0 -27 5q-17 6 -53 24l-6 2q-82 41 -88 68v3q0 14 31 14q24 0 24 85q0 27 -2 62q-3 34 -4 49v36q1 21 1.5 28t7.5 20t12 16.5t20 12.5t26 13.5t37 14.5
q53 21 77 27q11 2 21 2q11 0 20 -3q16 -6 38 -29q47 -47 48 -193zM191 96q47 -34 77 -34q10 0 18 4q32 15 48 99q6 30 6 59q0 31 -7 62q-13 59 -45 95t-73 36q-35 0 -47 -26.5t-18 -115.5q-2 -30 -2 -55q0 -41 6 -65q8 -38 37 -59z" />
    <glyph glyph-name="ordfeminine" unicode="&#xaa;" horiz-adv-x="358" 
d="M103.057 1037.6q12.5391 -18.5986 40.2578 -18.5986q0 -0.600586 0.660156 -0.600586q26.3984 0 46.8584 18.5996q15.8389 14.3994 16.499 62.3975v1.7998q0 46.7979 -13.1992 90.5967q-13.2002 44.3975 -31.6787 50.3975q-10.5596 3.59961 -21.7793 3.59961
q-3.95996 0 -8.58008 -0.599609q-15.8389 -1.7998 -24.4189 -9.59961q-16.499 -15.5996 -18.4785 -94.7959v-16.7998q0 -64.7969 13.8594 -86.3965zM161.134 991.999q-13.8594 -11.3994 -22.4395 -17.3994q-8.5791 -6 -17.1592 -9.59961q-7.91895 -3 -13.1992 -3h-1.32031
q-5.2793 0.599609 -13.1992 6q-7.91992 5.39941 -14.5195 13.1992t-17.8193 21.5996q-21.1191 27.5986 -27.7188 66.5967q-3.95996 18.5996 -3.95996 37.1982q0 19.7998 3.95996 39.5986q7.25977 37.7988 23.4297 71.0977q16.1689 33.2979 42.5674 53.9971
q26.3994 20.6992 56.0986 20.6992q8.5791 0 18.4785 -1.19922q49.498 -7.7998 93.7168 -34.7988q25.0791 -15 25.0791 -23.999q0 -4.2002 -5.28027 -7.2002q-13.1992 -7.7998 -19.1396 -58.7969q-3.95898 -29.999 -3.95898 -58.1982q0 -20.999 1.97949 -41.3984
q4.62012 -47.998 17.8193 -47.998q7.91992 0 16.8291 7.2002q8.91016 7.19922 13.5293 16.7988q3.2998 7.7998 5.94043 9.59961q0.660156 0.600586 1.97949 0.600586q3.2998 0 4.62012 -17.3994v-1.7998q0 -12.5996 -8.58008 -28.1992q-9.89941 -17.3994 -24.4189 -27.5986
q-19.7988 -15 -31.0186 -15h-1.97949q-11.8799 1.80078 -31.0195 25.1992q-11.2188 14.3994 -17.1592 20.0996q-5.93945 5.69922 -13.8594 6.2998h-1.97949q-7.25977 0 -13.8594 -4.2002q-7.25977 -5.39941 -22.4395 -17.999zM177.5 874q-32.5 -2 -53 -3q-14 -1 -26 -1
q-6.5 0 -12 1q-17 0 -26 2.5t-15.5 8.5t-8.75 13t-2.75 19q-0.5 5 -0.5 9q0 23 10 29q4 2 13 2q13.5 0 37.5 -6q53.5 -13 118 -13h44.5q61.5 0 61.5 -17v-1q-3 -19 -75 -34q-30 -6 -65 -9z" />
    <glyph glyph-name="guillemotleft" unicode="&#xab;" horiz-adv-x="451" 
d="M220 572h1q4 0 8 -6q4 -7 5 -18q2 -8 2 -18q0 -4 -1 -9q-1 -15 -6 -23q-3 -7 -7.5 -13.5t-7.5 -10t-9.5 -10t-8.5 -9.5q-39 -36 -90 -76q-22 -16 -42 -27q12 -10 38.5 -36t40.5 -37q22 -19 73 -55q15 -12 20 -27q2 -7 2 -16t-3 -21t-8 -18q-3 -5 -7 -5h-3q-4 0 -9.5 3
t-9 5.5t-9.5 8.5t-9 8q-36 34 -85 91q-38 44 -58 81q-6 15 -7 18v6q0 8 5 17q6 9 22 27q11 12 33.5 32.5t33.5 32.5q33 33 75 88q13 14 21 17zM403 572h1q4 0 8 -6q4 -7 5 -18q2 -8 2 -18q0 -4 -1 -9q-1 -15 -6 -23q-3 -7 -7.5 -13.5t-7.5 -10t-9.5 -10t-8.5 -9.5
q-39 -36 -90 -76q-22 -16 -42 -27q12 -10 38.5 -36t40.5 -37q22 -19 73 -55q15 -12 20 -27q2 -7 2 -16t-3 -21t-8 -18q-3 -5 -7 -5h-3q-4 0 -9.5 3t-9 5.5t-9.5 8.5t-9 8q-36 34 -85 91q-38 44 -58 81q-6 15 -7 18v6q0 8 5 17q6 9 22 27q11 12 33.5 32.5t33.5 32.5
q33 33 75 88q13 14 21 17z" />
    <glyph glyph-name="logicalnot" unicode="&#xac;" horiz-adv-x="536" 
d="M506 171q-1 -12 -10 -19q0 -1 -3 -19q-4 -19 -7 -54t-5 -45q-5 -28 -7 -31q-3 -3 -5 -3q-1 0 -2 1q-3 2 -4 7q-2 15 -2 41q0 38 4 97h-18q-121 8 -154 9q-46 2 -101 2h-68q-62 -2 -81 -2h-7q-6 1 -6 5q0 9 39 32q86 11 281 15q94 0 124 -4q6 11 16 11q2 0 5 -1
q8 -2 8 -15q0 -4 -1 -9q4 -7 4 -18z" />
    <glyph glyph-name="registered" unicode="&#xae;" horiz-adv-x="520" 
d="M355 306q-6 3 -11 3q-9 0 -17 -7q-13 -11 -13 -31q0 -21 10 -26q4 -2 11 -2q9 0 24 4q9 3 9 22v7q-2 24 -13 30zM288 159q-14 -11 -34 -15q-7 -1 -12 -1q-11 0 -17 5q-5 3 -6 12v4q0 7 2 12q3 6 8 6h1q11 -3 11 -15q0 -11 8 -14q3 -1 6 -1q6 0 15 4q12 6 18 57q2 17 2 31
q0 59 -33 59h-5q-21 -2 -22 -14v-1q0 -12 19 -28t19 -27v-1q-1 -12 -23 -13l-22 -2l21 7l20 6l-27 20q-26 19 -26 34q0 14 22 25q16 8 23 8t25 -8q17 -8 24 -8q6 0 15 7q14 10 28 10q11 0 22 -6q20 -11 20 -31q0 -5 -1 -11q-2 -9 -2 -13q0 -2 1 -3q0 -2 4 -2q2 0 5 1
q4 1 7 1q2 0 2 -1t-1 -2q-5 -7 -17 -7q-13 0 -13 -38q0 -26 3 -31q1 -3 7 -3q3 0 8 1q9 3 12 3q1 0 2 -1q0 -3 -11 -15q-14 -17 -22 -17q-10 0 -17.5 17.5t-7.5 42.5q0 22 -3 28t-13 6t-14 -6t-7 -25q-4 -30 -24 -47zM237 95q60 -33 99 -33q13 0 24 4q41 15 61 98q7 30 7 59
q0 32 -8 63q-17 58 -58 94.5t-94 36.5q-45 0 -61 -26.5t-23 -115.5q-3 -31 -3 -56q0 -41 8 -64q11 -38 48 -60zM490 257v-16q0 -57 -6 -86q-8 -33 -29.5 -55.5t-73.5 -52.5q-44 -25 -64.5 -35t-47.5 -12h-13q-20 0 -37 5q-22 6 -69 23q-3 2 -7 3q-106 41 -113 68v3
q0 14 40 14q19 0 26 39q4 20 4 50q0 25 -3 57q-2 28 -3 41q-2 9 -2 22q0 4 1 9v26l-1 1q0 7 5 19q4 13 6.5 16.5t13 12.5t17 11.5t24.5 9.5t30 11t38 12q69 21 100 26q15 2 27 2q14 0 25 -2q21 -6 50 -29q61 -47 62 -193z" />
    <glyph glyph-name="macron" unicode="&#xaf;" horiz-adv-x="393" 
d="M199 561q-38 -2 -62 -3q-16 -1 -30 -1q-8 0 -14 1q-20 0 -30.5 2t-18 7.5t-10 12t-3.5 16.5q-1 5 -1 8q0 21 12 26q5 2 15 2q16 0 44 -5q63 -12 137 -12h52q73 0 73 -15v-1q-4 -17 -88 -30q-35 -6 -76 -8z" />
    <glyph glyph-name="degree" unicode="&#xb0;" horiz-adv-x="247" 
d="M136 811h4q51 -1 72 -39q5 -12 5 -25q0 -26 -26 -54q-41 -42 -68 -42h-2q-28 1 -69 51q-22 27 -22 45q0 4 1 6q6 19 50 42q28 15 55 16zM132 765q-13 0 -27 -6q-18 -10 -21 -18v-4q0 -8 9 -19q18 -21 30 -21q0 -2 1 -2q11 0 30 19q12 12 12 23q0 5 -3 12q-9 16 -31 16z
" />
    <glyph glyph-name="plusminus" unicode="&#xb1;" horiz-adv-x="630" 
d="M82 83q24 0 69 -6q107 -13 236 -13h74q74 0 110 -5q29 -4 29 -11q0 -5 -12 -10q-62 -26 -269 -34q-65 -3 -106 -4h-76q-34 1 -52 3t-31 8t-17.5 13t-5.5 19q-1 5 -1 10q0 14 8 21q9 9 38 9h6zM46 326q-7 8 -9 22v7q0 24 18 29q7 2 22 2q25 0 69 -6q46 -7 121 -11
q-5 74 -11 121q-6 44 -6 68q0 15 2 23q5 18 26 18q4 0 9 -1q16 -1 24 -10t13 -34q5 -23 5 -62v-8q-1 -45 -2 -118q27 -1 52 -1h38q131 0 131 -16v-2q-7 -19 -145 -31q-37 -4 -78 -6q-8 -178 -32 -218q-3 -6 -6 -6q-6 0 -10 23q-6 32 -6 104v21q0 33 -1 74q-53 -1 -91 -1
q-45 0 -71 2q-48 3 -62 17z" />
    <glyph glyph-name="uni00B2" unicode="&#xb2;" horiz-adv-x="501" 
d="M470 135q1 -29 1 -48t-1 -28q-5 -38 -36 -49q-29 -10 -166 -10q-50 0 -84 2t-60.5 8.5t-39 16t-14.5 27.5q-1 4 -1 8q0 14 6 30q8 20 29 53t49.5 69.5t71.5 88.5q97 119 124 177q15 33 15 65q0 24 -9 47q-32 87 -97 101q-11 2 -23 2q-53 0 -107 -54q-63 -63 -64 -103
q-1 -1 -1 -2q0 -39 60 -39q26 0 44 -12t18 -29q0 -31 -32 -39q-10 -3 -21 -3q-23 0 -48 13q-37 17 -50 50q-4 11 -4 25q0 21 8 50q13 49 42 93q40 62 81 81q30 14 78 14q18 0 38 -2q53 -5 102.5 -28.5t66.5 -50.5q23 -37 25 -84v-11q0 -42 -14 -82q-17 -46 -50.5 -87
t-78 -64.5t-88 -62.5t-59.5 -69q-14 -26 -17 -39q-1 -3 -1 -6q0 -10 10 -16q12 -9 37 -11.5t74 -2.5q77 0 115 17t48 56q4 16 8 18h1q11 0 14 -80z" />
    <glyph glyph-name="uni00B3" unicode="&#xb3;" horiz-adv-x="554" 
d="M373 37q-80 -28 -123 -34q-17 -3 -32 -3q-24 0 -44 6q-33 10 -77 44q-41 31 -58 75q-9 24 -9 46q0 18 6 34q13 37 53 52q29 11 49 11q26 0 38 -17q7 -12 7 -26q0 -28 -26 -70q-24 -39 -24 -57q0 -3 1 -6q5 -17 52 -30q14 -4 28 -4q31 0 63 19q46 26 73 78q23 44 23 91
q0 8 -1 17q-6 89 -106 111q-74 16 -107 26q-36 10 -36 16q1 7 71 9q54 2 97 30.5t61 72.5q10 23 10 47q0 20 -8 41q-7 20 -43 34q-34 12 -73 12h-6q-33 -1 -51 -5q-17 -4 -17 -9q0 -4 12 -9q38 -16 47 -48q3 -9 3 -18q0 -22 -16 -40q-22 -26 -64 -26q-43 0 -61 22t-18 76
q0 43 26.5 75.5t68.5 47.5q32 11 72 11q12 0 24 -1q54 -4 108 -28q84 -38 91 -90q1 -5 1 -10q0 -51 -60 -136q-16 -24 -24.5 -36.5t-13.5 -25.5q-4 -11 -4 -16v-2q1 -6 9 -12.5t19.5 -10t33.5 -9.5q34 -9 52 -24q12 -11 12 -21q0 -4 -2 -8q-5 -9 -5 -18q0 -6 2 -12
q5 -16 20 -25q20 -13 25 -35q2 -8 2 -16q0 -16 -6 -32q-10 -26 -29.5 -52t-50.5 -48t-65 -34z" />
    <glyph glyph-name="acute" unicode="&#xb4;" horiz-adv-x="211" 
d="M46 728q18 34 35 49t49 24q19 6 30 7q5 1 9 1t6 -1q4 -2 5 -12q1 -4 1 -9t-1 -12q-1 -28 -10.5 -37t-41.5 -14q-28 -4 -41 -14t-21 -37q-9 -27 -14 -31q-2 -1 -3 -1h-1q-6 0 -13 9q-4 3 -5 11v6q0 6 1 15q3 22 15 46z" />
    <glyph glyph-name="mu" unicode="&#xb5;" horiz-adv-x="565" 
d="M200 12l1 -27v-48q0 -124 12 -147q6 -12 20 -12q9 0 21 5q18 6 24 6h2q5 -1 5 -7q0 -11 -17 -42q-12 -23 -21 -34.5t-19 -17.5q-6 -5 -15 -5q-5 0 -11 2q-16 4 -34.5 12.5t-51.5 27.5q-21 12 -33 23q-14 11 -14 17q0 5 12 5q14 1 21 14t11 51q2 30 2 72v26q-1 44 -4 111
q-2 2 -5 4l2 63q-3 78 -3 137q0 44 2 77q2 47 7 54q-2 16 -5 27q-5 16 -13 18q-3 1 -7 1q-7 0 -16 -3q-15 -5 -25 -6h-3q-15 0 -15 12q0 21 46 79q14 18 19.5 25t14.5 13t12 6t11.5 -6.5t14.5 -14t19 -25.5q34 -45 34 -136q0 -30 -4 -65q-4 -37 -4 -73q0 -21 2 -41
q3 -57 14 -78q11 -20 16.5 -27.5t16.5 -7.5q10 0 21 8t35 28q36 31 48 74q10 37 10 109v25q-1 19 -1 36q0 80 12 126q13 53 37 53q13 0 31 -19q15 -16 21 -79q2 -28 2 -61q0 -41 -4 -91q-1 -6 -1 -11q-5 -70 -5 -110t5 -51q5 -9 19 -9q9 0 24 5q28 9 36 9h2q1 -1 1 -2
q0 -9 -29 -46q-47 -58 -55 -70q-1 -1 -4 -1q-6 0 -20 9q-20 13 -44 37q-42 39 -59 41h-2q-18 0 -56 -33q-38 -34 -66 -42z" />
    <glyph glyph-name="paragraph" unicode="&#xb6;" horiz-adv-x="542" 
d="M267 740q12 -2 35 -4.5t35 -4.5q48 -10 64 -13q42 -1 78 -37q33 -34 33 -79v-7q0 -4 -2 -5t-3 -1q-2 0 -4 1q-4 1 -8.5 3t-9.5 4t-8 3q-24 27 -63 38l-8 2q-1 -50 -2 -165v-44q0 -108 4 -189q5 -97 15 -117q8 -17 8 -31q0 -7 -1 -12q-6 -19 -33 -44q-18 -17 -28 -25.5
t-20 -11.5q-5 -1 -9 -1q-5 0 -7 2q-6 3 -14 17t-13.5 31.5t-15.5 51.5q-20 66 -20 76q0 2 1 2q3 0 17 -25q21 -37 35 -37q37 0 37 242q0 234 -12 294q-72 14 -141 15q-1 -49 -1 -136v-96q0 -126 2 -194v-27q0 -50 -5 -84q-6 -42 -12.5 -58.5t-24.5 -38.5q-11 -14 -17.5 -21
t-13.5 -10q-4 -3 -7 -3q-2 0 -4 2q-4 2 -10 12t-11 23.5t-15 38.5q-14 40 -20 76q-3 17 -3 29q0 11 3 16t7 6h1q10 0 14 -29q3 -19 14 -33.5t23 -16.5q6 0 10 3.5t7.5 16.5t5 32.5t2.5 56.5v26q0 26 -1 56q-1 45 -2 115q-1 45 -2 85q-5 -8 -10 -11q-15 -12 -51 -12
q-17 1 -31.5 13.5t-19.5 33.5q-5 13 -5 28q0 34 25 78q39 59 133 84q14 5 40.5 5.5t38.5 4.5zM138 667q-38 -6 -58 -38q-10 -17 -12 -34q-1 -4 -1 -7q0 -14 8 -28q8 -7 20 -7q1 -1 3 -1q10 0 21 3q7 1 13 1q4 0 8 -1q3 -1 5 -2q-3 68 -7 114z" />
    <glyph glyph-name="periodcentered" unicode="&#xb7;" horiz-adv-x="191" 
d="M142.696 366.749q-28.8994 -29.749 -47.5986 -29.749q-0.850586 0 -1.7002 0.849609q-19.5498 0.850586 -47.5986 35.6992q-15.2998 18.6992 -15.2998 30.5996q0 2.5498 0.850586 5.09961q3.39941 12.75 34.8486 28.8994q18.6992 10.1992 37.3994 11.0498h3.39941
q16.999 0 28.8994 -6.80078q12.749 -7.64941 20.3994 -18.6992q5.09961 -8.5 5.09961 -18.6992q0 -4.25 -0.849609 -8.5q-3.40039 -16.1494 -17.8496 -29.749z" />
    <glyph glyph-name="periodcentered" unicode="&#x2219;" horiz-adv-x="191" 
d="M142.696 366.749q-28.8994 -29.749 -47.5986 -29.749q-0.850586 0 -1.7002 0.849609q-19.5498 0.850586 -47.5986 35.6992q-15.2998 18.6992 -15.2998 30.5996q0 2.5498 0.850586 5.09961q3.39941 12.75 34.8486 28.8994q18.6992 10.1992 37.3994 11.0498h3.39941
q16.999 0 28.8994 -6.80078q12.749 -7.64941 20.3994 -18.6992q5.09961 -8.5 5.09961 -18.6992q0 -4.25 -0.849609 -8.5q-3.40039 -16.1494 -17.8496 -29.749z" />
    <glyph glyph-name="cedilla" unicode="&#xb8;" horiz-adv-x="261" 
d="M134 -77q32 -19 45 -29q36 -25 46 -58q6 -18 6 -37q0 -15 -5 -31q-11 -33 -39 -51q-29 -17 -62 -19h-5q-25 0 -49 14q-25 16 -36 43q-5 13 -5 24q0 8 2 14q4 19 22 30q11 8 20 8q3 0 7 -1q9 -7 9 -24q0 -5 -1 -27v-13q0 -11 1 -14q5 -6 22 -8h15q26 0 42 10q13 9 13 23v7
q-3 23 -27 49q-14 14 -59 42q-41 26 -53 57l-1 3l51 13q15 -10 41 -25z" />
    <glyph glyph-name="uni00B9" unicode="&#xb9;" horiz-adv-x="456" 
d="M367 79q24 0 41.5 -11.5t17.5 -27.5q0 -17 -58 -28.5t-140 -11.5t-140 11.5t-58 28.5q0 16 23.5 27.5t55.5 11.5q20 0 31.5 2.5t21 14t14 27.5t8 50.5t4 74.5t0.5 108t-0.5 108t-4 74.5t-8 50.5t-14 27.5t-21 14t-31.5 2.5q-32 0 -55.5 11.5t-23.5 28.5q0 16 22.5 27.5
t53.5 11.5t71 7t65 16q17 4 28 4h3q11 -1 15 -28q2 -20 2 -46v-24q-2 -43 -9 -124q-9 -99 -9 -176q0 -89 12 -149q22 -113 83 -113z" />
    <glyph glyph-name="ordmasculine" unicode="&#xba;" horiz-adv-x="345" 
d="M152.654 1026.6q21.1191 -12.5996 37.6191 -12.5996q13.8594 0 24.4189 9q23.0986 18.5986 27.7188 76.1963q1.31934 14.999 1.31934 29.3994q0 49.1973 -16.499 81.5957q-21.1191 41.3984 -62.0371 41.3984q-24.4189 0 -32.6689 -14.999t-9.56934 -62.9971
q-0.660156 -20.3994 -0.660156 -37.7988q0 -47.998 4.62012 -68.9971q5.2793 -28.1992 25.7383 -40.1982zM239.111 1000.8q-13.1992 -10.2002 -17.1592 -13.5t-14.1895 -9.89941t-12.21 -8.09961q-1.97949 -1.5 -11.2197 -3.89941q-9.23926 -2.40039 -10.5596 -2.40039
q-1.31934 0 -11.8789 1.5t-13.2002 3q-2.63965 1.5 -16.1689 6.89941t-19.4688 8.7002q-5.94043 3.2998 -24.4199 11.6992q-15.8389 8.39941 -27.7188 16.1992q-21.1191 14.3994 -21.1191 22.7988q0 3.59961 3.95996 6q8.58008 4.7998 14.8496 36.5986t6.26953 71.3975
q0 26.3984 0.330078 39.5977t3.2998 27.2988t6.26953 19.7998q3.30078 5.69922 12.8701 13.7988t19.1387 12.2998q9.57031 4.2002 29.3691 12.5996q35.6387 14.3994 52.1377 17.999q6.59961 1.2002 13.1992 1.2002q8.58008 0 15.8398 -2.40039
q12.5391 -4.19922 34.9785 -20.3984q27.0586 -20.3994 35.6387 -45.5986q7.91992 -23.3994 7.91992 -75.5967v-8.39941q-1.32031 -60.5977 -11.8799 -86.0967t-44.8779 -53.0977zM174.5 875q-32.5 -2 -53 -3q-14 -1 -26 -1q-6.5 0 -12 1q-17 0 -26 2.5t-15.5 8.5t-8.75 13
t-2.75 19q-0.5 5 -0.5 9q0 23 10 29q4 2 13 2q13.5 0 37.5 -6q53.5 -13 118 -13h44.5q61.5 0 61.5 -17v-1q-3 -19 -75 -34q-30 -6 -65 -9z" />
    <glyph glyph-name="guillemotright" unicode="&#xbb;" horiz-adv-x="462" 
d="M70 555q43 -55 77 -88q12 -12 35 -32.5t34 -32.5q16 -18 23 -27q5 -9 5 -17v-6q-2 -3 -8 -18q-20 -37 -59 -81q-51 -57 -88 -91q-2 -2 -8.5 -8t-10 -8.5t-9 -5.5t-10.5 -3h-2q-4 0 -8 5q-5 6 -8 18t-3 21t2 16q5 15 21 27q52 36 74 55q15 11 42 37t40 36q-21 11 -44 27
q-52 40 -92 76q-1 3 -8 9.5t-10 10t-8 10t-8 13.5q-5 8 -6 23q-1 5 -1 9q0 10 2 18q1 11 5 18q4 6 8 6h1q9 -3 22 -17zM258 555q43 -55 77 -88q12 -12 35 -32.5t34 -32.5q16 -18 23 -27q5 -9 5 -17v-6q-2 -3 -8 -18q-20 -37 -59 -81q-51 -57 -88 -91q-2 -2 -8.5 -8t-10 -8.5
t-9 -5.5t-10.5 -3h-2q-4 0 -8 5q-5 6 -8 18t-3 21t2 16q5 15 21 27q52 36 74 55q15 11 42 37t40 36q-21 11 -44 27q-52 40 -92 76q-1 3 -8 9.5t-10 10t-8 10t-8 13.5q-5 8 -6 23q-1 5 -1 9q0 10 2 18q1 11 5 18q4 6 8 6h1q9 -3 22 -17z" />
    <glyph glyph-name="onequarter" unicode="&#xbc;" horiz-adv-x="1210" 
d="M367 544q24 0 41.5 -11.5t17.5 -27.5q0 -17 -58 -28.5t-140 -11.5t-140 11.5t-58 28.5q0 16 23.5 27.5t55.5 11.5q20 0 31.5 2.5t21 14t14 27.5t8 50.5t4 74.5t0.5 108t-0.5 108t-4 74.5t-8 50.5t-14 27.5t-21 14t-31.5 2.5q-32 0 -55.5 11.5t-23.5 28.5q0 16 22.5 27.5
t53.5 11.5t71 7t65 16q17 4 28 4h3q11 -1 15 -28q2 -20 2 -46v-24q-2 -43 -9 -124q-9 -99 -9 -176q0 -89 12 -149q22 -113 83 -113zM844 260q-32 -36 -54 -71.5t-22 -48.5q0 -14 21 -24t51 -10q41 0 57.5 26.5t18.5 94.5l3 120zM1177 -131q-14 -24 -116 -32q-47 -4 -92 -4
q-54 0 -105 5q-96 10 -96 33q0 17 23 28.5t55 11.5q33 0 55.5 17t22.5 41q0 31 -32.5 45t-105.5 14h-138l89 166q37 69 70 123.5t43 62.5q24 20 70 108q44 84 71 85h1q31 0 31 -107q0 -50 -7 -125q-9 -103 -9 -155q0 -32 3 -45q9 -35 67 -35q34 0 58 -11.5t24 -27.5
t-24 -27.5t-57 -11.5t-50 -11t-17 -26q0 -10 8 -23q25 -40 95 -50q35 -6 54 -20q12 -9 12 -19q0 -5 -3 -10zM534 403q-156 -224 -273 -374q-114 -148 -134 -154h-3v2q0 4 3 12q24 56 203 318q88 128 196.5 295.5t172.5 274.5q97 161 133 202q17 21 31 25q4 1 8 1
q10 0 17 -10t8 -22q-2 -13 -11 -35l-3 -7q-13 -29 -35 -66.5t-67 -105.5t-101 -148.5t-145 -207.5z" />
    <glyph glyph-name="onehalf" unicode="&#xbd;" horiz-adv-x="1402" 
d="M367 441q24 0 41.5 -11.5t17.5 -27.5q0 -17 -58 -28.5t-140 -11.5t-140 11.5t-58 28.5q0 16 23.5 27.5t55.5 11.5q20 0 31.5 2.5t21 14t14 27.5t8 50.5t4 74.5t0.5 108t-0.5 108t-4 74.5t-8 50.5t-14 27.5t-21 14t-31.5 2.5q-32 0 -55.5 11.5t-23.5 28.5q0 16 22.5 27.5
t53.5 11.5t71 7t65 16q17 4 28 4h3q11 -1 15 -28q2 -20 2 -46v-24q-2 -43 -9 -124q-9 -99 -9 -176q0 -89 12 -149q22 -113 83 -113zM663 374q-156 -224 -273 -374q-114 -148 -134 -154h-3v2q0 4 3 12q24 56 203 318q88 128 196.5 295.5t172.5 274.5q97 161 133 202
q17 21 31 25q4 1 8 1q10 0 17 -10t8 -22q-2 -13 -11 -35l-3 -7q-13 -29 -35 -66.5t-67 -105.5t-101 -148.5t-145 -207.5zM1371 -19q1 -29 1 -48t-1 -28q-5 -38 -36 -49q-29 -10 -166 -10q-50 0 -84 2t-60.5 8.5t-39 16t-14.5 27.5q-1 4 -1 8q0 14 6 30q8 20 29 53t49.5 69.5
t71.5 88.5q97 119 124 177q15 33 15 65q0 24 -9 47q-32 87 -97 101q-11 2 -23 2q-53 0 -107 -54q-63 -63 -64 -103q-1 -1 -1 -2q0 -39 60 -39q26 0 44 -12t18 -29q0 -31 -32 -39q-10 -3 -21 -3q-23 0 -48 13q-37 17 -50 50q-4 11 -4 25q0 21 8 50q13 49 42 93q40 62 81 81
q30 14 78 14q18 0 38 -2q53 -5 102.5 -28.5t66.5 -50.5q23 -37 25 -84v-11q0 -42 -14 -82q-17 -46 -50.5 -87t-78 -64.5t-88 -62.5t-59.5 -69q-14 -26 -17 -39q-1 -3 -1 -6q0 -10 10 -16q12 -9 37 -11.5t74 -2.5q77 0 115 17t48 56q4 16 8 18h1q11 0 14 -80z" />
    <glyph glyph-name="threequarters" unicode="&#xbe;" horiz-adv-x="1498" 
d="M373 572q-80 -28 -123 -34q-17 -3 -32 -3q-24 0 -44 6q-33 10 -77 44q-41 31 -58 75q-9 24 -9 46q0 18 6 34q13 37 53 52q29 11 49 11q26 0 38 -17q7 -12 7 -26q0 -28 -26 -70q-24 -39 -24 -57q0 -3 1 -6q5 -17 52 -30q14 -4 28 -4q31 0 63 19q46 26 73 78q23 44 23 91
q0 8 -1 17q-6 89 -106 111q-74 16 -107 26q-36 10 -36 16q1 7 71 9q54 2 97 30.5t61 72.5q10 23 10 47q0 20 -8 41q-7 20 -43 34q-34 12 -73 12h-6q-33 -1 -51 -5q-17 -4 -17 -9q0 -4 12 -9q38 -16 47 -48q3 -9 3 -18q0 -22 -16 -40q-22 -26 -64 -26q-43 0 -61 22t-18 76
q0 43 26.5 75.5t68.5 47.5q32 11 72 11q12 0 24 -1q54 -4 108 -28q84 -38 91 -90q1 -5 1 -10q0 -51 -60 -136q-16 -24 -24.5 -36.5t-13.5 -25.5q-4 -11 -4 -16v-2q1 -6 9 -12.5t19.5 -10t33.5 -9.5q34 -9 52 -24q12 -11 12 -21q0 -4 -2 -8q-5 -9 -5 -18q0 -6 2 -12
q5 -16 20 -25q20 -13 25 -35q2 -8 2 -16q0 -16 -6 -32q-10 -26 -29.5 -52t-50.5 -48t-65 -34zM1132 331q-32 -36 -54 -71.5t-22 -48.5q0 -14 21 -24t51 -10q41 0 57.5 26.5t18.5 94.5l3 120zM1465 -60q-14 -24 -116 -32q-47 -4 -92 -4q-54 0 -105 5q-96 10 -96 33
q0 17 23 28.5t55 11.5q33 0 55.5 17t22.5 41q0 31 -32.5 45t-105.5 14h-138l89 166q37 69 70 123.5t43 62.5q24 20 70 108q44 84 71 85h1q31 0 31 -107q0 -50 -7 -125q-9 -103 -9 -155q0 -32 3 -45q9 -35 67 -35q34 0 58 -11.5t24 -27.5t-24 -27.5t-57 -11.5t-50 -11
t-17 -26q0 -10 8 -23q25 -40 95 -50q35 -6 54 -20q12 -9 12 -19q0 -5 -3 -10zM745 426q-156 -224 -273 -374q-114 -148 -134 -154h-3v2q0 4 3 12q24 56 203 318q88 128 196.5 295.5t172.5 274.5q97 161 133 202q17 21 31 25q4 1 8 1q10 0 17 -10t8 -22q-2 -13 -11 -35l-3 -7
q-13 -29 -35 -66.5t-67 -105.5t-101 -148.5t-145 -207.5z" />
    <glyph glyph-name="questiondown" unicode="&#xbf;" horiz-adv-x="387" 
d="M103 430q54 39 90 40q2 1 3 1q35 0 69 -35q35 -35 35 -75q0 -68 -104 -151q-54 -43 -82 -91q-27 -44 -27 -79q0 -23 12 -42q22 -34 73 -34q25 0 56 8q47 12 57 30q4 8 4 22q0 18 -7 46q-8 30 -8 46q0 8 2 12q3 9 14 9q6 0 15 -3q40 -13 49 -49q3 -11 3 -23q0 -38 -33 -79
q-50 -61 -123 -61q-82 0 -126.5 41.5t-44.5 118.5q0 48 26.5 88.5t93.5 94.5q50 40 85.5 75t35.5 44q0 23 -25 33q-14 6 -32 6q-12 0 -25 -3q-33 -6 -54 -28q-20 -20 -40 -28q-9 -3 -16 -3q-8 0 -13 4q-4 4 -4 10q0 8 6 18q11 19 35 37zM153 714q34 34 56 34h3q22 -3 39 -48
q5 -14 5 -27q0 -24 -21 -43q-19 -16 -43 -16q-16 0 -34 7q-38 14 -39 36v1q0 22 34 56z" />
    <glyph glyph-name="Agrave" unicode="&#xc0;" 
d="M442 791q-28 -1 -71 -23q-60 -28 -60 -48q0 -2 1 -3q5 -21 101 -113q95 -89 124 -201q40 -13 79 -33q25 -13 52 -26q0 29 -2 56q-2 116 -11 172t-29.5 90.5t-67.5 70.5q-74 58 -116 58zM345 357q-30 0 -56 -11q-30 -13 -44 -44q-11 -22 -11 -43q0 -9 3 -17q6 -29 33 -37
q36 -11 96 -32q8 -3 11 -4q25 55 35 129l4 46q-40 13 -71 13zM186 280q-74 -65 -74 -122v-8q6 -61 95 -89q17 -5 35 -5q26 0 50 12q40 22 71 72h-6q-22 0 -52 10q-35 10 -62 26q-42 27 -53 48q-7 13 -7 30q0 11 3 26zM867 851q8 -9 17 -19q62 -71 62 -107q0 -13 -9 -13
q-13 0 -42 24q-40 34 -64 34q-13 0 -22 -10q-22 -30 -22 -194q0 -48 2 -109q1 -77 4 -125q9 15 9 34q1 21 10 36.5t22 15.5q28 -1 28 -30v-2q-3 -50 -62 -101l-4 -3q7 -96 26 -133t68 -64q37 -23 56 -45q11 -15 11 -24q0 -6 -4 -10q-6 -4 -16 -4q-16 0 -40 8q-43 13 -94 43
q-43 27 -65.5 39t-37.5 14h-8q-11 0 -17 -6q-9 -9 -16 -30q-10 -24 -24 -34q-9 -5 -16 -5q-6 0 -12 5q-7 5 -7 16q0 5 2 13q5 19 24 36q28 25 38 148q-9 3 -18 4q-79 25 -99 34q-7 -72 -43 -136q-45 -77 -94.5 -105.5t-147.5 -30.5h-12q-79 0 -125 35q-50 36 -86 130
q-9 23 -9 44q0 23 10 44q20 39 95 102l127 109l-97 31q-23 8 -39 15q-23 11 -23 16q0 4 12 4q16 1 30 1q78 0 117 -33q29 -28 29 -67q0 -19 -8 -41q51 23 116 23h13q-28 204 -231 281q-116 46 -116 85h1q0 38 117 41q40 1 76 12.5t45 26.5q23 34 51 34q8 0 15 -3
q37 -10 132 -84l118 -89l85 99l85 99zM663 1060q12 28 29.5 48.5t30.5 20.5q19 0 20 -9v-1q0 -9 -17 -35q-17 -27 -17 -45q0 -19 18 -48q19 -29 19 -44v-1q-1 -15 -23 -37q-21 -20 -31 -20q-1 0 -2 1q-10 3 -29 43q-15 35 -15 61t17 66z" />
    <glyph glyph-name="Aacute" unicode="&#xc1;" 
d="M442 791q-28 -1 -71 -23q-60 -28 -60 -48q0 -2 1 -3q5 -21 101 -113q95 -89 124 -201q40 -13 79 -33q25 -13 52 -26q0 29 -2 56q-2 116 -11 172t-29.5 90.5t-67.5 70.5q-74 58 -116 58zM345 357q-30 0 -56 -11q-30 -13 -44 -44q-11 -22 -11 -43q0 -9 3 -17q6 -29 33 -37
q36 -11 96 -32q8 -3 11 -4q25 55 35 129l4 46q-40 13 -71 13zM186 280q-74 -65 -74 -122v-8q6 -61 95 -89q17 -5 35 -5q26 0 50 12q40 22 71 72h-6q-22 0 -52 10q-35 10 -62 26q-42 27 -53 48q-7 13 -7 30q0 11 3 26zM867 851q8 -9 17 -19q62 -71 62 -107q0 -13 -9 -13
q-13 0 -42 24q-40 34 -64 34q-13 0 -22 -10q-22 -30 -22 -194q0 -48 2 -109q1 -77 4 -125q9 15 9 34q1 21 10 36.5t22 15.5q28 -1 28 -30v-2q-3 -50 -62 -101l-4 -3q7 -96 26 -133t68 -64q37 -23 56 -45q11 -15 11 -24q0 -6 -4 -10q-6 -4 -16 -4q-16 0 -40 8q-43 13 -94 43
q-43 27 -65.5 39t-37.5 14h-8q-11 0 -17 -6q-9 -9 -16 -30q-10 -24 -24 -34q-9 -5 -16 -5q-6 0 -12 5q-7 5 -7 16q0 5 2 13q5 19 24 36q28 25 38 148q-9 3 -18 4q-79 25 -99 34q-7 -72 -43 -136q-45 -77 -94.5 -105.5t-147.5 -30.5h-12q-79 0 -125 35q-50 36 -86 130
q-9 23 -9 44q0 23 10 44q20 39 95 102l127 109l-97 31q-23 8 -39 15q-23 11 -23 16q0 4 12 4q16 1 30 1q78 0 117 -33q29 -28 29 -67q0 -19 -8 -41q51 23 116 23h13q-28 204 -231 281q-116 46 -116 85h1q0 38 117 41q40 1 76 12.5t45 26.5q23 34 51 34q8 0 15 -3
q37 -10 132 -84l118 -89l85 99l85 99zM460 1138q18 34 35 49t49 24q19 6 30 7q5 1 9 1t6 -1q4 -2 5 -12q1 -4 1 -9t-1 -12q-1 -28 -10.5 -37t-41.5 -14q-28 -4 -41 -14t-21 -37q-9 -27 -14 -31q-2 -1 -3 -1h-1q-6 0 -13 9q-4 3 -5 11v6q0 6 1 15q3 22 15 46z" />
    <glyph glyph-name="Acircumflex" unicode="&#xc2;" 
d="M442 791q-28 -1 -71 -23q-60 -28 -60 -48q0 -2 1 -3q5 -21 101 -113q95 -89 124 -201q40 -13 79 -33q25 -13 52 -26q0 29 -2 56q-2 116 -11 172t-29.5 90.5t-67.5 70.5q-74 58 -116 58zM345 357q-30 0 -56 -11q-30 -13 -44 -44q-11 -22 -11 -43q0 -9 3 -17q6 -29 33 -37
q36 -11 96 -32q8 -3 11 -4q25 55 35 129l4 46q-40 13 -71 13zM186 280q-74 -65 -74 -122v-8q6 -61 95 -89q17 -5 35 -5q26 0 50 12q40 22 71 72h-6q-22 0 -52 10q-35 10 -62 26q-42 27 -53 48q-7 13 -7 30q0 11 3 26zM867 851q8 -9 17 -19q62 -71 62 -107q0 -13 -9 -13
q-13 0 -42 24q-40 34 -64 34q-13 0 -22 -10q-22 -30 -22 -194q0 -48 2 -109q1 -77 4 -125q9 15 9 34q1 21 10 36.5t22 15.5q28 -1 28 -30v-2q-3 -50 -62 -101l-4 -3q7 -96 26 -133t68 -64q37 -23 56 -45q11 -15 11 -24q0 -6 -4 -10q-6 -4 -16 -4q-16 0 -40 8q-43 13 -94 43
q-43 27 -65.5 39t-37.5 14h-8q-11 0 -17 -6q-9 -9 -16 -30q-10 -24 -24 -34q-9 -5 -16 -5q-6 0 -12 5q-7 5 -7 16q0 5 2 13q5 19 24 36q28 25 38 148q-9 3 -18 4q-79 25 -99 34q-7 -72 -43 -136q-45 -77 -94.5 -105.5t-147.5 -30.5h-12q-79 0 -125 35q-50 36 -86 130
q-9 23 -9 44q0 23 10 44q20 39 95 102l127 109l-97 31q-23 8 -39 15q-23 11 -23 16q0 4 12 4q16 1 30 1q78 0 117 -33q29 -28 29 -67q0 -19 -8 -41q51 23 116 23h13q-28 204 -231 281q-116 46 -116 85h1q0 38 117 41q40 1 76 12.5t45 26.5q23 34 51 34q8 0 15 -3
q37 -10 132 -84l118 -89l85 99l85 99zM511 1051q36 -23 95 -80q12 -15 12 -23v-4q-8 -12 -34 -13q-22 0 -34 15q-21 33 -62 75q-8 -13 -20 -26q-30 -36 -45 -49q-8 -8 -23 -12q-8 -2 -16 -2q-7 0 -14 2q-19 3 -19 14q1 6 19 20q25 19 77 72l5 5t6.5 5.5t6 4.5t7.5 4t9 2
q10 0 30 -10z" />
    <glyph glyph-name="Atilde" unicode="&#xc3;" 
d="M442 791q-28 -1 -71 -23q-60 -28 -60 -48q0 -2 1 -3q5 -21 101 -113q95 -89 124 -201q40 -13 79 -33q25 -13 52 -26q0 29 -2 56q-2 116 -11 172t-29.5 90.5t-67.5 70.5q-74 58 -116 58zM345 357q-30 0 -56 -11q-30 -13 -44 -44q-11 -22 -11 -43q0 -9 3 -17q6 -29 33 -37
q36 -11 96 -32q8 -3 11 -4q25 55 35 129l4 46q-40 13 -71 13zM186 280q-74 -65 -74 -122v-8q6 -61 95 -89q17 -5 35 -5q26 0 50 12q40 22 71 72h-6q-22 0 -52 10q-35 10 -62 26q-42 27 -53 48q-7 13 -7 30q0 11 3 26zM867 851q8 -9 17 -19q62 -71 62 -107q0 -13 -9 -13
q-13 0 -42 24q-40 34 -64 34q-13 0 -22 -10q-22 -30 -22 -194q0 -48 2 -109q1 -77 4 -125q9 15 9 34q1 21 10 36.5t22 15.5q28 -1 28 -30v-2q-3 -50 -62 -101l-4 -3q7 -96 26 -133t68 -64q37 -23 56 -45q11 -15 11 -24q0 -6 -4 -10q-6 -4 -16 -4q-16 0 -40 8q-43 13 -94 43
q-43 27 -65.5 39t-37.5 14h-8q-11 0 -17 -6q-9 -9 -16 -30q-10 -24 -24 -34q-9 -5 -16 -5q-6 0 -12 5q-7 5 -7 16q0 5 2 13q5 19 24 36q28 25 38 148q-9 3 -18 4q-79 25 -99 34q-7 -72 -43 -136q-45 -77 -94.5 -105.5t-147.5 -30.5h-12q-79 0 -125 35q-50 36 -86 130
q-9 23 -9 44q0 23 10 44q20 39 95 102l127 109l-97 31q-23 8 -39 15q-23 11 -23 16q0 4 12 4q16 1 30 1q78 0 117 -33q29 -28 29 -67q0 -19 -8 -41q51 23 116 23h13q-28 204 -231 281q-116 46 -116 85h1q0 38 117 41q40 1 76 12.5t45 26.5q23 34 51 34q8 0 15 -3
q37 -10 132 -84l118 -89l85 99l85 99zM584 954q-72 3 -142 74q-18 18 -31 35q-21 15 -48 15h-14q-35 -5 -35 -29q1 -12 13.5 -26.5t31.5 -26.5q27 -17 27 -24q0 -2 -6 -4q-3 -1 -8 -1h-6q-31 0 -50 27q-18 22 -18 53q0 6 1 13q5 38 36 60q13 8 29 8q23 0 50 -16
q34 -11 86 -59q48 -42 74 -51q10 -4 18 -4q17 0 33 10q38 24 38 63v6l27 -6q0 -56 -30 -87q-28 -30 -72 -30h-4z" />
    <glyph glyph-name="Adieresis" unicode="&#xc4;" 
d="M442 791q-28 -1 -71 -23q-60 -28 -60 -48q0 -2 1 -3q5 -21 101 -113q95 -89 124 -201q40 -13 79 -33q25 -13 52 -26q0 29 -2 56q-2 116 -11 172t-29.5 90.5t-67.5 70.5q-74 58 -116 58zM345 357q-30 0 -56 -11q-30 -13 -44 -44q-11 -22 -11 -43q0 -9 3 -17q6 -29 33 -37
q36 -11 96 -32q8 -3 11 -4q25 55 35 129l4 46q-40 13 -71 13zM186 280q-74 -65 -74 -122v-8q6 -61 95 -89q17 -5 35 -5q26 0 50 12q40 22 71 72h-6q-22 0 -52 10q-35 10 -62 26q-42 27 -53 48q-7 13 -7 30q0 11 3 26zM867 851q8 -9 17 -19q62 -71 62 -107q0 -13 -9 -13
q-13 0 -42 24q-40 34 -64 34q-13 0 -22 -10q-22 -30 -22 -194q0 -48 2 -109q1 -77 4 -125q9 15 9 34q1 21 10 36.5t22 15.5q28 -1 28 -30v-2q-3 -50 -62 -101l-4 -3q7 -96 26 -133t68 -64q37 -23 56 -45q11 -15 11 -24q0 -6 -4 -10q-6 -4 -16 -4q-16 0 -40 8q-43 13 -94 43
q-43 27 -65.5 39t-37.5 14h-8q-11 0 -17 -6q-9 -9 -16 -30q-10 -24 -24 -34q-9 -5 -16 -5q-6 0 -12 5q-7 5 -7 16q0 5 2 13q5 19 24 36q28 25 38 148q-9 3 -18 4q-79 25 -99 34q-7 -72 -43 -136q-45 -77 -94.5 -105.5t-147.5 -30.5h-12q-79 0 -125 35q-50 36 -86 130
q-9 23 -9 44q0 23 10 44q20 39 95 102l127 109l-97 31q-23 8 -39 15q-23 11 -23 16q0 4 12 4q16 1 30 1q78 0 117 -33q29 -28 29 -67q0 -19 -8 -41q51 23 116 23h13q-28 204 -231 281q-116 46 -116 85h1q0 38 117 41q40 1 76 12.5t45 26.5q23 34 51 34q8 0 15 -3
q37 -10 132 -84l118 -89l85 99l85 99zM705 969q-27 -27 -44 -27q-1 0 -1 1q-18 1 -44 32q-14 18 -14 29q0 2 1 4q3 12 32 27q17 9 34 10h3q16 0 27 -6q11 -7 18 -18q5 -7 5 -17q0 -4 -1 -7q-3 -15 -16 -28zM497 969q-27 -27 -44 -27q-1 0 -1 1q-18 1 -44 32q-14 18 -14 29
q0 2 1 4q3 12 32 27q17 9 34 10h3q16 0 27 -6q11 -7 18 -18q5 -7 5 -17q0 -4 -1 -7q-3 -15 -16 -28z" />
    <glyph glyph-name="Aring" unicode="&#xc5;" 
d="M442 791q-28 -1 -71 -23q-60 -28 -60 -48q0 -2 1 -3q5 -21 101 -113q95 -89 124 -201q40 -13 79 -33q25 -13 52 -26q0 29 -2 56q-2 116 -11 172t-29.5 90.5t-67.5 70.5q-74 58 -116 58zM345 357q-30 0 -56 -11q-30 -13 -44 -44q-11 -22 -11 -43q0 -9 3 -17q6 -29 33 -37
q36 -11 96 -32q8 -3 11 -4q25 55 35 129l4 46q-40 13 -71 13zM186 280q-74 -65 -74 -122v-8q6 -61 95 -89q17 -5 35 -5q26 0 50 12q40 22 71 72h-6q-22 0 -52 10q-35 10 -62 26q-42 27 -53 48q-7 13 -7 30q0 11 3 26zM867 851q8 -9 17 -19q62 -71 62 -107q0 -13 -9 -13
q-13 0 -42 24q-40 34 -64 34q-13 0 -22 -10q-22 -30 -22 -194q0 -48 2 -109q1 -77 4 -125q9 15 9 34q1 21 10 36.5t22 15.5q28 -1 28 -30v-2q-3 -50 -62 -101l-4 -3q7 -96 26 -133t68 -64q37 -23 56 -45q11 -15 11 -24q0 -6 -4 -10q-6 -4 -16 -4q-16 0 -40 8q-43 13 -94 43
q-43 27 -65.5 39t-37.5 14h-8q-11 0 -17 -6q-9 -9 -16 -30q-10 -24 -24 -34q-9 -5 -16 -5q-6 0 -12 5q-7 5 -7 16q0 5 2 13q5 19 24 36q28 25 38 148q-9 3 -18 4q-79 25 -99 34q-7 -72 -43 -136q-45 -77 -94.5 -105.5t-147.5 -30.5h-12q-79 0 -125 35q-50 36 -86 130
q-9 23 -9 44q0 23 10 44q20 39 95 102l127 109l-97 31q-23 8 -39 15q-23 11 -23 16q0 4 12 4q16 1 30 1q78 0 117 -33q29 -28 29 -67q0 -19 -8 -41q51 23 116 23h13q-28 204 -231 281q-116 46 -116 85h1q0 38 117 41q40 1 76 12.5t45 26.5q23 34 51 34q8 0 15 -3
q37 -10 132 -84l118 -89l85 99l85 99zM534 1135h5q59 -1 83 -45q6 -14 6 -30q0 -30 -30 -62q-48 -49 -79 -49h-2q-33 2 -81 60q-25 31 -25 51q0 5 2 8q6 22 57 48q33 18 64 19zM530 1082q-16 0 -32 -8q-21 -11 -25 -20v-5q0 -9 11 -22q21 -25 35 -25q0 -1 1 -1q13 0 35 22
q14 14 14 26q0 6 -3 14q-11 19 -36 19z" />
    <glyph glyph-name="AE" unicode="&#xc6;" horiz-adv-x="1607" 
d="M442 791q-28 -1 -71 -23q-60 -28 -60 -48q0 -2 1 -3q5 -21 101 -113q95 -89 124 -201q40 -13 79 -33q25 -13 52 -26q0 29 -2 56q-2 116 -11 172t-29.5 90.5t-67.5 70.5q-74 58 -116 58zM186 280q-74 -65 -74 -122v-8q6 -61 95 -89q17 -5 35 -5q26 0 50 12q40 22 71 72h-6
q-22 0 -52 10q-35 10 -62 26q-42 27 -53 48q-7 13 -7 30q0 11 3 26zM345 357q-30 0 -56 -11q-30 -13 -44 -44q-11 -22 -11 -43q0 -9 3 -17q6 -29 33 -37q36 -11 96 -32q8 -3 11 -4q25 55 35 129l4 46q-40 13 -71 13zM1447 618q5 -14 5 -30q0 -10 -1 -20q-7 -29 -26 -45
q-26 -23 -36 -23v1q-10 0 -10 24q0 18 -25 30.5t-61 12.5q-54 0 -60 10q-1 1 -1 4q0 11 26 38q49 52 107 52h1q58 -1 81 -54zM954 7l-1 -1q-6 -4 -16 -4q-16 0 -40 8q-43 13 -94 43q-43 27 -65.5 39t-37.5 14h-8q-11 0 -17 -6q-9 -9 -16 -30q-10 -24 -24 -34q-9 -5 -16 -5
q-6 0 -12 5q-7 5 -7 16q0 5 2 13q5 19 24 36q28 25 38 148q-9 3 -18 4q-79 25 -99 34q-7 -72 -43 -136q-45 -77 -94.5 -105.5t-147.5 -30.5h-12q-79 0 -125 35q-50 36 -86 130q-9 23 -9 44q0 23 10 44q20 39 95 102l127 109l-97 31q-23 8 -39 15q-23 11 -23 16q0 4 12 4
q16 1 30 1q78 0 117 -33q29 -28 29 -67q0 -19 -8 -41q51 23 116 23h13q-28 204 -231 281q-116 46 -116 85h1q0 38 117 41q40 1 76 12.5t45 26.5q23 34 51 34q8 0 15 -3q37 -10 132 -84l118 -89l85 99l85 99l76 -78q27 13 52 18q32 8 88 8q45 0 104 -5q49 -4 92 -4q40 0 75 4
q73 6 99 25q30 22 40 22h2q3 -1 3 -6q0 -9 -8 -26q-37 -98 -165 -98q-65 0 -154 25q-46 14 -70 20t-50 10q-20 1 -30 1h-9q-11 -1 -28 -10q-10 -5 -17 -10q56 -67 56 -101q0 -13 -9 -13q-13 0 -42 24q-35 30 -58 33q-31 -40 -48 -110q-2 -39 -2 -93q0 -48 2 -109
q1 -77 4 -125q9 15 9 34q1 21 10 36.5t22 15.5q28 -1 28 -30v-2q-3 -50 -62 -101q13 -39 32 -71q34 -56 96 -90.5t134 -38.5q15 -1 30 -1q57 0 111 12q71 15 129 59t87 105q22 48 30 48t8 -29v-2q0 -25 -28 -70q-28 -48 -70 -91q-85 -89 -179 -113q-42 -11 -92 -11
q-61 0 -134 15zM1209 257q-40 -34 -128 -40q-17 -3 -32 -3q-62 0 -89 24q-12 10 -17 44q-6 27 -6 57v14l4 91l29 -88q13 -42 41 -65t66 -23q57 0 77 29q10 14 10 32q0 21 -10 46q-20 49 -77 106q-83 83 -98 168q-5 18 -5 34q0 57 46 82q16 8 23 8h3q2 -1 2 -5q0 -5 -6 -15
q-3 -3 -3 -11q0 -17 20 -53q28 -50 78 -105q95 -104 114 -189q4 -20 4 -39q0 -59 -46 -99z" />
    <glyph glyph-name="Ccedilla" unicode="&#xc7;" horiz-adv-x="1100" 
d="M191 844q75 60 180 79q42 7 84 7q62 0 121 -16q99 -27 162 -92q38 -41 88 -53q20 -6 39 -6q26 0 48 11q36 19 36 61q0 31 12 52t29 21q34 0 41 -35q1 -9 1 -19q0 -27 -16 -62q-21 -47 -60 -77q-33 -26 -56 -37.5t-51 -16.5q-8 -2 -18 -2q-22 0 -48 7q-39 11 -85 29.5
t-125 54.5q-131 60 -189 70q-17 3 -33 3q-43 0 -89 -19q-104 -40 -148 -130q-31 -59 -31 -126q0 -35 9 -71q23 -108 111 -196q186 -146 384 -177q52 -9 97 -9q108 0 178 49q65 47 65 116q0 34 -14 72q-69 51 -69 61q0 8 51 8q71 0 116.5 -32t55.5 -79q3 -14 3 -29
q0 -36 -18 -79q-26 -59 -86 -108q-63 -53 -216 -69q-50 -5 -96 -5q-96 0 -172 23q-39 11 -72 23t-80 33t-84 45.5t-77.5 61t-68.5 78t-47 97t-22 119.5q-1 18 -1 36q0 102 32 173q34 81 129 155zM553 -77q32 -19 45 -29q36 -25 46 -58q6 -18 6 -37q0 -15 -5 -31
q-11 -33 -39 -51q-29 -17 -62 -19h-5q-25 0 -49 14q-25 16 -36 43q-5 13 -5 24q0 8 2 14q4 19 22 30q11 8 20 8q3 0 7 -1q9 -7 9 -24q0 -5 -1 -27v-13q0 -11 1 -14q5 -6 22 -8h15q26 0 42 10q13 9 13 23v7q-3 23 -27 49q-14 14 -59 42q-41 26 -53 57l-1 3l51 13
q15 -10 41 -25z" />
    <glyph glyph-name="Egrave" unicode="&#xc8;" horiz-adv-x="848" 
d="M808 628q5 -14 5 -30q0 -10 -1 -20q-7 -29 -26 -45q-26 -23 -36 -23v1q-10 0 -10 24q0 18 -25 30.5t-61 12.5q-54 0 -60 10q-1 1 -1 4q0 11 26 38q49 52 107 52h1q58 -1 81 -54zM570 267q-40 -34 -128 -40q-17 -3 -32 -3q-62 0 -89 24q-12 10 -17 44q-6 27 -6 57v14l4 91
l29 -88q13 -42 41 -65t66 -23q57 0 77 29q10 14 10 32q0 21 -10 46q-20 49 -77 106q-83 83 -98 168q-5 18 -5 34q0 57 46 82q16 8 23 8h3q2 -1 2 -5q0 -5 -6 -15q-3 -3 -3 -11q0 -17 20 -53q28 -50 78 -105q95 -104 114 -189q4 -20 4 -39q0 -59 -46 -99zM720 126
q-85 -89 -179 -113q-42 -11 -92 -11q-63 0 -138 16q-113 27 -172 73t-84 131.5t-25 238.5q0 82 2 125t7 80t20.5 59.5t33.5 41t54 44.5q73 57 132 69q32 8 88 8q45 0 104 -5q49 -4 92 -4q40 0 75 4q73 6 99 25q30 22 40 22h2q3 -1 3 -6q0 -9 -8 -26q-37 -98 -165 -98
q-65 0 -154 25q-46 14 -70 20t-50 10q-20 1 -30 1h-9q-11 -1 -28.5 -10t-28 -20t-30.5 -34q-47 -49 -65 -155q-13 -66 -13 -133q0 -44 6 -91q13 -116 56 -189q34 -56 96 -90.5t134 -38.5q15 -1 30 -1q57 0 111 12q71 15 129 59t87 105q22 48 30 48t8 -29v-2q0 -25 -28 -70
q-28 -48 -70 -91zM374 1060q12 28 29.5 48.5t30.5 20.5q19 0 20 -9v-1q0 -9 -17 -35q-17 -27 -17 -45q0 -19 18 -48q19 -29 19 -44v-1q-1 -15 -23 -37q-21 -20 -31 -20q-1 0 -2 1q-10 3 -29 43q-15 35 -15 61t17 66z" />
    <glyph glyph-name="Eacute" unicode="&#xc9;" horiz-adv-x="848" 
d="M808 628q5 -14 5 -30q0 -10 -1 -20q-7 -29 -26 -45q-26 -23 -36 -23v1q-10 0 -10 24q0 18 -25 30.5t-61 12.5q-54 0 -60 10q-1 1 -1 4q0 11 26 38q49 52 107 52h1q58 -1 81 -54zM570 267q-40 -34 -128 -40q-17 -3 -32 -3q-62 0 -89 24q-12 10 -17 44q-6 27 -6 57v14l4 91
l29 -88q13 -42 41 -65t66 -23q57 0 77 29q10 14 10 32q0 21 -10 46q-20 49 -77 106q-83 83 -98 168q-5 18 -5 34q0 57 46 82q16 8 23 8h3q2 -1 2 -5q0 -5 -6 -15q-3 -3 -3 -11q0 -17 20 -53q28 -50 78 -105q95 -104 114 -189q4 -20 4 -39q0 -59 -46 -99zM720 126
q-85 -89 -179 -113q-42 -11 -92 -11q-63 0 -138 16q-113 27 -172 73t-84 131.5t-25 238.5q0 82 2 125t7 80t20.5 59.5t33.5 41t54 44.5q73 57 132 69q32 8 88 8q45 0 104 -5q49 -4 92 -4q40 0 75 4q73 6 99 25q30 22 40 22h2q3 -1 3 -6q0 -9 -8 -26q-37 -98 -165 -98
q-65 0 -154 25q-46 14 -70 20t-50 10q-20 1 -30 1h-9q-11 -1 -28.5 -10t-28 -20t-30.5 -34q-47 -49 -65 -155q-13 -66 -13 -133q0 -44 6 -91q13 -116 56 -189q34 -56 96 -90.5t134 -38.5q15 -1 30 -1q57 0 111 12q71 15 129 59t87 105q22 48 30 48t8 -29v-2q0 -25 -28 -70
q-28 -48 -70 -91zM390 1138q18 34 35 49t49 24q19 6 30 7q5 1 9 1t6 -1q4 -2 5 -12q1 -4 1 -9t-1 -12q-1 -28 -10.5 -37t-41.5 -14q-28 -4 -41 -14t-21 -37q-9 -27 -14 -31q-2 -1 -3 -1h-1q-6 0 -13 9q-4 3 -5 11v6q0 6 1 15q3 22 15 46z" />
    <glyph glyph-name="Ecircumflex" unicode="&#xca;" horiz-adv-x="848" 
d="M808 628q5 -14 5 -30q0 -10 -1 -20q-7 -29 -26 -45q-26 -23 -36 -23v1q-10 0 -10 24q0 18 -25 30.5t-61 12.5q-54 0 -60 10q-1 1 -1 4q0 11 26 38q49 52 107 52h1q58 -1 81 -54zM570 267q-40 -34 -128 -40q-17 -3 -32 -3q-62 0 -89 24q-12 10 -17 44q-6 27 -6 57v14l4 91
l29 -88q13 -42 41 -65t66 -23q57 0 77 29q10 14 10 32q0 21 -10 46q-20 49 -77 106q-83 83 -98 168q-5 18 -5 34q0 57 46 82q16 8 23 8h3q2 -1 2 -5q0 -5 -6 -15q-3 -3 -3 -11q0 -17 20 -53q28 -50 78 -105q95 -104 114 -189q4 -20 4 -39q0 -59 -46 -99zM720 126
q-85 -89 -179 -113q-42 -11 -92 -11q-63 0 -138 16q-113 27 -172 73t-84 131.5t-25 238.5q0 82 2 125t7 80t20.5 59.5t33.5 41t54 44.5q73 57 132 69q32 8 88 8q45 0 104 -5q49 -4 92 -4q40 0 75 4q73 6 99 25q30 22 40 22h2q3 -1 3 -6q0 -9 -8 -26q-37 -98 -165 -98
q-65 0 -154 25q-46 14 -70 20t-50 10q-20 1 -30 1h-9q-11 -1 -28.5 -10t-28 -20t-30.5 -34q-47 -49 -65 -155q-13 -66 -13 -133q0 -44 6 -91q13 -116 56 -189q34 -56 96 -90.5t134 -38.5q15 -1 30 -1q57 0 111 12q71 15 129 59t87 105q22 48 30 48t8 -29v-2q0 -25 -28 -70
q-28 -48 -70 -91zM450 1051q36 -23 95 -80q12 -15 12 -23v-4q-8 -12 -34 -13q-22 0 -34 15q-21 33 -62 75q-8 -13 -20 -26q-30 -36 -45 -49q-8 -8 -23 -12q-8 -2 -16 -2q-7 0 -14 2q-19 3 -19 14q1 6 19 20q25 19 77 72l5 5t6.5 5.5t6 4.5t7.5 4t9 2q10 0 30 -10z" />
    <glyph glyph-name="Edieresis" unicode="&#xcb;" horiz-adv-x="848" 
d="M808 628q5 -14 5 -30q0 -10 -1 -20q-7 -29 -26 -45q-26 -23 -36 -23v1q-10 0 -10 24q0 18 -25 30.5t-61 12.5q-54 0 -60 10q-1 1 -1 4q0 11 26 38q49 52 107 52h1q58 -1 81 -54zM570 267q-40 -34 -128 -40q-17 -3 -32 -3q-62 0 -89 24q-12 10 -17 44q-6 27 -6 57v14l4 91
l29 -88q13 -42 41 -65t66 -23q57 0 77 29q10 14 10 32q0 21 -10 46q-20 49 -77 106q-83 83 -98 168q-5 18 -5 34q0 57 46 82q16 8 23 8h3q2 -1 2 -5q0 -5 -6 -15q-3 -3 -3 -11q0 -17 20 -53q28 -50 78 -105q95 -104 114 -189q4 -20 4 -39q0 -59 -46 -99zM720 126
q-85 -89 -179 -113q-42 -11 -92 -11q-63 0 -138 16q-113 27 -172 73t-84 131.5t-25 238.5q0 82 2 125t7 80t20.5 59.5t33.5 41t54 44.5q73 57 132 69q32 8 88 8q45 0 104 -5q49 -4 92 -4q40 0 75 4q73 6 99 25q30 22 40 22h2q3 -1 3 -6q0 -9 -8 -26q-37 -98 -165 -98
q-65 0 -154 25q-46 14 -70 20t-50 10q-20 1 -30 1h-9q-11 -1 -28.5 -10t-28 -20t-30.5 -34q-47 -49 -65 -155q-13 -66 -13 -133q0 -44 6 -91q13 -116 56 -189q34 -56 96 -90.5t134 -38.5q15 -1 30 -1q57 0 111 12q71 15 129 59t87 105q22 48 30 48t8 -29v-2q0 -25 -28 -70
q-28 -48 -70 -91zM571 969q-27 -27 -44 -27q-1 0 -1 1q-18 1 -44 32q-14 18 -14 29q0 2 1 4q3 12 32 27q17 9 34 10h3q16 0 27 -6q11 -7 18 -18q5 -7 5 -17q0 -4 -1 -7q-3 -15 -16 -28zM363 969q-27 -27 -44 -27q-1 0 -1 1q-18 1 -44 32q-14 18 -14 29q0 2 1 4q3 12 32 27
q17 9 34 10h3q16 0 27 -6q11 -7 18 -18q5 -7 5 -17q0 -4 -1 -7q-3 -15 -16 -28z" />
    <glyph glyph-name="Igrave" unicode="&#xcc;" horiz-adv-x="753" 
d="M318 930h6q62 0 109 -25q43 -23 99.5 -85t79.5 -80q3 -2 7 -6t8.5 -5.5t8.5 -1.5q9 8 14.5 30t10.5 30q4 11 21 14h6q12 0 19 -8q6 -9 6 -36v-14q0 -48 -47 -72q-43 -20 -99 -20h-4q-45 0 -81 25q-27 21 -63 68.5t-55 63.5q-55 49 -111 49q-6 0 -13 -1q-50 -4 -76 -53
q-19 -35 -19 -79q0 -16 3 -32q2 -36 36 -54q17 -8 34.5 -14t39 -11t35 -8.5t39.5 -8.5t36 -7q8 -3 26.5 -6t28.5 -7q13 -6 13 -17v-3q-1 -15 -14 -20q-9 -1 -101 -5q-13 -1 -25 -1q-93 0 -158 50q-78 61 -78 168v13q0 38 19 74t56 57q63 37 183 38zM576 619h3q15 0 23 -13
q5 -16 7 -20v-2q0 -5 -4 -19q-6 -18 -6 -23v-3q0 -53 47 -128q67 -95 75 -171q2 -14 2 -26q0 -86 -72 -163q-38 -44 -97 -67q-50 -20 -104 -20h-17q-78 4 -144 46.5t-95 106.5q-4 11 -10 32t-14 37t-19 28q-6 6 -10 6q-3 0 -4 -3q-5 -6 -5 -22q0 -3 2 -5v-14q0 -10 -2 -16
q-3 -18 -16 -32.5t-33 -15.5h-5q-13 0 -24 9q-14 11 -18 26q-6 20 -6 39q0 36 22 67q27 38 98 46q21 2 40 2q42 0 63 -13q30 -23 53 -89q12 -37 17 -50t20 -39t34 -42q30 -26 78 -26q8 0 19 1q63 6 89 31q33 34 33 92q0 14 -2 29q-2 35 -31 94.5t-33 75.5q0 2 -4 14.5
t-4.5 16t-1.5 13.5q-2 5 -2 12q0 2 2 5q0 6 2 12q-34 6 -46 33q-5 16 -5 31q0 38 34 74q16 15 22 19.5t20 12.5t29 11zM478 1137q12 28 29.5 48.5t30.5 20.5q19 0 20 -9v-1q0 -9 -17 -35q-17 -27 -17 -45q0 -19 18 -48q19 -29 19 -44v-1q-1 -15 -23 -37q-21 -20 -31 -20
q-1 0 -2 1q-10 3 -29 43q-15 35 -15 61t17 66z" />
    <glyph glyph-name="Iacute" unicode="&#xcd;" horiz-adv-x="753" 
d="M318 930h6q62 0 109 -25q43 -23 99.5 -85t79.5 -80q3 -2 7 -6t8.5 -5.5t8.5 -1.5q9 8 14.5 30t10.5 30q4 11 21 14h6q12 0 19 -8q6 -9 6 -36v-14q0 -48 -47 -72q-43 -20 -99 -20h-4q-45 0 -81 25q-27 21 -63 68.5t-55 63.5q-55 49 -111 49q-6 0 -13 -1q-50 -4 -76 -53
q-19 -35 -19 -79q0 -16 3 -32q2 -36 36 -54q17 -8 34.5 -14t39 -11t35 -8.5t39.5 -8.5t36 -7q8 -3 26.5 -6t28.5 -7q13 -6 13 -17v-3q-1 -15 -14 -20q-9 -1 -101 -5q-13 -1 -25 -1q-93 0 -158 50q-78 61 -78 168v13q0 38 19 74t56 57q63 37 183 38zM576 619h3q15 0 23 -13
q5 -16 7 -20v-2q0 -5 -4 -19q-6 -18 -6 -23v-3q0 -53 47 -128q67 -95 75 -171q2 -14 2 -26q0 -86 -72 -163q-38 -44 -97 -67q-50 -20 -104 -20h-17q-78 4 -144 46.5t-95 106.5q-4 11 -10 32t-14 37t-19 28q-6 6 -10 6q-3 0 -4 -3q-5 -6 -5 -22q0 -3 2 -5v-14q0 -10 -2 -16
q-3 -18 -16 -32.5t-33 -15.5h-5q-13 0 -24 9q-14 11 -18 26q-6 20 -6 39q0 36 22 67q27 38 98 46q21 2 40 2q42 0 63 -13q30 -23 53 -89q12 -37 17 -50t20 -39t34 -42q30 -26 78 -26q8 0 19 1q63 6 89 31q33 34 33 92q0 14 -2 29q-2 35 -31 94.5t-33 75.5q0 2 -4 14.5
t-4.5 16t-1.5 13.5q-2 5 -2 12q0 2 2 5q0 6 2 12q-34 6 -46 33q-5 16 -5 31q0 38 34 74q16 15 22 19.5t20 12.5t29 11zM342 1138q18 34 35 49t49 24q19 6 30 7q5 1 9 1t6 -1q4 -2 5 -12q1 -4 1 -9t-1 -12q-1 -28 -10.5 -37t-41.5 -14q-28 -4 -41 -14t-21 -37q-9 -27 -14 -31
q-2 -1 -3 -1h-1q-6 0 -13 9q-4 3 -5 11v6q0 6 1 15q3 22 15 46z" />
    <glyph glyph-name="Icircumflex" unicode="&#xce;" horiz-adv-x="753" 
d="M318 930h6q62 0 109 -25q43 -23 99.5 -85t79.5 -80q3 -2 7 -6t8.5 -5.5t8.5 -1.5q9 8 14.5 30t10.5 30q4 11 21 14h6q12 0 19 -8q6 -9 6 -36v-14q0 -48 -47 -72q-43 -20 -99 -20h-4q-45 0 -81 25q-27 21 -63 68.5t-55 63.5q-55 49 -111 49q-6 0 -13 -1q-50 -4 -76 -53
q-19 -35 -19 -79q0 -16 3 -32q2 -36 36 -54q17 -8 34.5 -14t39 -11t35 -8.5t39.5 -8.5t36 -7q8 -3 26.5 -6t28.5 -7q13 -6 13 -17v-3q-1 -15 -14 -20q-9 -1 -101 -5q-13 -1 -25 -1q-93 0 -158 50q-78 61 -78 168v13q0 38 19 74t56 57q63 37 183 38zM576 619h3q15 0 23 -13
q5 -16 7 -20v-2q0 -5 -4 -19q-6 -18 -6 -23v-3q0 -53 47 -128q67 -95 75 -171q2 -14 2 -26q0 -86 -72 -163q-38 -44 -97 -67q-50 -20 -104 -20h-17q-78 4 -144 46.5t-95 106.5q-4 11 -10 32t-14 37t-19 28q-6 6 -10 6q-3 0 -4 -3q-5 -6 -5 -22q0 -3 2 -5v-14q0 -10 -2 -16
q-3 -18 -16 -32.5t-33 -15.5h-5q-13 0 -24 9q-14 11 -18 26q-6 20 -6 39q0 36 22 67q27 38 98 46q21 2 40 2q42 0 63 -13q30 -23 53 -89q12 -37 17 -50t20 -39t34 -42q30 -26 78 -26q8 0 19 1q63 6 89 31q33 34 33 92q0 14 -2 29q-2 35 -31 94.5t-33 75.5q0 2 -4 14.5
t-4.5 16t-1.5 13.5q-2 5 -2 12q0 2 2 5q0 6 2 12q-34 6 -46 33q-5 16 -5 31q0 38 34 74q16 15 22 19.5t20 12.5t29 11zM403 1051q36 -23 95 -80q12 -15 12 -23v-4q-8 -12 -34 -13q-22 0 -34 15q-21 33 -62 75q-8 -13 -20 -26q-30 -36 -45 -49q-8 -8 -23 -12q-8 -2 -16 -2
q-7 0 -14 2q-19 3 -19 14q1 6 19 20q25 19 77 72l5 5t6.5 5.5t6 4.5t7.5 4t9 2q10 0 30 -10z" />
    <glyph glyph-name="Idieresis" unicode="&#xcf;" horiz-adv-x="753" 
d="M318 930h6q62 0 109 -25q43 -23 99.5 -85t79.5 -80q3 -2 7 -6t8.5 -5.5t8.5 -1.5q9 8 14.5 30t10.5 30q4 11 21 14h6q12 0 19 -8q6 -9 6 -36v-14q0 -48 -47 -72q-43 -20 -99 -20h-4q-45 0 -81 25q-27 21 -63 68.5t-55 63.5q-55 49 -111 49q-6 0 -13 -1q-50 -4 -76 -53
q-19 -35 -19 -79q0 -16 3 -32q2 -36 36 -54q17 -8 34.5 -14t39 -11t35 -8.5t39.5 -8.5t36 -7q8 -3 26.5 -6t28.5 -7q13 -6 13 -17v-3q-1 -15 -14 -20q-9 -1 -101 -5q-13 -1 -25 -1q-93 0 -158 50q-78 61 -78 168v13q0 38 19 74t56 57q63 37 183 38zM576 619h3q15 0 23 -13
q5 -16 7 -20v-2q0 -5 -4 -19q-6 -18 -6 -23v-3q0 -53 47 -128q67 -95 75 -171q2 -14 2 -26q0 -86 -72 -163q-38 -44 -97 -67q-50 -20 -104 -20h-17q-78 4 -144 46.5t-95 106.5q-4 11 -10 32t-14 37t-19 28q-6 6 -10 6q-3 0 -4 -3q-5 -6 -5 -22q0 -3 2 -5v-14q0 -10 -2 -16
q-3 -18 -16 -32.5t-33 -15.5h-5q-13 0 -24 9q-14 11 -18 26q-6 20 -6 39q0 36 22 67q27 38 98 46q21 2 40 2q42 0 63 -13q30 -23 53 -89q12 -37 17 -50t20 -39t34 -42q30 -26 78 -26q8 0 19 1q63 6 89 31q33 34 33 92q0 14 -2 29q-2 35 -31 94.5t-33 75.5q0 2 -4 14.5
t-4.5 16t-1.5 13.5q-2 5 -2 12q0 2 2 5q0 6 2 12q-34 6 -46 33q-5 16 -5 31q0 38 34 74q16 15 22 19.5t20 12.5t29 11zM523 969q-27 -27 -44 -27q-1 0 -1 1q-18 1 -44 32q-14 18 -14 29q0 2 1 4q3 12 32 27q17 9 34 10h3q16 0 27 -6q11 -7 18 -18q5 -7 5 -17q0 -4 -1 -7
q-3 -15 -16 -28zM315 969q-27 -27 -44 -27q-1 0 -1 1q-18 1 -44 32q-14 18 -14 29q0 2 1 4q3 12 32 27q17 9 34 10h3q16 0 27 -6q11 -7 18 -18q5 -7 5 -17q0 -4 -1 -7q-3 -15 -16 -28z" />
    <glyph glyph-name="Eth" unicode="&#xd0;" horiz-adv-x="1091" 
d="M448 510q-9 26 -9 66v6q1 92 43 159q19 32 19 47q0 6 -4 10q-9 7 -58 7q-33 0 -86 -3q-173 -12 -222 -73q-16 -20 -16 -42q0 -45 71 -95q67 -49 69 -60q0 -10 -51 -10q-70 0 -115 32.5t-55 80.5q-4 14 -4 29q0 35 19 76q24 58 85 107q63 51 124 69q48 14 138 14
q18 0 40 -2q294 -7 454 -131.5t170 -351.5q1 -17 1 -34q0 -104 -32 -173q-36 -80 -128 -154q-75 -59 -178 -76q-42 -8 -82 -8q-62 0 -120 16q-99 27 -161 91q-39 40 -88 54q-22 5 -39 5q-26 0 -46 -12q-36 -19 -36 -61q0 -29 -12.5 -50.5t-29.5 -21.5q-33 0 -39 35
q-3 8 -3 17q0 29 18 64q20 46 59 76q31 25 55 36.5t51 17.5q9 1 19 1q20 0 46 -7q38 -11 83 -29.5t124 -53.5q132 -59 189 -69q16 -2 32 -2q43 0 88 17q102 40 148 129q29 59 29 125q0 35 -7 71q-25 107 -111 193q-87 86 -170 123q-56 25 -97 25q-36 0 -59 -21
q-24 -23 -24 -62q0 -50 42 -126q26 -47 39 -86q61 -4 128 -4h89q123 0 123 -17v-1q-6 -19 -150 -34q-60 -6 -130 -9q-25 -1 -46 -1v-8q0 -11 -2 -21q-11 -66 -98 -117q-56 -31 -82 -31h-1q-27 1 -71 39q-62 54 -64 112v6q0 41 40 41q19 0 27 -17q6 -12 6 -27q0 -7 -1 -16
q-2 -6 -2 -12q0 -19 13 -36q17 -21 48 -27q5 -1 13 -1q28 0 46 25q15 22 15 51q0 9 -1 20q-1 9 -4 16q-10 0 -18 1q-34 0 -52 2.5t-31 8.5t-17.5 13t-5.5 19q-1 5 -1 9q0 23 20 29q8 2 26 2h10z" />
    <glyph glyph-name="Ntilde" unicode="&#xd1;" horiz-adv-x="1006" 
d="M118 47q-7 -19 -24.5 -32t-33.5 -13q-13 4 -13 20q0 19 18 53q46 73 165 73q75 0 101.5 21t44.5 94q27 132 27 245q0 32 -1 65q-12 136 -69.5 222t-145.5 86q-66 0 -92 -30q-16 -19 -16 -42q0 -18 9 -39q18 -52 80 -107q68 -61 90 -117q8 -23 8 -43q0 -27 -16 -47
q-28 -35 -102 -41l-104 -9l103 38l103 37l-116 93q-67 54 -88 99q-16 34 -16 79q0 15 1 31q9 77 35 99t118 29q19 2 38 2q44 0 86 -9q58 -13 94 -41q38 -31 56 -37q7 -4 14 -4t14 4q12 8 32 39q23 35 64 51q34 14 73 14h13q45 -2 89.5 -19t77.5 -44t47 -63q8 -19 8 -38
t-8 -39q-7 -18 -7 -31q0 -12 7 -19q12 -15 54 -16q33 0 39 -7q1 -1 1 -2q0 -15 -81 -73q-70 -50 -94 -100.5t-28 -156.5q-1 -26 -1 -50q0 -57 5 -93q10 -59 39 -59q26 0 68 49q13 15 24 25q22 19 31 19q7 0 7 -10q0 -15 -24.5 -53t-59.5 -75q-23 -27 -34.5 -38.5t-26 -21.5
t-19.5 -10q0 -2 -2 -2q-6 0 -16 7q-13 6 -21.5 14.5t-25.5 30.5q-63 70 -63 200q0 17 1 33q9 154 89 242q49 57 59 88q2 7 2 15q0 21 -19 39q-20 16 -34 52.5t-14 70.5q0 79 -37 99q-11 6 -27 6q-32 0 -77 -29q-39 -25 -57.5 -93.5t-25.5 -207.5q-9 -174 -50 -285.5
t-142 -243.5q-26 -35 -46 -35t-67 35q-42 30 -61 31h-3q-17 0 -27 -25zM593 954q-72 3 -142 74q-18 18 -31 35q-21 15 -48 15h-14q-35 -5 -35 -29q1 -12 13.5 -26.5t31.5 -26.5q27 -17 27 -24q0 -2 -6 -4q-3 -1 -8 -1h-6q-31 0 -50 27q-18 22 -18 53q0 6 1 13q5 38 36 60
q13 8 29 8q23 0 50 -16q34 -11 86 -59q48 -42 74 -51q10 -4 18 -4q17 0 33 10q38 24 38 63v6l27 -6q0 -56 -30 -87q-28 -30 -72 -30h-4z" />
    <glyph glyph-name="Ograve" unicode="&#xd2;" horiz-adv-x="1074" 
d="M789 52q-46 -20 -105 -35q-55 -14 -90 -14h-5q-71 0 -189.5 50t-149.5 90q-13 17 -37 19h-10q-19 0 -38 -6q-24 -10 -42 -29.5t-18 -41.5q0 -21 -11.5 -36t-27.5 -15q-27 0 -33 9q-2 3 -2 6q0 22 41 100q42 79 131 82h10q88 0 232 -64q62 -27 134 -46.5t112 -19.5
q49 0 116.5 35t117.5 84.5t53 86.5q2 41 17 106q3 15 3 30q0 63 -45 146q-56 103 -134 147q-37 21 -133 41t-194 26q-79 5 -131 5q-43 0 -65 -3q-47 -8 -60 -43q-6 -15 -6 -34q0 -35 20 -85q29 -77 91 -153q26 -32 27 -57v-4q0 -25 -21 -55q-30 -41 -85 -57q-38 -12 -72 -12
q-17 0 -35 3q-52 9 -89 41q-36 32 -36 75v4q1 17 4 23q2 4 6 4q14 0 52 -48q24 -30 57.5 -52t53.5 -22q34 0 47 30q5 14 5 30q0 19 -8 40q-14 40 -49 65q-48 37 -57 101q-3 14 -3 27q0 51 26 103q32 68 95 114q82 62 187 79q46 8 91 8q56 0 112 -11q98 -23 186 -84t138 -151
q69 -127 71 -251v-6q0 -122 -65 -218q-68 -101 -190 -157zM676 1140q12 28 29.5 48.5t30.5 20.5q19 0 20 -9v-1q0 -9 -17 -35q-17 -27 -17 -45q0 -19 18 -48q19 -29 19 -44v-1q-1 -15 -23 -37q-21 -20 -31 -20q-1 0 -2 1q-10 3 -29 43q-15 35 -15 61t17 66z" />
    <glyph glyph-name="Oacute" unicode="&#xd3;" horiz-adv-x="1074" 
d="M789 52q-46 -20 -105 -35q-55 -14 -90 -14h-5q-71 0 -189.5 50t-149.5 90q-13 17 -37 19h-10q-19 0 -38 -6q-24 -10 -42 -29.5t-18 -41.5q0 -21 -11.5 -36t-27.5 -15q-27 0 -33 9q-2 3 -2 6q0 22 41 100q42 79 131 82h10q88 0 232 -64q62 -27 134 -46.5t112 -19.5
q49 0 116.5 35t117.5 84.5t53 86.5q2 41 17 106q3 15 3 30q0 63 -45 146q-56 103 -134 147q-37 21 -133 41t-194 26q-79 5 -131 5q-43 0 -65 -3q-47 -8 -60 -43q-6 -15 -6 -34q0 -35 20 -85q29 -77 91 -153q26 -32 27 -57v-4q0 -25 -21 -55q-30 -41 -85 -57q-38 -12 -72 -12
q-17 0 -35 3q-52 9 -89 41q-36 32 -36 75v4q1 17 4 23q2 4 6 4q14 0 52 -48q24 -30 57.5 -52t53.5 -22q34 0 47 30q5 14 5 30q0 19 -8 40q-14 40 -49 65q-48 37 -57 101q-3 14 -3 27q0 51 26 103q32 68 95 114q82 62 187 79q46 8 91 8q56 0 112 -11q98 -23 186 -84t138 -151
q69 -127 71 -251v-6q0 -122 -65 -218q-68 -101 -190 -157zM503 1138q18 34 35 49t49 24q19 6 30 7q5 1 9 1t6 -1q4 -2 5 -12q1 -4 1 -9t-1 -12q-1 -28 -10.5 -37t-41.5 -14q-28 -4 -41 -14t-21 -37q-9 -27 -14 -31q-2 -1 -3 -1h-1q-6 0 -13 9q-4 3 -5 11v6q0 6 1 15
q3 22 15 46z" />
    <glyph glyph-name="Ocircumflex" unicode="&#xd4;" horiz-adv-x="1074" 
d="M789 52q-46 -20 -105 -35q-55 -14 -90 -14h-5q-71 0 -189.5 50t-149.5 90q-13 17 -37 19h-10q-19 0 -38 -6q-24 -10 -42 -29.5t-18 -41.5q0 -21 -11.5 -36t-27.5 -15q-27 0 -33 9q-2 3 -2 6q0 22 41 100q42 79 131 82h10q88 0 232 -64q62 -27 134 -46.5t112 -19.5
q49 0 116.5 35t117.5 84.5t53 86.5q2 41 17 106q3 15 3 30q0 63 -45 146q-56 103 -134 147q-37 21 -133 41t-194 26q-79 5 -131 5q-43 0 -65 -3q-47 -8 -60 -43q-6 -15 -6 -34q0 -35 20 -85q29 -77 91 -153q26 -32 27 -57v-4q0 -25 -21 -55q-30 -41 -85 -57q-38 -12 -72 -12
q-17 0 -35 3q-52 9 -89 41q-36 32 -36 75v4q1 17 4 23q2 4 6 4q14 0 52 -48q24 -30 57.5 -52t53.5 -22q34 0 47 30q5 14 5 30q0 19 -8 40q-14 40 -49 65q-48 37 -57 101q-3 14 -3 27q0 51 26 103q32 68 95 114q82 62 187 79q46 8 91 8q56 0 112 -11q98 -23 186 -84t138 -151
q69 -127 71 -251v-6q0 -122 -65 -218q-68 -101 -190 -157zM563 1051q36 -23 95 -80q12 -15 12 -23v-4q-8 -12 -34 -13q-22 0 -34 15q-21 33 -62 75q-8 -13 -20 -26q-30 -36 -45 -49q-8 -8 -23 -12q-8 -2 -16 -2q-7 0 -14 2q-19 3 -19 14q1 6 19 20q25 19 77 72l5 5t6.5 5.5
t6 4.5t7.5 4t9 2q10 0 30 -10z" />
    <glyph glyph-name="Otilde" unicode="&#xd5;" horiz-adv-x="1074" 
d="M789 52q-46 -20 -105 -35q-55 -14 -90 -14h-5q-71 0 -189.5 50t-149.5 90q-13 17 -37 19h-10q-19 0 -38 -6q-24 -10 -42 -29.5t-18 -41.5q0 -21 -11.5 -36t-27.5 -15q-27 0 -33 9q-2 3 -2 6q0 22 41 100q42 79 131 82h10q88 0 232 -64q62 -27 134 -46.5t112 -19.5
q49 0 116.5 35t117.5 84.5t53 86.5q2 41 17 106q3 15 3 30q0 63 -45 146q-56 103 -134 147q-37 21 -133 41t-194 26q-79 5 -131 5q-43 0 -65 -3q-47 -8 -60 -43q-6 -15 -6 -34q0 -35 20 -85q29 -77 91 -153q26 -32 27 -57v-4q0 -25 -21 -55q-30 -41 -85 -57q-38 -12 -72 -12
q-17 0 -35 3q-52 9 -89 41q-36 32 -36 75v4q1 17 4 23q2 4 6 4q14 0 52 -48q24 -30 57.5 -52t53.5 -22q34 0 47 30q5 14 5 30q0 19 -8 40q-14 40 -49 65q-48 37 -57 101q-3 14 -3 27q0 51 26 103q32 68 95 114q82 62 187 79q46 8 91 8q56 0 112 -11q98 -23 186 -84t138 -151
q69 -127 71 -251v-6q0 -122 -65 -218q-68 -101 -190 -157zM627 954q-72 3 -142 74q-18 18 -31 35q-21 15 -48 15h-14q-35 -5 -35 -29q1 -12 13.5 -26.5t31.5 -26.5q27 -17 27 -24q0 -2 -6 -4q-3 -1 -8 -1h-6q-31 0 -50 27q-18 22 -18 53q0 6 1 13q5 38 36 60q13 8 29 8
q23 0 50 -16q34 -11 86 -59q48 -42 74 -51q10 -4 18 -4q17 0 33 10q38 24 38 63v6l27 -6q0 -56 -30 -87q-28 -30 -72 -30h-4z" />
    <glyph glyph-name="Odieresis" unicode="&#xd6;" horiz-adv-x="1074" 
d="M789 52q-46 -20 -105 -35q-55 -14 -90 -14h-5q-71 0 -189.5 50t-149.5 90q-13 17 -37 19h-10q-19 0 -38 -6q-24 -10 -42 -29.5t-18 -41.5q0 -21 -11.5 -36t-27.5 -15q-27 0 -33 9q-2 3 -2 6q0 22 41 100q42 79 131 82h10q88 0 232 -64q62 -27 134 -46.5t112 -19.5
q49 0 116.5 35t117.5 84.5t53 86.5q2 41 17 106q3 15 3 30q0 63 -45 146q-56 103 -134 147q-37 21 -133 41t-194 26q-79 5 -131 5q-43 0 -65 -3q-47 -8 -60 -43q-6 -15 -6 -34q0 -35 20 -85q29 -77 91 -153q26 -32 27 -57v-4q0 -25 -21 -55q-30 -41 -85 -57q-38 -12 -72 -12
q-17 0 -35 3q-52 9 -89 41q-36 32 -36 75v4q1 17 4 23q2 4 6 4q14 0 52 -48q24 -30 57.5 -52t53.5 -22q34 0 47 30q5 14 5 30q0 19 -8 40q-14 40 -49 65q-48 37 -57 101q-3 14 -3 27q0 51 26 103q32 68 95 114q82 62 187 79q46 8 91 8q56 0 112 -11q98 -23 186 -84t138 -151
q69 -127 71 -251v-6q0 -122 -65 -218q-68 -101 -190 -157zM684 969q-27 -27 -44 -27q-1 0 -1 1q-18 1 -44 32q-14 18 -14 29q0 2 1 4q3 12 32 27q17 9 34 10h3q16 0 27 -6q11 -7 18 -18q5 -7 5 -17q0 -4 -1 -7q-3 -15 -16 -28zM476 969q-27 -27 -44 -27q-1 0 -1 1
q-18 1 -44 32q-14 18 -14 29q0 2 1 4q3 12 32 27q17 9 34 10h3q16 0 27 -6q11 -7 18 -18q5 -7 5 -17q0 -4 -1 -7q-3 -15 -16 -28z" />
    <glyph glyph-name="multiply" unicode="&#xd7;" horiz-adv-x="572" 
d="M154 121q-11 0 -22 9l-5 5q-11 11 -11 22q0 5 3 11q4 6 14 17q18 18 53 45q39 28 94 77q-55 50 -94 78q-35 27 -52 44q-11 11 -15 18q-3 6 -3 12q0 10 9 19q3 3 7 5q11 11 23 11h1q12 -1 33 -15.5t53 -46.5q32 -31 82 -84q21 19 38 36l27 27q83 83 101 83q2 0 3 -1l2 -2
q1 -1 1 -3q0 -24 -82 -123q-23 -27 -52 -58q121 -132 133 -176q1 -3 1 -5q0 -3 -2 -5q-1 -1 -2 -1q-6 0 -21 10q-27 19 -78 70l-15 15q-23 23 -53 51q-36 -37 -64 -65q-31 -31 -51 -48q-36 -32 -56 -32z" />
    <glyph glyph-name="Oslash" unicode="&#xd8;" horiz-adv-x="1074" 
d="M869 810q64 -54 104 -126q69 -127 71 -251v-6q0 -122 -65 -218q-68 -101 -190 -157q-46 -20 -105 -35q-55 -14 -90 -14h-5q-71 0 -189 50q-2 1 -4 1q-18 -26 -35 -50q-110 -153 -134 -159h-4q-1 2 -1 4q0 4 2 11q12 46 115 221q-67 33 -89 62q-13 17 -37 19h-10
q-19 0 -38 -6q-24 -10 -42 -29.5t-18 -41.5q0 -21 -11.5 -36t-27.5 -15q-27 0 -33 9q-2 3 -2 6q0 22 41 100q42 79 131 82h10q74 0 188 -46q3 4 5 8q81 134 179 310q87 158 142 265q-19 4 -41 9q-96 20 -194 26q-79 5 -131 5q-43 0 -65 -3q-47 -8 -60 -43q-6 -15 -6 -34
q0 -35 20 -85q29 -77 91 -153q26 -32 27 -57v-4q0 -25 -21 -55q-30 -41 -85 -57q-38 -12 -72 -12q-17 0 -35 3q-52 9 -89 41q-36 32 -36 75v4q1 17 4 23q2 4 6 4q14 0 52 -48q24 -30 57.5 -52t53.5 -22q34 0 47 30q5 14 5 30q0 19 -8 40q-14 40 -49 65q-48 37 -57 101
q-3 14 -3 27q0 51 26 103q32 68 95 114q82 62 187 79q46 8 91 8q56 0 112 -11q67 -16 130 -50q53 102 80 133q17 22 34 26q4 1 8 1q13 0 25 -11q12 -12 15 -25q1 -3 1 -8q0 -12 -5 -29l-2 -7q-10 -31 -29 -70q-14 -27 -37 -69zM467 158q52 -21 112 -37q72 -20 112 -20
q49 0 116.5 35t117.5 84.5t53 86.5q2 41 17 106q3 15 3 30q0 63 -45 146q-54 99 -128 144q-33 -57 -72 -120q-52 -85 -135 -218q-81 -130 -151 -237z" />
    <glyph glyph-name="Ugrave" unicode="&#xd9;" horiz-adv-x="1026" 
d="M574 103q-50 -33 -74.5 -49t-57 -30t-46.5 -16q-7 -2 -16 -2q-12 0 -30 3q-31 4 -54 12t-69 25q-88 34 -106 52q-7 6 -7 14q0 13 28 30q36 19 55 99.5t27 248.5q5 107 6 165v11q0 49 -6 82q-5 35 -16.5 44.5t-34.5 9.5q-28 -2 -53 -17t-31.5 -34.5t-21.5 -25.5
q-7 -4 -13 -4q-8 0 -17 7q-7 5 -7 17q0 11 7 29q13 36 48 76q30 38 46 53.5t37 20.5q7 3 16 3q12 0 23 -5q19 -8 58 -29q20 -11 31.5 -18.5t23.5 -21.5t18 -24t11.5 -35t7 -46.5t3.5 -65.5v-85q-2 -41 -3 -112q-2 -62 -2 -111q0 -74 3 -121q5 -76 31 -113q18 -30 49 -30
q7 0 15 3q41 9 120 53q36 20 56 33.5t38 36t25.5 44.5t14 66t7 90.5t0.5 126.5q0 52 -4 92q-13 153 -82 153q-34 0 -81 -37q-35 -26 -40 -26q-2 0 -2 3q0 11 46 77q23 34 36 52.5t31 32t31 17.5q7 3 17 3q9 0 21 -2q24 -4 47 -12.5t65 -24.5q63 -25 76 -44q3 -5 3 -12
q0 -15 -20 -33q-22 -21 -33 -118q-10 -81 -10 -187v-52q1 -60 3 -95q5 -164 27 -189q9 -9 27 -9q16 0 39 6q36 10 58 10h4q23 -1 23 -20q0 -28 -52 -94q-36 -48 -59 -53q-3 -1 -7 -1q-21 0 -62 28q-30 18 -52.5 47.5t-22.5 51.5q-3 41 -20 46q-3 1 -7 1q-33 0 -140 -71z
M463 1060q12 28 29.5 48.5t30.5 20.5q19 0 20 -9v-1q0 -9 -17 -35q-17 -27 -17 -45q0 -19 18 -48q19 -29 19 -44v-1q-1 -15 -23 -37q-21 -20 -31 -20q-1 0 -2 1q-10 3 -29 43q-15 35 -15 61t17 66z" />
    <glyph glyph-name="Uacute" unicode="&#xda;" horiz-adv-x="1026" 
d="M574 103q-50 -33 -74.5 -49t-57 -30t-46.5 -16q-7 -2 -16 -2q-12 0 -30 3q-31 4 -54 12t-69 25q-88 34 -106 52q-7 6 -7 14q0 13 28 30q36 19 55 99.5t27 248.5q5 107 6 165v11q0 49 -6 82q-5 35 -16.5 44.5t-34.5 9.5q-28 -2 -53 -17t-31.5 -34.5t-21.5 -25.5
q-7 -4 -13 -4q-8 0 -17 7q-7 5 -7 17q0 11 7 29q13 36 48 76q30 38 46 53.5t37 20.5q7 3 16 3q12 0 23 -5q19 -8 58 -29q20 -11 31.5 -18.5t23.5 -21.5t18 -24t11.5 -35t7 -46.5t3.5 -65.5v-85q-2 -41 -3 -112q-2 -62 -2 -111q0 -74 3 -121q5 -76 31 -113q18 -30 49 -30
q7 0 15 3q41 9 120 53q36 20 56 33.5t38 36t25.5 44.5t14 66t7 90.5t0.5 126.5q0 52 -4 92q-13 153 -82 153q-34 0 -81 -37q-35 -26 -40 -26q-2 0 -2 3q0 11 46 77q23 34 36 52.5t31 32t31 17.5q7 3 17 3q9 0 21 -2q24 -4 47 -12.5t65 -24.5q63 -25 76 -44q3 -5 3 -12
q0 -15 -20 -33q-22 -21 -33 -118q-10 -81 -10 -187v-52q1 -60 3 -95q5 -164 27 -189q9 -9 27 -9q16 0 39 6q36 10 58 10h4q23 -1 23 -20q0 -28 -52 -94q-36 -48 -59 -53q-3 -1 -7 -1q-21 0 -62 28q-30 18 -52.5 47.5t-22.5 51.5q-3 41 -20 46q-3 1 -7 1q-33 0 -140 -71z
M479 1138q18 34 35 49t49 24q19 6 30 7q5 1 9 1t6 -1q4 -2 5 -12q1 -4 1 -9t-1 -12q-1 -28 -10.5 -37t-41.5 -14q-28 -4 -41 -14t-21 -37q-9 -27 -14 -31q-2 -1 -3 -1h-1q-6 0 -13 9q-4 3 -5 11v6q0 6 1 15q3 22 15 46z" />
    <glyph glyph-name="Ucircumflex" unicode="&#xdb;" horiz-adv-x="1026" 
d="M574 103q-50 -33 -74.5 -49t-57 -30t-46.5 -16q-7 -2 -16 -2q-12 0 -30 3q-31 4 -54 12t-69 25q-88 34 -106 52q-7 6 -7 14q0 13 28 30q36 19 55 99.5t27 248.5q5 107 6 165v11q0 49 -6 82q-5 35 -16.5 44.5t-34.5 9.5q-28 -2 -53 -17t-31.5 -34.5t-21.5 -25.5
q-7 -4 -13 -4q-8 0 -17 7q-7 5 -7 17q0 11 7 29q13 36 48 76q30 38 46 53.5t37 20.5q7 3 16 3q12 0 23 -5q19 -8 58 -29q20 -11 31.5 -18.5t23.5 -21.5t18 -24t11.5 -35t7 -46.5t3.5 -65.5v-85q-2 -41 -3 -112q-2 -62 -2 -111q0 -74 3 -121q5 -76 31 -113q18 -30 49 -30
q7 0 15 3q41 9 120 53q36 20 56 33.5t38 36t25.5 44.5t14 66t7 90.5t0.5 126.5q0 52 -4 92q-13 153 -82 153q-34 0 -81 -37q-35 -26 -40 -26q-2 0 -2 3q0 11 46 77q23 34 36 52.5t31 32t31 17.5q7 3 17 3q9 0 21 -2q24 -4 47 -12.5t65 -24.5q63 -25 76 -44q3 -5 3 -12
q0 -15 -20 -33q-22 -21 -33 -118q-10 -81 -10 -187v-52q1 -60 3 -95q5 -164 27 -189q9 -9 27 -9q16 0 39 6q36 10 58 10h4q23 -1 23 -20q0 -28 -52 -94q-36 -48 -59 -53q-3 -1 -7 -1q-21 0 -62 28q-30 18 -52.5 47.5t-22.5 51.5q-3 41 -20 46q-3 1 -7 1q-33 0 -140 -71z
M476 1089q36 -23 95 -80q12 -15 12 -23v-4q-8 -12 -34 -13q-22 0 -34 15q-21 33 -62 75q-8 -13 -20 -26q-30 -36 -45 -49q-8 -8 -23 -12q-8 -2 -16 -2q-7 0 -14 2q-19 3 -19 14q1 6 19 20q25 19 77 72l5 5t6.5 5.5t6 4.5t7.5 4t9 2q10 0 30 -10z" />
    <glyph glyph-name="Udieresis" unicode="&#xdc;" horiz-adv-x="1026" 
d="M574 103q-50 -33 -74.5 -49t-57 -30t-46.5 -16q-7 -2 -16 -2q-12 0 -30 3q-31 4 -54 12t-69 25q-88 34 -106 52q-7 6 -7 14q0 13 28 30q36 19 55 99.5t27 248.5q5 107 6 165v11q0 49 -6 82q-5 35 -16.5 44.5t-34.5 9.5q-28 -2 -53 -17t-31.5 -34.5t-21.5 -25.5
q-7 -4 -13 -4q-8 0 -17 7q-7 5 -7 17q0 11 7 29q13 36 48 76q30 38 46 53.5t37 20.5q7 3 16 3q12 0 23 -5q19 -8 58 -29q20 -11 31.5 -18.5t23.5 -21.5t18 -24t11.5 -35t7 -46.5t3.5 -65.5v-85q-2 -41 -3 -112q-2 -62 -2 -111q0 -74 3 -121q5 -76 31 -113q18 -30 49 -30
q7 0 15 3q41 9 120 53q36 20 56 33.5t38 36t25.5 44.5t14 66t7 90.5t0.5 126.5q0 52 -4 92q-13 153 -82 153q-34 0 -81 -37q-35 -26 -40 -26q-2 0 -2 3q0 11 46 77q23 34 36 52.5t31 32t31 17.5q7 3 17 3q9 0 21 -2q24 -4 47 -12.5t65 -24.5q63 -25 76 -44q3 -5 3 -12
q0 -15 -20 -33q-22 -21 -33 -118q-10 -81 -10 -187v-52q1 -60 3 -95q5 -164 27 -189q9 -9 27 -9q16 0 39 6q36 10 58 10h4q23 -1 23 -20q0 -28 -52 -94q-36 -48 -59 -53q-3 -1 -7 -1q-21 0 -62 28q-30 18 -52.5 47.5t-22.5 51.5q-3 41 -20 46q-3 1 -7 1q-33 0 -140 -71z
M619 1001q-27 -27 -44 -27q-1 0 -1 1q-18 1 -44 32q-14 18 -14 29q0 2 1 4q3 12 32 27q17 9 34 10h3q16 0 27 -6q11 -7 18 -18q5 -7 5 -17q0 -4 -1 -7q-3 -15 -16 -28zM411 1001q-27 -27 -44 -27q-1 0 -1 1q-18 1 -44 32q-14 18 -14 29q0 2 1 4q3 12 32 27q17 9 34 10h3
q16 0 27 -6q11 -7 18 -18q5 -7 5 -17q0 -4 -1 -7q-3 -15 -16 -28z" />
    <glyph glyph-name="Yacute" unicode="&#xdd;" horiz-adv-x="1003" 
d="M914 930q13 0 23 -5q12 -6 22 -40.5t13 -77.5q1 -30 1 -50q0 -29 -3 -32q-1 -2 -3 -2q-10 0 -46 34q-27 26 -47 26q-9 0 -16 -3q-24 -17 -99 -129q-65 -96 -120 -155q36 -85 36 -187q0 -24 -1 -47q-10 -131 -67 -186q-54 -55 -89 -68q-19 -6 -44 -6t-54 5q-37 8 -62 50
q-26 40 -26 85q0 2 2 4q0 47 30 68q14 10 26 10q9 0 14 -6q15 -14 25 -65q10 -56 29 -69q8 -9 26 -9q14 0 33 6q29 10 53 40t29 63q1 9 1 19q0 55 -39 172q-46 138 -112 269t-111 166q-44 34 -96 37h-13q-45 0 -79 -22q-39 -26 -48 -74q-1 -8 -1 -15q0 -32 24 -54
q30 -29 125 -69q104 -44 144 -83q31 -20 49 -46q13 -20 13 -39q0 -8 -1 -15q-12 -52 -66 -79q-39 -19 -80 -19q-17 0 -33 4q-57 11 -76 57q-4 13 -4 18t7 5q13 0 50 -23q29 -17 61 -26q18 -5 33 -5q8 0 14 1q26 9 26 38q0 11 -4 25q-15 50 -61 73q-36 9 -73 22
q-92 33 -149 84t-67 102q-3 11 -3 23q0 38 27 75q35 46 116 73q61 20 119 20q53 0 101 -18q99 -36 141 -134q14 -35 39.5 -83t28.5 -55q30 51 66 106q63 96 131.5 155.5t114.5 60.5zM609 1000q18 34 35 49t49 24q19 6 30 7q5 1 9 1t6 -1q4 -2 5 -12q1 -4 1 -9t-1 -12
q-1 -28 -10.5 -37t-41.5 -14q-28 -4 -41 -14t-21 -37q-9 -27 -14 -31q-2 -1 -3 -1h-1q-6 0 -13 9q-4 3 -5 11v6q0 6 1 15q3 22 15 46z" />
    <glyph glyph-name="Thorn" unicode="&#xde;" horiz-adv-x="934" 
d="M107 1212h6q62 0 109 -25q43 -23 99.5 -85t79.5 -80q3 -2 7 -6t8.5 -5.5t8.5 -1.5q9 8 14.5 30t10.5 30q4 11 21 14h6q12 0 19 -8q6 -9 6 -36v-14q0 -48 -47 -72q-43 -20 -99 -20h-4q-45 0 -81 25q-27 21 -63 68.5t-55 63.5q-55 49 -111 49q-6 0 -13 -1q-50 -4 -76 -53
q-19 -35 -19 -79q0 -16 3 -32q2 -36 36 -54q17 -8 34.5 -14t39 -11t35 -8.5t39.5 -8.5t36 -7q8 -3 26.5 -6t28.5 -7q13 -6 13 -17v-3q-1 -15 -14 -20q-9 -1 -101 -5q-13 -1 -25 -1q-93 0 -158 50q-78 61 -78 168v13q0 38 19 74t56 57q63 37 183 38zM490 596l3 1v-8
q14 -35 17 -67q2 -14 2 -26v-13l1 -1q7 -6 26 -11t38.5 -6t57.5 -1q41 0 59.5 1t37.5 6t24 10t8 21q1 8 1 15q0 8 -1 16l-9 48q-12 57 -18 87.5t-17 57.5t-19 36.5t-25 15.5q-13 4 -26 4q-4 0 -10 -1q-17 -3 -49 -9q-33 -8 -53 -9h-8q-23 0 -23 10q0 5 5 13q17 23 79 32
q27 4 56 4q36 0 72 -5q65 -11 94 -38q20 -17 34.5 -63.5t14.5 -94.5q1 -20 5.5 -54.5t5.5 -55.5v-11q0 -17 -3 -33q-4 -24 -23.5 -37.5t-55.5 -18.5h-9q-26 0 -89 -7q-49 -5 -94 -5q-21 0 -43 2h-11q-39 0 -45.5 -9.5t-6.5 -67.5v-4q0 -111 -62.5 -233t-137.5 -157
q-74 -34 -111 -35h-4q-38 0 -90 29q-33 17 -40 65q-1 11 -1 24q0 34 14 68q20 44 58 55q10 2 18 2q16 0 22 -11q3 -7 3 -20q0 -19 -7 -49q-6 -29 -6 -48q0 -17 6 -26q10 -20 54 -20q30 0 65.5 20.5t54.5 50.5q29 48 42 194q5 76 5 153q0 67 -4 135q0 5 -1 10q-7 20 -19 45
q-29 59 -33 75q0 2 -4 14.5t-4.5 16t-1.5 13.5q-2 5 -2 12q0 2 2 5q0 6 2 12q-34 6 -46 33q-5 16 -5 31q0 38 34 74q16 15 22 19.5t20 12.5t29 11h3q15 0 23 -13q5 -16 7 -20v-2q0 -5 -4 -19q-6 -18 -6 -23v-3q0 -53 47 -128q36 -51 55 -97z" />
    <glyph glyph-name="germandbls" unicode="&#xdf;" horiz-adv-x="436" 
d="M302 710q12 -45 12 -68q25 -70 25 -110q0 -30 -13 -44q-27 -29 -27 -46q0 -1 1 -2q2 -17 40 -52q55 -158 55 -227t-55 -124q-28 -29 -52 -43l-15 60q15 12 21 28q17 44 17 81q0 16 -3 32q-11 49 -55 188q-25 18 -33 28q-6 6 -6 11q0 2 2 5q4 6 23 14q23 8 36 39
q9 22 9 45q0 9 -1 17q-37 152 -79 160t-58 12q-26 3 -42 7h-5q-11 0 -12 -13q-1 -4 -1 -7q0 -15 6 -34q6 -25 25 -77q11 -31 18 -47t15 -27l2 -2q3 -4 6 -7v-67q-3 -7 -4 -16q-10 -45 -10 -152q0 -72 3 -131l-12 -119h-5q-7 0 -10 -4q-9 -12 -9 -81q0 -41 -7 -71t-17 -30
t-17 40t-7 96q1 71 1 130v56q-1 79 -3.5 137.5t-6.5 96.5t-11 61t-15.5 32.5t-21.5 9.5q-29 0 -33 3q-1 1 -1 2q0 6 32 30q20 15 36 59t20 92q2 32 3.5 47.5t7.5 31.5t10.5 20.5t20 9.5t29.5 5.5t45 0.5h13q36 0 63 -4q38 -37 50 -82z" />
    <glyph glyph-name="agrave" unicode="&#xe0;" horiz-adv-x="511" 
d="M136 126q19 -31 61 -31q0 -1 1 -1q40 0 71 31q24 24 25 104v3q0 78 -20 151q-20 74 -48 84q-16 6 -33 6q-6 0 -13 -1q-24 -3 -37 -16q-25 -26 -28 -158v-28q0 -108 21 -144zM224 50q-21 -19 -34 -29t-26 -16q-12 -5 -20 -5h-2q-8 1 -20 10t-22 22t-27 36q-32 46 -42 111
q-6 31 -6 62q0 33 6 66q11 63 35.5 118.5t64.5 90t85 34.5q13 0 28 -2q75 -13 142 -58q38 -25 38 -40q0 -7 -8 -12q-20 -13 -29 -98q-6 -50 -6 -97q0 -35 3 -69q7 -80 27 -80q12 0 25.5 12t20.5 28q5 13 9 16q1 1 3 1q5 0 7 -29v-3q0 -21 -13 -47q-15 -29 -37 -46
q-30 -25 -47 -25h-3q-18 3 -47 42q-17 24 -26 33.5t-21 10.5h-3q-11 0 -21 -7q-11 -9 -34 -30zM268 749q12 28 29.5 48.5t30.5 20.5q19 0 20 -9v-1q0 -9 -17 -35q-17 -27 -17 -45q0 -19 18 -48q19 -29 19 -44v-1q-1 -15 -23 -37q-21 -20 -31 -20q-1 0 -2 1q-10 3 -29 43
q-15 35 -15 61t17 66z" />
    <glyph glyph-name="aacute" unicode="&#xe1;" horiz-adv-x="511" 
d="M136 126q19 -31 61 -31q0 -1 1 -1q40 0 71 31q24 24 25 104v3q0 78 -20 151q-20 74 -48 84q-16 6 -33 6q-6 0 -13 -1q-24 -3 -37 -16q-25 -26 -28 -158v-28q0 -108 21 -144zM224 50q-21 -19 -34 -29t-26 -16q-12 -5 -20 -5h-2q-8 1 -20 10t-22 22t-27 36q-32 46 -42 111
q-6 31 -6 62q0 33 6 66q11 63 35.5 118.5t64.5 90t85 34.5q13 0 28 -2q75 -13 142 -58q38 -25 38 -40q0 -7 -8 -12q-20 -13 -29 -98q-6 -50 -6 -97q0 -35 3 -69q7 -80 27 -80q12 0 25.5 12t20.5 28q5 13 9 16q1 1 3 1q5 0 7 -29v-3q0 -21 -13 -47q-15 -29 -37 -46
q-30 -25 -47 -25h-3q-18 3 -47 42q-17 24 -26 33.5t-21 10.5h-3q-11 0 -21 -7q-11 -9 -34 -30zM216 728q18 34 35 49t49 24q19 6 30 7q5 1 9 1t6 -1q4 -2 5 -12q1 -4 1 -9t-1 -12q-1 -28 -10.5 -37t-41.5 -14q-28 -4 -41 -14t-21 -37q-9 -27 -14 -31q-2 -1 -3 -1h-1
q-6 0 -13 9q-4 3 -5 11v6q0 6 1 15q3 22 15 46z" />
    <glyph glyph-name="acircumflex" unicode="&#xe2;" horiz-adv-x="511" 
d="M136 126q19 -31 61 -31q0 -1 1 -1q40 0 71 31q24 24 25 104v3q0 78 -20 151q-20 74 -48 84q-16 6 -33 6q-6 0 -13 -1q-24 -3 -37 -16q-25 -26 -28 -158v-28q0 -108 21 -144zM224 50q-21 -19 -34 -29t-26 -16q-12 -5 -20 -5h-2q-8 1 -20 10t-22 22t-27 36q-32 46 -42 111
q-6 31 -6 62q0 33 6 66q11 63 35.5 118.5t64.5 90t85 34.5q13 0 28 -2q75 -13 142 -58q38 -25 38 -40q0 -7 -8 -12q-20 -13 -29 -98q-6 -50 -6 -97q0 -35 3 -69q7 -80 27 -80q12 0 25.5 12t20.5 28q5 13 9 16q1 1 3 1q5 0 7 -29v-3q0 -21 -13 -47q-15 -29 -37 -46
q-30 -25 -47 -25h-3q-18 3 -47 42q-17 24 -26 33.5t-21 10.5h-3q-11 0 -21 -7q-11 -9 -34 -30zM293 689q36 -23 95 -80q12 -15 12 -23v-4q-8 -12 -34 -13q-22 0 -34 15q-21 33 -62 75q-8 -13 -20 -26q-30 -36 -45 -49q-8 -8 -23 -12q-8 -2 -16 -2q-7 0 -14 2q-19 3 -19 14
q1 6 19 20q25 19 77 72l5 5t6.5 5.5t6 4.5t7.5 4t9 2q10 0 30 -10z" />
    <glyph glyph-name="atilde" unicode="&#xe3;" horiz-adv-x="511" 
d="M136 126q19 -31 61 -31q0 -1 1 -1q40 0 71 31q24 24 25 104v3q0 78 -20 151q-20 74 -48 84q-16 6 -33 6q-6 0 -13 -1q-24 -3 -37 -16q-25 -26 -28 -158v-28q0 -108 21 -144zM224 50q-21 -19 -34 -29t-26 -16q-12 -5 -20 -5h-2q-8 1 -20 10t-22 22t-27 36q-32 46 -42 111
q-6 31 -6 62q0 33 6 66q11 63 35.5 118.5t64.5 90t85 34.5q13 0 28 -2q75 -13 142 -58q38 -25 38 -40q0 -7 -8 -12q-20 -13 -29 -98q-6 -50 -6 -97q0 -35 3 -69q7 -80 27 -80q12 0 25.5 12t20.5 28q5 13 9 16q1 1 3 1q5 0 7 -29v-3q0 -21 -13 -47q-15 -29 -37 -46
q-30 -25 -47 -25h-3q-18 3 -47 42q-17 24 -26 33.5t-21 10.5h-3q-11 0 -21 -7q-11 -9 -34 -30zM341 544q-72 3 -142 74q-18 18 -31 35q-21 15 -48 15h-14q-35 -5 -35 -29q1 -12 13.5 -26.5t31.5 -26.5q27 -17 27 -24q0 -2 -6 -4q-3 -1 -8 -1h-6q-31 0 -50 27q-18 22 -18 53
q0 6 1 13q5 38 36 60q13 8 29 8q23 0 50 -16q34 -11 86 -59q48 -42 74 -51q10 -4 18 -4q17 0 33 10q38 24 38 63v6l27 -6q0 -56 -30 -87q-28 -30 -72 -30h-4z" />
    <glyph glyph-name="adieresis" unicode="&#xe4;" horiz-adv-x="511" 
d="M136 126q19 -31 61 -31q0 -1 1 -1q40 0 71 31q24 24 25 104v3q0 78 -20 151q-20 74 -48 84q-16 6 -33 6q-6 0 -13 -1q-24 -3 -37 -16q-25 -26 -28 -158v-28q0 -108 21 -144zM224 50q-21 -19 -34 -29t-26 -16q-12 -5 -20 -5h-2q-8 1 -20 10t-22 22t-27 36q-32 46 -42 111
q-6 31 -6 62q0 33 6 66q11 63 35.5 118.5t64.5 90t85 34.5q13 0 28 -2q75 -13 142 -58q38 -25 38 -40q0 -7 -8 -12q-20 -13 -29 -98q-6 -50 -6 -97q0 -35 3 -69q7 -80 27 -80q12 0 25.5 12t20.5 28q5 13 9 16q1 1 3 1q5 0 7 -29v-3q0 -21 -13 -47q-15 -29 -37 -46
q-30 -25 -47 -25h-3q-18 3 -47 42q-17 24 -26 33.5t-21 10.5h-3q-11 0 -21 -7q-11 -9 -34 -30zM398 559q-27 -27 -44 -27q-1 0 -1 1q-18 1 -44 32q-14 18 -14 29q0 2 1 4q3 12 32 27q17 9 34 10h3q16 0 27 -6q11 -7 18 -18q5 -7 5 -17q0 -4 -1 -7q-3 -15 -16 -28zM190 559
q-27 -27 -44 -27q-1 0 -1 1q-18 1 -44 32q-14 18 -14 29q0 2 1 4q3 12 32 27q17 9 34 10h3q16 0 27 -6q11 -7 18 -18q5 -7 5 -17q0 -4 -1 -7q-3 -15 -16 -28z" />
    <glyph glyph-name="aring" unicode="&#xe5;" horiz-adv-x="511" 
d="M136 126q19 -31 61 -31q0 -1 1 -1q40 0 71 31q24 24 25 104v3q0 78 -20 151q-20 74 -48 84q-16 6 -33 6q-6 0 -13 -1q-24 -3 -37 -16q-25 -26 -28 -158v-28q0 -108 21 -144zM224 50q-21 -19 -34 -29t-26 -16q-12 -5 -20 -5h-2q-8 1 -20 10t-22 22t-27 36q-32 46 -42 111
q-6 31 -6 62q0 33 6 66q11 63 35.5 118.5t64.5 90t85 34.5q13 0 28 -2q75 -13 142 -58q38 -25 38 -40q0 -7 -8 -12q-20 -13 -29 -98q-6 -50 -6 -97q0 -35 3 -69q7 -80 27 -80q12 0 25.5 12t20.5 28q5 13 9 16q1 1 3 1q5 0 7 -29v-3q0 -21 -13 -47q-15 -29 -37 -46
q-30 -25 -47 -25h-3q-18 3 -47 42q-17 24 -26 33.5t-21 10.5h-3q-11 0 -21 -7q-11 -9 -34 -30zM265 811h5q59 -1 83 -45q6 -14 6 -30q0 -30 -30 -62q-48 -49 -79 -49h-2q-33 2 -81 60q-25 31 -25 51q0 5 2 8q6 22 57 48q33 18 64 19zM261 758q-16 0 -32 -8q-21 -11 -25 -20
v-5q0 -9 11 -22q21 -25 35 -25q0 -1 1 -1q13 0 35 22q14 14 14 26q0 6 -3 14q-11 19 -36 19z" />
    <glyph glyph-name="ae" unicode="&#xe6;" horiz-adv-x="728" 
d="M136 126q19 -31 61 -31q0 -1 1 -1q40 0 71 31q24 24 25 104v3q0 78 -20 151q-20 74 -48 84q-16 6 -33 6q-6 0 -13 -1q-24 -3 -37 -16q-25 -26 -28 -158v-28q0 -108 21 -144zM444 364q0 -45 34 -53q7 -2 14 -2q30 0 70 25q24 15 25 34v2q0 19 -20 57q-21 40 -37 46
q-3 1 -7 1q-15 0 -35 -17q-18 -15 -31 -42.5t-13 -50.5zM436 35q-5 -5 -10 -9q-30 -25 -47 -25h-3q-18 3 -47 42q-17 24 -26 33.5t-21 10.5h-3q-11 0 -21 -7q-11 -9 -34 -30q-21 -19 -34 -29t-26 -16q-12 -5 -20 -5h-2q-8 1 -20 10t-22 22t-27 36q-32 46 -42 111
q-6 31 -6 62q0 33 6 66q11 63 35.5 118.5t64.5 90t85 34.5q13 0 28 -2q75 -13 142 -58q23 -15 32 -27q14 14 33 31q65 56 99 56q18 0 51.5 -37t60 -84t26.5 -72q0 -5 -36 -23.5t-86 -38.5q-36 -14 -57 -24t-36.5 -21t-19.5 -20q-3 -7 -3 -15q0 -4 1 -9q2 -15 10.5 -29.5
t25.5 -37.5q27 -37 49 -41q3 -1 7 -1q22 0 65 20q22 10 40 15q14 3 23 3h6q11 -2 11 -9q0 -28 -44 -62.5t-97 -52.5q-31 -11 -52 -11q-16 0 -26 6q-17 9 -33 29z" />
    <glyph glyph-name="ccedilla" unicode="&#xe7;" horiz-adv-x="339" 
d="M213 20q-57 -20 -83 -20q-3 0 -5 1q-25 2 -43 31q-42 70 -50 176q-2 23 -2 45q0 80 23 152q28 91 82 122q37 22 56 23h1q17 0 23 -18q3 -12 29 -24.5t40.5 -17t24.5 -7.5l-36 -29q-6 -1 -11 -3q-12 -4 -25 -4q-11 0 -23 3q-28 5 -45 20t-27 15q-4 0 -7 -3
q-10 -11 -13 -65q-4 -62 -4 -112q0 -158 38 -206q13 -17 36 -24q13 -5 24 -5q9 0 17 3q20 7 40 13l36 -29zM173 -77q32 -19 45 -29q36 -25 46 -58q6 -18 6 -37q0 -15 -5 -31q-11 -33 -39 -51q-29 -17 -62 -19h-5q-25 0 -49 14q-25 16 -36 43q-5 13 -5 24q0 8 2 14
q4 19 22 30q11 8 20 8q3 0 7 -1q9 -7 9 -24q0 -5 -1 -27v-13q0 -11 1 -14q5 -6 22 -8h15q26 0 42 10q13 9 13 23v7q-3 23 -27 49q-14 14 -59 42q-41 26 -53 57l-1 3l51 13q15 -10 41 -25z" />
    <glyph glyph-name="egrave" unicode="&#xe8;" horiz-adv-x="386" 
d="M102 364q0 -45 34 -53q7 -2 14 -2q30 0 70 25q24 15 25 34v2q0 19 -20 57q-21 40 -37 46q-3 1 -7 1q-15 0 -35 -17q-18 -15 -31 -42.5t-13 -50.5zM346 126q0 -28 -44 -62.5t-97 -52.5q-31 -11 -52 -11q-16 0 -26 6q-48 26 -82 128q-25 73 -25 130q0 24 4 45q13 74 15 97
q4 31 69.5 87.5t99.5 56.5q18 0 51.5 -37t60 -84t26.5 -72q0 -5 -36 -23.5t-86 -38.5q-36 -14 -57 -24t-36.5 -21t-19.5 -20q-3 -7 -3 -15q0 -4 1 -9q2 -15 10.5 -29.5t25.5 -37.5q27 -37 49 -41q3 -1 7 -1q22 0 65 20q22 10 40 15q14 3 23 3h6q11 -2 11 -9zM168 769
q12 28 29.5 48.5t30.5 20.5q19 0 20 -9v-1q0 -9 -17 -35q-17 -27 -17 -45q0 -19 18 -48q19 -29 19 -44v-1q-1 -15 -23 -37q-21 -20 -31 -20q-1 0 -2 1q-10 3 -29 43q-15 35 -15 61t17 66z" />
    <glyph glyph-name="eacute" unicode="&#xe9;" horiz-adv-x="386" 
d="M102 364q0 -45 34 -53q7 -2 14 -2q30 0 70 25q24 15 25 34v2q0 19 -20 57q-21 40 -37 46q-3 1 -7 1q-15 0 -35 -17q-18 -15 -31 -42.5t-13 -50.5zM346 126q0 -28 -44 -62.5t-97 -52.5q-31 -11 -52 -11q-16 0 -26 6q-48 26 -82 128q-25 73 -25 130q0 24 4 45q13 74 15 97
q4 31 69.5 87.5t99.5 56.5q18 0 51.5 -37t60 -84t26.5 -72q0 -5 -36 -23.5t-86 -38.5q-36 -14 -57 -24t-36.5 -21t-19.5 -20q-3 -7 -3 -15q0 -4 1 -9q2 -15 10.5 -29.5t25.5 -37.5q27 -37 49 -41q3 -1 7 -1q22 0 65 20q22 10 40 15q14 3 23 3h6q11 -2 11 -9zM149 728
q18 34 35 49t49 24q19 6 30 7q5 1 9 1t6 -1q4 -2 5 -12q1 -4 1 -9t-1 -12q-1 -28 -10.5 -37t-41.5 -14q-28 -4 -41 -14t-21 -37q-9 -27 -14 -31q-2 -1 -3 -1h-1q-6 0 -13 9q-4 3 -5 11v6q0 6 1 15q3 22 15 46z" />
    <glyph glyph-name="ecircumflex" unicode="&#xea;" horiz-adv-x="386" 
d="M102 364q0 -45 34 -53q7 -2 14 -2q30 0 70 25q24 15 25 34v2q0 19 -20 57q-21 40 -37 46q-3 1 -7 1q-15 0 -35 -17q-18 -15 -31 -42.5t-13 -50.5zM346 126q0 -28 -44 -62.5t-97 -52.5q-31 -11 -52 -11q-16 0 -26 6q-48 26 -82 128q-25 73 -25 130q0 24 4 45q13 74 15 97
q4 31 69.5 87.5t99.5 56.5q18 0 51.5 -37t60 -84t26.5 -72q0 -5 -36 -23.5t-86 -38.5q-36 -14 -57 -24t-36.5 -21t-19.5 -20q-3 -7 -3 -15q0 -4 1 -9q2 -15 10.5 -29.5t25.5 -37.5q27 -37 49 -41q3 -1 7 -1q22 0 65 20q22 10 40 15q14 3 23 3h6q11 -2 11 -9zM210 641
q36 -23 95 -80q12 -15 12 -23v-4q-8 -12 -34 -13q-22 0 -34 15q-21 33 -62 75q-8 -13 -20 -26q-30 -36 -45 -49q-8 -8 -23 -12q-8 -2 -16 -2q-7 0 -14 2q-19 3 -19 14q1 6 19 20q25 19 77 72l5 5t6.5 5.5t6 4.5t7.5 4t9 2q10 0 30 -10z" />
    <glyph glyph-name="edieresis" unicode="&#xeb;" horiz-adv-x="386" 
d="M102 364q0 -45 34 -53q7 -2 14 -2q30 0 70 25q24 15 25 34v2q0 19 -20 57q-21 40 -37 46q-3 1 -7 1q-15 0 -35 -17q-18 -15 -31 -42.5t-13 -50.5zM346 126q0 -28 -44 -62.5t-97 -52.5q-31 -11 -52 -11q-16 0 -26 6q-48 26 -82 128q-25 73 -25 130q0 24 4 45q13 74 15 97
q4 31 69.5 87.5t99.5 56.5q18 0 51.5 -37t60 -84t26.5 -72q0 -5 -36 -23.5t-86 -38.5q-36 -14 -57 -24t-36.5 -21t-19.5 -20q-3 -7 -3 -15q0 -4 1 -9q2 -15 10.5 -29.5t25.5 -37.5q27 -37 49 -41q3 -1 7 -1q22 0 65 20q22 10 40 15q14 3 23 3h6q11 -2 11 -9zM330 559
q-27 -27 -44 -27q-1 0 -1 1q-18 1 -44 32q-14 18 -14 29q0 2 1 4q3 12 32 27q17 9 34 10h3q16 0 27 -6q11 -7 18 -18q5 -7 5 -17q0 -4 -1 -7q-3 -15 -16 -28zM122 559q-27 -27 -44 -27q-1 0 -1 1q-18 1 -44 32q-14 18 -14 29q0 2 1 4q3 12 32 27q17 9 34 10h3q16 0 27 -6
q11 -7 18 -18q5 -7 5 -17q0 -4 -1 -7q-3 -15 -16 -28z" />
    <glyph glyph-name="igrave" unicode="&#xec;" horiz-adv-x="60" 
d="M255 55q-12 -23 -27 -39t-24 -16h-1q-26 3 -41.5 10.5t-27.5 22.5t-17 46t-7.5 72t-2.5 110q0 95 -5 143q-5 49 -15 49q-4 0 -8 -7q-12 -19 -26 -25q-6 -2 -11 -2q-8 0 -13 5q-4 4 -4 11q0 9 6 23q11 24 35 48q41 41 64 44h4q23 0 74 -26q35 -18 47 -29q8 -7 8 -13
q0 -10 -20 -18q-26 -10 -36 -51.5t-10 -134.5q0 -117 9 -137q3 -7 10 -7q10 0 26 13q21 17 32 17q6 0 10 -5q4 -6 4 -15q0 -28 -33 -89zM-50 650q12 28 29.5 48.5t30.5 20.5q19 0 20 -9v-1q0 -9 -17 -35q-17 -27 -17 -45q0 -19 18 -48q19 -29 19 -44v-1q-1 -15 -23 -37
q-21 -20 -31 -20q-1 0 -2 1q-10 3 -29 43q-15 35 -15 61t17 66z" />
    <glyph glyph-name="iacute" unicode="&#xed;" horiz-adv-x="60" 
d="M255 55q-12 -23 -27 -39t-24 -16h-1q-26 3 -41.5 10.5t-27.5 22.5t-17 46t-7.5 72t-2.5 110q0 95 -5 143q-5 49 -15 49q-4 0 -8 -7q-12 -19 -26 -25q-6 -2 -11 -2q-8 0 -13 5q-4 4 -4 11q0 9 6 23q11 24 35 48q41 41 64 44h4q23 0 74 -26q35 -18 47 -29q8 -7 8 -13
q0 -10 -20 -18q-26 -10 -36 -51.5t-10 -134.5q0 -117 9 -137q3 -7 10 -7q10 0 26 13q21 17 32 17q6 0 10 -5q4 -6 4 -15q0 -28 -33 -89zM-34 728q18 34 35 49t49 24q19 6 30 7q5 1 9 1t6 -1q4 -2 5 -12q1 -4 1 -9t-1 -12q-1 -28 -10.5 -37t-41.5 -14q-28 -4 -41 -14t-21 -37
q-9 -27 -14 -31q-2 -1 -3 -1h-1q-6 0 -13 9q-4 3 -5 11v6q0 6 1 15q3 22 15 46z" />
    <glyph glyph-name="icircumflex" unicode="&#xee;" horiz-adv-x="60" 
d="M256 55q-12 -23 -27 -39t-24 -16h-1q-26 3 -41.5 10.5t-27.5 22.5t-17 46t-7.5 72t-2.5 110q0 95 -5 143q-5 49 -15 49q-4 0 -8 -7q-12 -19 -26 -25q-6 -2 -11 -2q-8 0 -13 5q-4 4 -4 11q0 9 6 23q11 24 35 48q41 41 64 44h4q23 0 74 -26q35 -18 47 -29q8 -7 8 -13
q0 -10 -20 -18q-26 -10 -36 -51.5t-10 -134.5q0 -117 9 -137q3 -7 10 -7q10 0 26 13q21 17 32 17q6 0 10 -5q4 -6 4 -15q0 -28 -33 -89zM188 712q36 -23 95 -80q12 -15 12 -23v-4q-8 -12 -34 -13q-22 0 -34 15q-21 33 -62 75q-8 -13 -20 -26q-30 -36 -45 -49q-8 -8 -23 -12
q-8 -2 -16 -2q-7 0 -14 2q-19 3 -19 14q1 6 19 20q25 19 77 72l5 5t6.5 5.5t6 4.5t7.5 4t9 2q10 0 30 -10z" />
    <glyph glyph-name="idieresis" unicode="&#xef;" horiz-adv-x="60" 
d="M255 55q-12 -23 -27 -39t-24 -16h-1q-26 3 -41.5 10.5t-27.5 22.5t-17 46t-7.5 72t-2.5 110q0 95 -5 143q-5 49 -15 49q-4 0 -8 -7q-12 -19 -26 -25q-6 -2 -11 -2q-8 0 -13 5q-4 4 -4 11q0 9 6 23q11 24 35 48q41 41 64 44h4q23 0 74 -26q35 -18 47 -29q8 -7 8 -13
q0 -10 -20 -18q-26 -10 -36 -51.5t-10 -134.5q0 -117 9 -137q3 -7 10 -7q10 0 26 13q21 17 32 17q6 0 10 -5q4 -6 4 -15q0 -28 -33 -89zM294 645q-27 -27 -44 -27q-1 0 -1 1q-18 1 -44 32q-14 18 -14 29q0 2 1 4q3 12 32 27q17 9 34 10h3q16 0 27 -6q11 -7 18 -18
q5 -7 5 -17q0 -4 -1 -7q-3 -15 -16 -28zM86 645q-27 -27 -44 -27q-1 0 -1 1q-18 1 -44 32q-14 18 -14 29q0 2 1 4q3 12 32 27q17 9 34 10h3q16 0 27 -6q11 -7 18 -18q5 -7 5 -17q0 -4 -1 -7q-3 -15 -16 -28z" />
    <glyph glyph-name="eth" unicode="&#xf0;" horiz-adv-x="490" 
d="M186 106q32 -21 57 -21q21 0 37 15q35 31 42 127q2 25 2 49q0 82 -25 136q-32 69 -94 69q-37 0 -49.5 -25t-14.5 -105q-1 -34 -1 -63q0 -80 7 -115q8 -47 39 -67zM256 549q-6 21 -11 35q-1 5 -2 9q-7 19 -14 36q-9 20 -14.5 27.5t-15.5 11.5q-7 3 -12 3q-3 0 -6 -1
q-5 0 -11 -2q-7 -2 -14 -6l-4 -1q-13 -5 -26 -5q-9 0 -18 3q-21 5 -27 23l-1 1q-2 8 -2 14q0 19 22 26q10 4 25 5q17 1 25 4q9 3 14 11q3 5 3 12q0 4 -1 10q-3 13 -9 36q-3 11 -7 25q-5 14 -11 30l-8 22q-17 51 -17 75q0 14 7 18q1 1 3 1q1 0 3 -1q14 -3 31.5 -27t28.5 -53
q10 -30 37.5 -56.5t55.5 -33.5q65 -17 73 -41q1 -4 1 -7q0 -17 -34 -30q-15 -5 -20 -14q-3 -5 -3 -14q0 -7 2 -17q2 -16 10 -38l5 -16q13 -33 38 -89q27 -57 40 -97q4 -9 6 -18q6 -22 8 -38l-6 3q3 -32 3 -76v-14q-2 -101 -18 -143.5t-68 -88.5q-20 -17 -26 -22.5
t-21.5 -16.5t-18.5 -13.5t-17 -6.5t-16 -4t-18 2.5t-20 5t-24.5 11.5t-29.5 14.5t-37 19.5q-24 14 -42 27q-32 24 -32 38q0 6 6 10q13 8 22.5 61t9.5 119q0 44 0.5 66t5 45.5t9.5 33t19.5 23t29 20.5t44.5 21q54 24 79 30q8 2 16 2z" />
    <glyph glyph-name="ntilde" unicode="&#xf1;" horiz-adv-x="562" 
d="M188 111q8 -14 8 -27q0 -30 -40 -55q-31 -18 -47 -18h-4q-16 3 -34 36q-12 23 -13 50q-1 3 -1 7q0 21 9 34q9 15 17 66t10 107q1 41 1 67t-5 39t-13 16h-6q-7 0 -17 -3q-17 -6 -27 -6h-5q-12 2 -12 14q0 22 40 76q20 28 46 34q7 2 13 2q18 0 31 -14q18 -18 18 -52
q0 -18 9 -30.5t22 -12.5q12 0 20.5 8.5t8.5 20.5q0 11 17 28.5t40 30.5q17 9 42 10h7q59 0 110 -31q33 -20 33 -38q0 -9 -8 -17q-11 -11 -23.5 -61t-19.5 -109q-7 -62 -7 -93q0 -18 3 -25q3 -12 19 -12q11 0 27 5q22 7 35 7h1q18 0 18 -15q0 -26 -56 -97q-37 -47 -53 -52
q-3 -1 -5 -1q-14 0 -30 23q-12 19 -21 91t-9 155q0 55 -2.5 90.5t-8 61.5t-14 37t-22.5 12h-2q-14 0 -31 -9q-18 -10 -44 -30q-26 -19 -40 -80q-11 -48 -11 -101q0 -15 1 -30q4 -69 25 -109zM350 544q-72 3 -142 74q-18 18 -31 35q-21 15 -48 15h-14q-35 -5 -35 -29
q1 -12 13.5 -26.5t31.5 -26.5q27 -17 27 -24q0 -2 -6 -4q-3 -1 -8 -1h-6q-31 0 -50 27q-18 22 -18 53q0 6 1 13q5 38 36 60q13 8 29 8q23 0 50 -16q34 -11 86 -59q48 -42 74 -51q10 -4 18 -4q17 0 33 10q38 24 38 63v6l27 -6q0 -56 -30 -87q-28 -30 -72 -30h-4z" />
    <glyph glyph-name="ograve" unicode="&#xf2;" horiz-adv-x="448" 
d="M186 106q32 -21 57 -21q21 0 37 15q35 31 42 127q2 25 2 49q0 82 -25 136q-32 69 -94 69q-37 0 -49.5 -25t-14.5 -105q-1 -34 -1 -63q0 -80 7 -115q8 -47 39 -67zM317 63q-20 -17 -26 -22.5t-21.5 -16.5t-18.5 -13.5t-17 -6.5t-16 -4t-18 2.5t-20 5t-24.5 11.5
t-29.5 14.5t-37 19.5q-24 14 -42 27q-32 24 -32 38q0 6 6 10q13 8 22.5 61t9.5 119q0 44 0.5 66t5 45.5t9.5 33t19.5 23t29 20.5t44.5 21q54 24 79 30q10 2 20 2q13 0 24 -4q19 -7 53 -34q41 -34 54 -76q12 -39 12 -126v-14q-2 -101 -18 -143.5t-68 -88.5zM223 762
q12 28 29.5 48.5t30.5 20.5q19 0 20 -9v-1q0 -9 -17 -35q-17 -27 -17 -45q0 -19 18 -48q19 -29 19 -44v-1q-1 -15 -23 -37q-21 -20 -31 -20q-1 0 -2 1q-10 3 -29 43q-15 35 -15 61t17 66z" />
    <glyph glyph-name="oacute" unicode="&#xf3;" horiz-adv-x="448" 
d="M186 106q32 -21 57 -21q21 0 37 15q35 31 42 127q2 25 2 49q0 82 -25 136q-32 69 -94 69q-37 0 -49.5 -25t-14.5 -105q-1 -34 -1 -63q0 -80 7 -115q8 -47 39 -67zM317 63q-20 -17 -26 -22.5t-21.5 -16.5t-18.5 -13.5t-17 -6.5t-16 -4t-18 2.5t-20 5t-24.5 11.5
t-29.5 14.5t-37 19.5q-24 14 -42 27q-32 24 -32 38q0 6 6 10q13 8 22.5 61t9.5 119q0 44 0.5 66t5 45.5t9.5 33t19.5 23t29 20.5t44.5 21q54 24 79 30q10 2 20 2q13 0 24 -4q19 -7 53 -34q41 -34 54 -76q12 -39 12 -126v-14q-2 -101 -18 -143.5t-68 -88.5zM175 728
q18 34 35 49t49 24q19 6 30 7q5 1 9 1t6 -1q4 -2 5 -12q1 -4 1 -9t-1 -12q-1 -28 -10.5 -37t-41.5 -14q-28 -4 -41 -14t-21 -37q-9 -27 -14 -31q-2 -1 -3 -1h-1q-6 0 -13 9q-4 3 -5 11v6q0 6 1 15q3 22 15 46z" />
    <glyph glyph-name="ocircumflex" unicode="&#xf4;" horiz-adv-x="448" 
d="M186 106q32 -21 57 -21q21 0 37 15q35 31 42 127q2 25 2 49q0 82 -25 136q-32 69 -94 69q-37 0 -49.5 -25t-14.5 -105q-1 -34 -1 -63q0 -80 7 -115q8 -47 39 -67zM317 63q-20 -17 -26 -22.5t-21.5 -16.5t-18.5 -13.5t-17 -6.5t-16 -4t-18 2.5t-20 5t-24.5 11.5
t-29.5 14.5t-37 19.5q-24 14 -42 27q-32 24 -32 38q0 6 6 10q13 8 22.5 61t9.5 119q0 44 0.5 66t5 45.5t9.5 33t19.5 23t29 20.5t44.5 21q54 24 79 30q10 2 20 2q13 0 24 -4q19 -7 53 -34q41 -34 54 -76q12 -39 12 -126v-14q-2 -101 -18 -143.5t-68 -88.5zM272 728
q36 -23 95 -80q12 -15 12 -23v-4q-8 -12 -34 -13q-22 0 -34 15q-21 33 -62 75q-8 -13 -20 -26q-30 -36 -45 -49q-8 -8 -23 -12q-8 -2 -16 -2q-7 0 -14 2q-19 3 -19 14q1 6 19 20q25 19 77 72l5 5t6.5 5.5t6 4.5t7.5 4t9 2q10 0 30 -10z" />
    <glyph glyph-name="otilde" unicode="&#xf5;" horiz-adv-x="448" 
d="M186 106q32 -21 57 -21q21 0 37 15q35 31 42 127q2 25 2 49q0 82 -25 136q-32 69 -94 69q-37 0 -49.5 -25t-14.5 -105q-1 -34 -1 -63q0 -80 7 -115q8 -47 39 -67zM317 63q-20 -17 -26 -22.5t-21.5 -16.5t-18.5 -13.5t-17 -6.5t-16 -4t-18 2.5t-20 5t-24.5 11.5
t-29.5 14.5t-37 19.5q-24 14 -42 27q-32 24 -32 38q0 6 6 10q13 8 22.5 61t9.5 119q0 44 0.5 66t5 45.5t9.5 33t19.5 23t29 20.5t44.5 21q54 24 79 30q10 2 20 2q13 0 24 -4q19 -7 53 -34q41 -34 54 -76q12 -39 12 -126v-14q-2 -101 -18 -143.5t-68 -88.5zM331 599
q-72 3 -142 74q-18 18 -31 35q-21 15 -48 15h-14q-35 -5 -35 -29q1 -12 13.5 -26.5t31.5 -26.5q27 -17 27 -24q0 -2 -6 -4q-3 -1 -8 -1h-6q-31 0 -50 27q-18 22 -18 53q0 6 1 13q5 38 36 60q13 8 29 8q23 0 50 -16q34 -11 86 -59q48 -42 74 -51q10 -4 18 -4q17 0 33 10
q38 24 38 63v6l27 -6q0 -56 -30 -87q-28 -30 -72 -30h-4z" />
    <glyph glyph-name="odieresis" unicode="&#xf6;" horiz-adv-x="448" 
d="M186 106q32 -21 57 -21q21 0 37 15q35 31 42 127q2 25 2 49q0 82 -25 136q-32 69 -94 69q-37 0 -49.5 -25t-14.5 -105q-1 -34 -1 -63q0 -80 7 -115q8 -47 39 -67zM317 63q-20 -17 -26 -22.5t-21.5 -16.5t-18.5 -13.5t-17 -6.5t-16 -4t-18 2.5t-20 5t-24.5 11.5
t-29.5 14.5t-37 19.5q-24 14 -42 27q-32 24 -32 38q0 6 6 10q13 8 22.5 61t9.5 119q0 44 0.5 66t5 45.5t9.5 33t19.5 23t29 20.5t44.5 21q54 24 79 30q10 2 20 2q13 0 24 -4q19 -7 53 -34q41 -34 54 -76q12 -39 12 -126v-14q-2 -101 -18 -143.5t-68 -88.5zM401 639
q-27 -27 -44 -27q-1 0 -1 1q-18 1 -44 32q-14 18 -14 29q0 2 1 4q3 12 32 27q17 9 34 10h3q16 0 27 -6q11 -7 18 -18q5 -7 5 -17q0 -4 -1 -7q-3 -15 -16 -28zM193 639q-27 -27 -44 -27q-1 0 -1 1q-18 1 -44 32q-14 18 -14 29q0 2 1 4q3 12 32 27q17 9 34 10h3q16 0 27 -6
q11 -7 18 -18q5 -7 5 -17q0 -4 -1 -7q-3 -15 -16 -28z" />
    <glyph glyph-name="divide" unicode="&#xf7;" horiz-adv-x="60" 
d="M291 303q-38 -2 -62 -3q-16 -1 -30 -1q-8 0 -14 1q-20 0 -30.5 2t-18 7.5t-10 12t-3.5 16.5q-1 5 -1 8q0 21 12 26q5 2 15 2q16 0 44 -5q63 -12 137 -12h52q73 0 73 -15v-1q-4 -17 -88 -30q-35 -6 -76 -8zM455 283q-34 -34 -56 -34q-1 0 -2 1q-23 1 -56 41q-18 22 -18 36
q0 3 1 6q4 15 40 34q22 12 45 13h4q20 0 34 -8q15 -9 24 -22q6 -10 6 -22q0 -5 -1 -10q-4 -18 -21 -35zM458 536q-44 -28 -67 -28q-1 0 -1 1q-23 0 -41 29q-5 8 -5 20q0 8 3 17q5 23 21 42q26 31 40 31h1q14 -1 46.5 -33.5t33.5 -45.5q0 -13 -31 -33z" />
    <glyph glyph-name="oslash" unicode="&#xf8;" horiz-adv-x="448" 
d="M377 466q9 -15 14 -31q12 -39 12 -126v-14q-2 -101 -18 -143.5t-68 -88.5q-20 -17 -26 -22.5t-21.5 -16.5t-18.5 -13.5t-17 -6.5t-16 -4t-18 2.5t-20 5t-24.5 11.5t-29.5 15h-1q-7 -11 -14 -21q-60 -91 -73 -94h-2v9q7 26 58 122q-2 2 -5 3q-24 14 -42 27q-32 24 -32 38
q0 6 6 10q13 8 22.5 61t9.5 119q0 44 0.5 66t5 45.5t9.5 33t19.5 23t29 20.5t44.5 21q54 24 79 30q10 2 20 2q13 0 24 -4q18 -7 50 -31q33 69 49 90q9 12 18 15h4q8 0 15 -7q6 -6 8 -14v-5q0 -7 -2 -17l-1 -5q-6 -18 -16 -41q-11 -23 -32 -64zM151 154q39 69 82 154
q34 67 59 118q-32 55 -87 55q-37 0 -49.5 -25t-14.5 -105q-1 -34 -1 -63q0 -80 7 -115q2 -10 4 -19zM317 357q-27 -46 -65 -113q-41 -71 -77 -130q5 -4 11 -8q32 -21 57 -21q21 0 37 15q35 31 42 127q2 25 2 49q0 45 -7 81z" />
    <glyph glyph-name="ugrave" unicode="&#xf9;" horiz-adv-x="565" 
d="M237 54q-51 -45 -83 -45v1q-32 0 -89 48q-36 30 -36 46q0 11 15 16q18 7 29 51.5t13 114.5q1 24 1 43t-1 33q-1 27 -6 43.5t-13 18.5q-3 1 -7 1q-7 0 -16 -3q-15 -5 -25 -6h-3q-15 0 -15 12q0 21 46 79q14 18 19.5 25t14.5 13t12 6t11.5 -6.5t14.5 -14t19 -25.5
q34 -45 34 -136q0 -30 -4 -65q-4 -37 -4 -73q0 -21 2 -41q3 -57 14 -78q11 -20 16.5 -27.5t16.5 -7.5q10 0 21 8t35 28q36 31 48 74q10 37 10 109v25q-1 19 -1 36q0 80 12 126q13 53 37 53q13 0 31 -19q15 -16 21 -79q2 -28 2 -61q0 -41 -4 -91q-1 -6 -1 -11q-5 -70 -5 -110
t5 -51q5 -9 19 -9q9 0 24 5q28 9 36 9h2q1 -1 1 -2q0 -9 -29 -46q-47 -58 -55 -70q-1 -1 -4 -1q-6 0 -20 9q-20 13 -44 37q-42 39 -59 41h-2q-18 0 -56 -33zM204 650q12 28 29.5 48.5t30.5 20.5q19 0 20 -9v-1q0 -9 -17 -35q-17 -27 -17 -45q0 -19 18 -48q19 -29 19 -44v-1
q-1 -15 -23 -37q-21 -20 -31 -20q-1 0 -2 1q-10 3 -29 43q-15 35 -15 61t17 66z" />
    <glyph glyph-name="uacute" unicode="&#xfa;" horiz-adv-x="565" 
d="M237 54q-51 -45 -83 -45v1q-32 0 -89 48q-36 30 -36 46q0 11 15 16q18 7 29 51.5t13 114.5q1 24 1 43t-1 33q-1 27 -6 43.5t-13 18.5q-3 1 -7 1q-7 0 -16 -3q-15 -5 -25 -6h-3q-15 0 -15 12q0 21 46 79q14 18 19.5 25t14.5 13t12 6t11.5 -6.5t14.5 -14t19 -25.5
q34 -45 34 -136q0 -30 -4 -65q-4 -37 -4 -73q0 -21 2 -41q3 -57 14 -78q11 -20 16.5 -27.5t16.5 -7.5q10 0 21 8t35 28q36 31 48 74q10 37 10 109v25q-1 19 -1 36q0 80 12 126q13 53 37 53q13 0 31 -19q15 -16 21 -79q2 -28 2 -61q0 -41 -4 -91q-1 -6 -1 -11q-5 -70 -5 -110
t5 -51q5 -9 19 -9q9 0 24 5q28 9 36 9h2q1 -1 1 -2q0 -9 -29 -46q-47 -58 -55 -70q-1 -1 -4 -1q-6 0 -20 9q-20 13 -44 37q-42 39 -59 41h-2q-18 0 -56 -33zM219 728q18 34 35 49t49 24q19 6 30 7q5 1 9 1t6 -1q4 -2 5 -12q1 -4 1 -9t-1 -12q-1 -28 -10.5 -37t-41.5 -14
q-28 -4 -41 -14t-21 -37q-9 -27 -14 -31q-2 -1 -3 -1h-1q-6 0 -13 9q-4 3 -5 11v6q0 6 1 15q3 22 15 46z" />
    <glyph glyph-name="ucircumflex" unicode="&#xfb;" horiz-adv-x="565" 
d="M237 54q-51 -45 -83 -45v1q-32 0 -89 48q-36 30 -36 46q0 11 15 16q18 7 29 51.5t13 114.5q1 24 1 43t-1 33q-1 27 -6 43.5t-13 18.5q-3 1 -7 1q-7 0 -16 -3q-15 -5 -25 -6h-3q-15 0 -15 12q0 21 46 79q14 18 19.5 25t14.5 13t12 6t11.5 -6.5t14.5 -14t19 -25.5
q34 -45 34 -136q0 -30 -4 -65q-4 -37 -4 -73q0 -21 2 -41q3 -57 14 -78q11 -20 16.5 -27.5t16.5 -7.5q10 0 21 8t35 28q36 31 48 74q10 37 10 109v25q-1 19 -1 36q0 80 12 126q13 53 37 53q13 0 31 -19q15 -16 21 -79q2 -28 2 -61q0 -41 -4 -91q-1 -6 -1 -11q-5 -70 -5 -110
t5 -51q5 -9 19 -9q9 0 24 5q28 9 36 9h2q1 -1 1 -2q0 -9 -29 -46q-47 -58 -55 -70q-1 -1 -4 -1q-6 0 -20 9q-20 13 -44 37q-42 39 -59 41h-2q-18 0 -56 -33zM251 721q36 -23 95 -80q12 -15 12 -23v-4q-8 -12 -34 -13q-22 0 -34 15q-21 33 -62 75q-8 -13 -20 -26
q-30 -36 -45 -49q-8 -8 -23 -12q-8 -2 -16 -2q-7 0 -14 2q-19 3 -19 14q1 6 19 20q25 19 77 72l5 5t6.5 5.5t6 4.5t7.5 4t9 2q10 0 30 -10z" />
    <glyph glyph-name="udieresis" unicode="&#xfc;" horiz-adv-x="565" 
d="M237 54q-51 -45 -83 -45v1q-32 0 -89 48q-36 30 -36 46q0 11 15 16q18 7 29 51.5t13 114.5q1 24 1 43t-1 33q-1 27 -6 43.5t-13 18.5q-3 1 -7 1q-7 0 -16 -3q-15 -5 -25 -6h-3q-15 0 -15 12q0 21 46 79q14 18 19.5 25t14.5 13t12 6t11.5 -6.5t14.5 -14t19 -25.5
q34 -45 34 -136q0 -30 -4 -65q-4 -37 -4 -73q0 -21 2 -41q3 -57 14 -78q11 -20 16.5 -27.5t16.5 -7.5q10 0 21 8t35 28q36 31 48 74q10 37 10 109v25q-1 19 -1 36q0 80 12 126q13 53 37 53q13 0 31 -19q15 -16 21 -79q2 -28 2 -61q0 -41 -4 -91q-1 -6 -1 -11q-5 -70 -5 -110
t5 -51q5 -9 19 -9q9 0 24 5q28 9 36 9h2q1 -1 1 -2q0 -9 -29 -46q-47 -58 -55 -70q-1 -1 -4 -1q-6 0 -20 9q-20 13 -44 37q-42 39 -59 41h-2q-18 0 -56 -33zM398 636q-27 -27 -44 -27q-1 0 -1 1q-18 1 -44 32q-14 18 -14 29q0 2 1 4q3 12 32 27q17 9 34 10h3q16 0 27 -6
q11 -7 18 -18q5 -7 5 -17q0 -4 -1 -7q-3 -15 -16 -28zM190 636q-27 -27 -44 -27q-1 0 -1 1q-18 1 -44 32q-14 18 -14 29q0 2 1 4q3 12 32 27q17 9 34 10h3q16 0 27 -6q11 -7 18 -18q5 -7 5 -17q0 -4 -1 -7q-3 -15 -16 -28z" />
    <glyph glyph-name="yacute" unicode="&#xfd;" horiz-adv-x="468" 
d="M338 550q16 -6 31 -13q65 -31 69 -55v-3q0 -14 -33 -14q-21 0 -28 -90q-4 -41 -4 -83q0 -52 5 -105q9 -98 30 -118q19 -19 19 -53q0 -19 -6 -42q-17 -66 -67 -117q-34 -33 -96 -43q-25 -5 -49 -5q-36 0 -70 10q-57 15 -75 50q-16 29 -16 49q0 3 1 6q2 21 26 40
q17 14 35 15h3q16 0 25 -9q10 -11 13 -27q1 -4 1 -7q0 -14 -11 -30q-2 -4 -2 -8q0 -9 10 -18q14 -15 43 -24q21 -7 38 -7q15 0 28 5q28 11 59 49q19 24 28.5 36.5t16.5 27.5t7 24q0 8 -5.5 22.5t-13.5 26.5t-25 35q-30 38 -49 43h-7q-19 0 -52 -20q-45 -28 -69 -33
q-6 -1 -12 -1q-17 0 -30 12q-18 16 -39 63q-37 82 -37 163q0 20 3 41q11 101 77 167l10 10t6.5 5t4.5 3q1 0 4 -3q2 -3 2.5 -6t3 -10.5l4.5 -13.5q-24 -40 -30 -145q-2 -27 -2 -51q0 -68 14 -107q8 -22 17 -37q22 -37 47 -37q15 0 31 14q51 47 69 197q9 69 9 106q0 24 -4 35
zM200 728q18 34 35 49t49 24q19 6 30 7q5 1 9 1t6 -1q4 -2 5 -12q1 -4 1 -9t-1 -12q-1 -28 -10.5 -37t-41.5 -14q-28 -4 -41 -14t-21 -37q-9 -27 -14 -31q-2 -1 -3 -1h-1q-6 0 -13 9q-4 3 -5 11v6q0 6 1 15q3 22 15 46z" />
    <glyph glyph-name="thorn" unicode="&#xfe;" horiz-adv-x="485" 
d="M154 422l13 -20l55 57q22 24 45 40.5t33 16.5q21 0 47 -47.5t44 -114.5q16 -63 16 -113v-6q-2 -60 -35.5 -120t-81.5 -92q-34 -24 -65 -24q-12 0 -23 4t-18 5h-3q-2 -2 -4 -3q-5 -4 -13 -5q-2 -2 -2 -5q-3 -7 -4 -22q-2 -11 -2 -25q0 -5 1 -9q0 -20 2 -50q1 -20 1 -36
q0 -37 -4 -60q-7 -35 -22 -35q-13 0 -23.5 17.5t-11.5 42.5q-2 58 -8.5 87.5t-8.5 91.5q-1 32 -14 43q-1 1 -3 2t-5 3q-4 1 -8 1q-8 0 -17 -3q-11 -4 -20 -4q-6 0 -11 2q-13 4 -13 15q0 1 1 1q0 12 13.5 25t31.5 20q11 4 20 15q3 14 5 35q2 30 2 72v26q-1 60 -6 161
q-4 89 -4 154q0 44 2 77q2 56 9 56q1 0 3 -2q13 -20 28 -20q1 0 3 1q17 2 50 33q24 21 54 37q28 14 46 14h2q17 0 17 -9q0 -14 -41 -48q-42 -35 -55 -87q-14 -52 -18 -195zM162 107q6 -12 20 -12q9 0 21 5q18 6 24 6h2q5 -1 5 -7q0 -7 -6 -21h18q38 0 54 13q17 14 19 51
q4 46 4 84q0 65 -11 108q-18 76 -62 76q-19 0 -42 -14q-30 -18 -40 -54q-10 -33 -10 -99v-13q2 -90 4 -123z" />
    <glyph glyph-name="ydieresis" unicode="&#xff;" horiz-adv-x="468" 
d="M338 550q16 -6 31 -13q65 -31 69 -55v-3q0 -14 -33 -14q-21 0 -28 -90q-4 -41 -4 -83q0 -52 5 -105q9 -98 30 -118q19 -19 19 -53q0 -19 -6 -42q-17 -66 -67 -117q-34 -33 -96 -43q-25 -5 -49 -5q-36 0 -70 10q-57 15 -75 50q-16 29 -16 49q0 3 1 6q2 21 26 40
q17 14 35 15h3q16 0 25 -9q10 -11 13 -27q1 -4 1 -7q0 -14 -11 -30q-2 -4 -2 -8q0 -9 10 -18q14 -15 43 -24q21 -7 38 -7q15 0 28 5q28 11 59 49q19 24 28.5 36.5t16.5 27.5t7 24q0 8 -5.5 22.5t-13.5 26.5t-25 35q-30 38 -49 43h-7q-19 0 -52 -20q-45 -28 -69 -33
q-6 -1 -12 -1q-17 0 -30 12q-18 16 -39 63q-37 82 -37 163q0 20 3 41q11 101 77 167l10 10t6.5 5t4.5 3q1 0 4 -3q2 -3 2.5 -6t3 -10.5l4.5 -13.5q-24 -40 -30 -145q-2 -27 -2 -51q0 -68 14 -107q8 -22 17 -37q22 -37 47 -37q15 0 31 14q51 47 69 197q9 69 9 106q0 24 -4 35
zM381 649q-27 -27 -44 -27q-1 0 -1 1q-18 1 -44 32q-14 18 -14 29q0 2 1 4q3 12 32 27q17 9 34 10h3q16 0 27 -6q11 -7 18 -18q5 -7 5 -17q0 -4 -1 -7q-3 -15 -16 -28zM173 649q-27 -27 -44 -27q-1 0 -1 1q-18 1 -44 32q-14 18 -14 29q0 2 1 4q3 12 32 27q17 9 34 10h3
q16 0 27 -6q11 -7 18 -18q5 -7 5 -17q0 -4 -1 -7q-3 -15 -16 -28z" />
    <glyph glyph-name="Aogonek" unicode="&#x104;" 
d="M442 791q-28 -1 -71 -23q-60 -28 -60 -48q0 -2 1 -3q5 -21 101 -113q95 -89 124 -201q40 -13 79 -33q25 -13 52 -26q0 29 -2 56q-2 116 -11 172t-29.5 90.5t-67.5 70.5q-74 58 -116 58zM345 357q-30 0 -56 -11q-30 -13 -44 -44q-11 -22 -11 -43q0 -9 3 -17q6 -29 33 -37
q36 -11 96 -32q8 -3 11 -4q25 55 35 129l4 46q-40 13 -71 13zM186 280q-74 -65 -74 -122v-8q6 -61 95 -89q17 -5 35 -5q26 0 50 12q40 22 71 72h-6q-22 0 -52 10q-35 10 -62 26q-42 27 -53 48q-7 13 -7 30q0 11 3 26zM867 851q8 -9 17 -19q62 -71 62 -107q0 -13 -9 -13
q-13 0 -42 24q-40 34 -64 34q-13 0 -22 -10q-22 -30 -22 -194q0 -48 2 -109q1 -77 4 -125q9 15 9 34q1 21 10 36.5t22 15.5q28 -1 28 -30v-2q-3 -50 -62 -101l-4 -3q7 -96 26 -133t68 -64q37 -23 56 -45q11 -15 11 -24q0 -6 -4 -10q-6 -4 -16 -4q-16 0 -40 8q-43 13 -94 43
q-43 27 -65.5 39t-37.5 14h-8q-11 0 -17 -6q-9 -9 -16 -30q-10 -24 -24 -34q-9 -5 -16 -5q-6 0 -12 5q-7 5 -7 16q0 5 2 13q5 19 24 36q28 25 38 148q-9 3 -18 4q-79 25 -99 34q-7 -72 -43 -136q-45 -77 -94.5 -105.5t-147.5 -30.5h-12q-79 0 -125 35q-50 36 -86 130
q-9 23 -9 44q0 23 10 44q20 39 95 102l127 109l-97 31q-23 8 -39 15q-23 11 -23 16q0 4 12 4q16 1 30 1q78 0 117 -33q29 -28 29 -67q0 -19 -8 -41q51 23 116 23h13q-28 204 -231 281q-116 46 -116 85h1q0 38 117 41q40 1 76 12.5t45 26.5q23 34 51 34q8 0 15 -3
q37 -10 132 -84l118 -89l85 99l85 99zM841 -97q-1 9 -1 17q0 17 4 32q2 12 6 19t9 9q8 4 13 4q2 0 4 -1q1 0 2 -2q3 -4 3 -18q0 -7 -1 -16v-11q0 -20 6 -31q8 -14 35 -28q28 -16 34 -28q2 -5 2 -12q0 -10 -5 -26q-3 -12 -7 -19q-5 -9 -11 -10q-4 0 -14 5q-10 6 -26 17
q-27 21 -38 41t-15 58z" />
    <glyph glyph-name="aogonek" unicode="&#x105;" horiz-adv-x="511" 
d="M136 126q19 -31 61 -31q0 -1 1 -1q40 0 71 31q24 24 25 104v3q0 78 -20 151q-20 74 -48 84q-16 6 -33 6q-6 0 -13 -1q-24 -3 -37 -16q-25 -26 -28 -158v-28q0 -108 21 -144zM224 50q-21 -19 -34 -29t-26 -16q-12 -5 -20 -5h-2q-8 1 -20 10t-22 22t-27 36q-32 46 -42 111
q-6 31 -6 62q0 33 6 66q11 63 35.5 118.5t64.5 90t85 34.5q13 0 28 -2q75 -13 142 -58q38 -25 38 -40q0 -7 -8 -12q-20 -13 -29 -98q-6 -50 -6 -97q0 -35 3 -69q7 -80 27 -80q12 0 25.5 12t20.5 28q5 13 9 16q1 1 3 1q5 0 7 -29v-3q0 -21 -13 -47q-15 -29 -37 -46
q-30 -25 -47 -25h-3q-18 3 -47 42q-17 24 -26 33.5t-21 10.5h-3q-11 0 -21 -7q-11 -9 -34 -30zM359 -97q-1 9 -1 17q0 17 4 32q2 12 6 19t9 9q8 4 13 4q2 0 4 -1q1 0 2 -2q3 -4 3 -18q0 -7 -1 -16v-11q0 -20 6 -31q8 -14 35 -28q28 -16 34 -28q2 -5 2 -12q0 -10 -5 -26
q-3 -12 -7 -19q-5 -9 -11 -10q-4 0 -14 5q-10 6 -26 17q-27 21 -38 41t-15 58z" />
    <glyph glyph-name="Cacute" unicode="&#x106;" horiz-adv-x="1100" 
d="M191 844q75 60 180 79q42 7 84 7q62 0 121 -16q99 -27 162 -92q38 -41 88 -53q20 -6 39 -6q26 0 48 11q36 19 36 61q0 31 12 52t29 21q34 0 41 -35q1 -9 1 -19q0 -27 -16 -62q-21 -47 -60 -77q-33 -26 -56 -37.5t-51 -16.5q-8 -2 -18 -2q-22 0 -48 7q-39 11 -85 29.5
t-125 54.5q-131 60 -189 70q-17 3 -33 3q-43 0 -89 -19q-104 -40 -148 -130q-31 -59 -31 -126q0 -35 9 -71q23 -108 111 -196q186 -146 384 -177q52 -9 97 -9q108 0 178 49q65 47 65 116q0 34 -14 72q-69 51 -69 61q0 8 51 8q71 0 116.5 -32t55.5 -79q3 -14 3 -29
q0 -36 -18 -79q-26 -59 -86 -108q-63 -53 -216 -69q-50 -5 -96 -5q-96 0 -172 23q-39 11 -72 23t-80 33t-84 45.5t-77.5 61t-68.5 78t-47 97t-22 119.5q-1 18 -1 36q0 102 32 173q34 81 129 155zM779 1050q18 34 35 49t49 24q19 6 30 7q5 1 9 1t6 -1q4 -2 5 -12q1 -4 1 -9
t-1 -12q-1 -28 -10.5 -37t-41.5 -14q-28 -4 -41 -14t-21 -37q-9 -27 -14 -31q-2 -1 -3 -1h-1q-6 0 -13 9q-4 3 -5 11v6q0 6 1 15q3 22 15 46z" />
    <glyph glyph-name="cacute" unicode="&#x107;" horiz-adv-x="339" 
d="M213 20q-57 -20 -83 -20q-3 0 -5 1q-25 2 -43 31q-42 70 -50 176q-2 23 -2 45q0 80 23 152q28 91 82 122q37 22 56 23h1q17 0 23 -18q3 -12 29 -24.5t40.5 -17t24.5 -7.5l-36 -29q-6 -1 -11 -3q-12 -4 -25 -4q-11 0 -23 3q-28 5 -45 20t-27 15q-4 0 -7 -3
q-10 -11 -13 -65q-4 -62 -4 -112q0 -158 38 -206q13 -17 36 -24q13 -5 24 -5q9 0 17 3q20 7 40 13l36 -29zM199 680q18 34 35 49t49 24q19 6 30 7q5 1 9 1t6 -1q4 -2 5 -12q1 -4 1 -9t-1 -12q-1 -28 -10.5 -37t-41.5 -14q-28 -4 -41 -14t-21 -37q-9 -27 -14 -31q-2 -1 -3 -1
h-1q-6 0 -13 9q-4 3 -5 11v6q0 6 1 15q3 22 15 46z" />
    <glyph glyph-name="Eogonek" unicode="&#x118;" horiz-adv-x="848" 
d="M808 628q5 -14 5 -30q0 -10 -1 -20q-7 -29 -26 -45q-26 -23 -36 -23v1q-10 0 -10 24q0 18 -25 30.5t-61 12.5q-54 0 -60 10q-1 1 -1 4q0 11 26 38q49 52 107 52h1q58 -1 81 -54zM570 267q-40 -34 -128 -40q-17 -3 -32 -3q-62 0 -89 24q-12 10 -17 44q-6 27 -6 57v14l4 91
l29 -88q13 -42 41 -65t66 -23q57 0 77 29q10 14 10 32q0 21 -10 46q-20 49 -77 106q-83 83 -98 168q-5 18 -5 34q0 57 46 82q16 8 23 8h3q2 -1 2 -5q0 -5 -6 -15q-3 -3 -3 -11q0 -17 20 -53q28 -50 78 -105q95 -104 114 -189q4 -20 4 -39q0 -59 -46 -99zM720 126
q-85 -89 -179 -113q-42 -11 -92 -11q-63 0 -138 16q-113 27 -172 73t-84 131.5t-25 238.5q0 82 2 125t7 80t20.5 59.5t33.5 41t54 44.5q73 57 132 69q32 8 88 8q45 0 104 -5q49 -4 92 -4q40 0 75 4q73 6 99 25q30 22 40 22h2q3 -1 3 -6q0 -9 -8 -26q-37 -98 -165 -98
q-65 0 -154 25q-46 14 -70 20t-50 10q-20 1 -30 1h-9q-11 -1 -28.5 -10t-28 -20t-30.5 -34q-47 -49 -65 -155q-13 -66 -13 -133q0 -44 6 -91q13 -116 56 -189q34 -56 96 -90.5t134 -38.5q15 -1 30 -1q57 0 111 12q71 15 129 59t87 105q22 48 30 48t8 -29v-2q0 -25 -28 -70
q-28 -48 -70 -91zM624 -72q-1 9 -1 17q0 17 4 32q2 12 6 19t9 9q8 4 13 4q2 0 4 -1q1 0 2 -2q3 -4 3 -18q0 -7 -1 -16v-11q0 -20 6 -31q8 -14 35 -28q28 -16 34 -28q2 -5 2 -12q0 -10 -5 -26q-3 -12 -7 -19q-5 -9 -11 -10q-4 0 -14 5q-10 6 -26 17q-27 21 -38 41t-15 58z
" />
    <glyph glyph-name="eogonek" unicode="&#x119;" horiz-adv-x="386" 
d="M102 364q0 -45 34 -53q7 -2 14 -2q30 0 70 25q24 15 25 34v2q0 19 -20 57q-21 40 -37 46q-3 1 -7 1q-15 0 -35 -17q-18 -15 -31 -42.5t-13 -50.5zM346 126q0 -28 -44 -62.5t-97 -52.5q-31 -11 -52 -11q-16 0 -26 6q-48 26 -82 128q-25 73 -25 130q0 24 4 45q13 74 15 97
q4 31 69.5 87.5t99.5 56.5q18 0 51.5 -37t60 -84t26.5 -72q0 -5 -36 -23.5t-86 -38.5q-36 -14 -57 -24t-36.5 -21t-19.5 -20q-3 -7 -3 -15q0 -4 1 -9q2 -15 10.5 -29.5t25.5 -37.5q27 -37 49 -41q3 -1 7 -1q22 0 65 20q22 10 40 15q14 3 23 3h6q11 -2 11 -9zM236 -83
q-1 9 -1 17q0 17 4 32q2 12 6 19t9 9q8 4 13 4q2 0 4 -1q1 0 2 -2q3 -4 3 -18q0 -7 -1 -16v-11q0 -20 6 -31q8 -14 35 -28q28 -16 34 -28q2 -5 2 -12q0 -10 -5 -26q-3 -12 -7 -19q-5 -9 -11 -10q-4 0 -14 5q-10 6 -26 17q-27 21 -38 41t-15 58z" />
    <glyph glyph-name="dotlessi" unicode="&#x131;" horiz-adv-x="323" 
d="M255 55q-12 -23 -27 -39t-24 -16h-1q-26 3 -41.5 10.5t-27.5 22.5t-17 46t-7.5 72t-2.5 110q0 95 -5 143q-5 49 -15 49q-4 0 -8 -7q-12 -19 -26 -25q-6 -2 -11 -2q-8 0 -13 5q-4 4 -4 11q0 9 6 23q11 24 35 48q41 41 64 44h4q23 0 74 -26q35 -18 47 -29q8 -7 8 -13
q0 -10 -20 -18q-26 -10 -36 -51.5t-10 -134.5q0 -117 9 -137q3 -7 10 -7q10 0 26 13q21 17 32 17q6 0 10 -5q4 -6 4 -15q0 -28 -33 -89z" />
    <glyph glyph-name="kgreenlandic" unicode="&#x138;" horiz-adv-x="518" 
d="M405 -225q-32 -12 -66 -12q-25 0 -51 7q-60 16 -89 59q-9 14 -9 30q0 7 1 14q5 24 20 46.5t41 39.5t53 21q58 8 77 60q8 23 8 54q0 37 -12 85q-9 36 -35.5 56.5t-55.5 22.5h-5q-27 0 -52 -17q-27 -19 -36 -54q-8 -32 -8 -55q0 -25 9 -40q8 -14 20 -14q13 0 31 18
q14 14 26 23q19 14 29 14q7 0 9 -8q1 -2 1 -5q0 -22 -40 -64q-45 -48 -71 -55q-6 -2 -13 -2q-24 0 -62 18q-8 4 -15 8q-57 30 -61 55v2q0 17 31 17q13 0 22 49t9 119q1 17 1 30q0 39 -9 39q-3 0 -6 -3q-12 -10 -24 -10q-7 0 -14 3q-24 10 -29 17q-3 3 -3 6q0 5 7 12
q9 11 41 33q28 20 47.5 55.5t19.5 67.5q0 36 6 56q6 23 15 23q6 0 13 -9q28 -34 35 -137l9 -15l83 65q83 66 98 66t24 -40q6 -28 6 -59q0 -13 -1 -26q-4 -46 -18 -61q-31 -31 -54 -31h-2q-20 1 -20 24q0 6 1 14v5q0 13 -13 23q-16 11 -41 11q-30 0 -49 -17.5t-23 -47.5
q-2 -11 -2 -20q0 -23 12 -32q16 -13 74 -13q78 0 134 -37t56 -90q0 -19 -20 -68t-48 -99q-38 -68 -65 -91q-20 -16 -41 -16q-9 0 -19 3q-16 5 -27 5q-9 0 -15 -3q-14 -9 -14 -36q0 -31 22 -39q12 -4 36 -4q21 0 51 3q9 1 17 2q22 2 38 2q49 0 53 -16v-3q0 -15 -48 -34z" />
    <glyph glyph-name="Sacute" unicode="&#x15a;" horiz-adv-x="1094" 
d="M774 37q-131 -34 -239 -34q-77 0 -144 18q-159 42 -263 188q-69 99 -89 215q-9 49 -9 96q0 64 16 120q27 99 99 174.5t174 96.5q93 19 162 19q24 0 46 -1q82 -10 196 -62q111 -50 165 -50q58 0 58 53q0 22 12 38.5t30 16.5q20 0 20 -20q0 -21 -22 -65q-27 -50 -95 -76
q-52 -20 -111 -20q-18 0 -39 3q-82 7 -148 48q-69 41 -141 52q-26 3 -49 3q-46 0 -88 -13q-63 -21 -113.5 -63.5t-80 -110t-29.5 -147.5q0 -207 176 -301q122 -68 311 -68q79 0 171 13q118 16 162.5 42t79.5 97q33 69 33 99v6q-4 28 -58 62q-73 46 -142 46h-4
q-72 -1 -173 -51q-108 -54 -208 -57h-10q-92 0 -149 46q-61 46 -61 129q0 42 43 76t103 44q20 3 41 3q39 0 78 -12q10 -3 12 -7v-3q0 -10 -75 -12q-48 -1 -84.5 -17.5t-54.5 -39.5q-15 -20 -15 -42q0 -5 1 -9q3 -29 30 -53q19 -17 52 -17q13 0 27 2q52 9 156 54
q153 67 236 78q16 1 30 1q58 0 82 -35q12 -15 31 -20q7 -3 14 -3q10 0 20 5q9 6 18 6q20 0 43 -26q30 -36 46 -99q10 -40 10 -77q0 -21 -3 -41q-23 -123 -91.5 -194.5t-195.5 -103.5zM513 1108q18 34 35 49t49 24q19 6 30 7q5 1 9 1t6 -1q4 -2 5 -12q1 -4 1 -9t-1 -12
q-1 -28 -10.5 -37t-41.5 -14q-28 -4 -41 -14t-21 -37q-9 -27 -14 -31q-2 -1 -3 -1h-1q-6 0 -13 9q-4 3 -5 11v6q0 6 1 15q3 22 15 46z" />
    <glyph glyph-name="sacute" unicode="&#x15b;" horiz-adv-x="498" 
d="M370 66q-38 -27 -60 -40.5t-39 -20.5q-11 -5 -19 -5q-5 0 -9 2q-10 4 -17.5 14.5t-15.5 32.5q-11 29 -36 37q-11 3 -26 3q-20 0 -47 -6q-15 -4 -23 -6t-17.5 -3.5t-13.5 -1.5q-3 -1 -5 -1t-3 1q-4 0 -4 1h-1q0 1 2 3q1 3 4 6t9.5 8.5t13 10.5t18.5 14q29 23 67 32
q19 5 36 5t31 -5q79 -24 118 -24q10 0 17 2q36 7 43 59q1 9 1 17q0 22 -8 46q-12 33 -33 50q-27 22 -51 22q-4 0 -9 -1q-28 -5 -87 -47q-21 -15 -31.5 -22t-23.5 -15t-18.5 -10.5t-14.5 -2.5t-12.5 2t-10.5 9.5t-11.5 14t-13.5 21.5q-16 26 -28 64.5t-12 65.5q0 42 44.5 100
t97.5 92q33 20 53 20q13 0 21 -8q24 -24 61 -30q13 -3 25 -3q22 0 40 8q28 12 28 38q0 60 -61 93q-41 22 -91 22q-25 0 -51 -5q-36 -7 -58 -7h-5q-23 1 -23 11q0 4 3 8q12 19 68 28q33 5 69 5q24 0 48 -2q62 -6 88 -23q58 -38 62 -108v-10q0 -64 -48 -109q-44 -39 -72 -42
q-4 -1 -8 -1q-28 0 -78 23q-52 24 -76 24q-24 -1 -41 -27q-25 -40 -26 -65q-1 -2 -1 -4q0 -26 19 -73q20 -51 60 -51h6q44 4 99 65q23 26 34.5 36.5t26.5 12.5h4q12 0 22 -7q12 -9 36 -30q62 -57 62 -135q0 -11 -1 -23q-11 -94 -97 -155zM344 866q18 34 35 49t49 24
q19 6 30 7q5 1 9 1t6 -1q4 -2 5 -12q1 -4 1 -9t-1 -12q-1 -28 -10.5 -37t-41.5 -14q-28 -4 -41 -14t-21 -37q-9 -27 -14 -31q-2 -1 -3 -1h-1q-6 0 -13 9q-4 3 -5 11v6q0 6 1 15q3 22 15 46z" />
    <glyph glyph-name="Zacute" unicode="&#x179;" horiz-adv-x="984" 
d="M815 -219q-72 -50 -173 -63q-37 -5 -73 -5q-59 0 -114 14q-88 21 -149 73.5t-61 121.5q0 43 -18 68t-49 25q-64 0 -64 -103q0 -27 -3 -43q-5 -31 -21 -31q-10 0 -25 13q-35 31 -35 75q0 17 6 35q17 68 85 106q33 19 62 19q8 0 15 -2q35 -7 87 -47q37 -29 64 -68.5
t27 -66.5q0 -57 41.5 -96.5t99.5 -49.5q20 -5 41 -5q39 0 81 13q65 19 105 69q65 81 65 175q0 93 -63 199q-39 67 -81.5 90t-121.5 23q-59 0 -113 -19t-79 -47q-23 -28 -50 -38q-12 -5 -22 -5q-13 0 -20 8q-9 6 -9 16t8 21q12 25 46 47q57 35 59 52v2q0 17 -48 58
q-66 58 -68 92v1q0 34 62 78q36 28 55 28h3q17 -3 32 -37q10 -22 14 -54v-23q0 -18 -3 -31q-1 -6 -1 -12q0 -28 40 -43q30 -11 68 -11q24 0 52 5q70 11 116 48q81 65 81 174v2q-2 111 -85 184q-81 70 -151 70h-16q-76 -10 -189 -114q-20 -20 -40 -35q-72 -62 -101 -62
q-7 0 -11 5q-5 4 -5 11q0 32 74 122q59 70 109.5 93.5t152.5 23.5q76 0 148 -22t124.5 -58t88 -83.5t48.5 -97.5q4 -21 4 -44q0 -29 -9 -58q-15 -52 -62 -95q-33 -31 -69.5 -53t-53.5 -22q-6 0 -8 -5v-2q0 -22 101 -101q91 -69 123 -163q15 -48 15 -94q0 -48 -15 -94
q-33 -93 -124 -157zM458 1108q18 34 35 49t49 24q19 6 30 7q5 1 9 1t6 -1q4 -2 5 -12q1 -4 1 -9t-1 -12q-1 -28 -10.5 -37t-41.5 -14q-28 -4 -41 -14t-21 -37q-9 -27 -14 -31q-2 -1 -3 -1h-1q-6 0 -13 9q-4 3 -5 11v6q0 6 1 15q3 22 15 46z" />
    <glyph glyph-name="zacute" unicode="&#x17a;" horiz-adv-x="370" 
d="M269 -105q-28 -58 -56 -81.5t-70 -23.5q-31 0 -58.5 9t-35.5 22q-18 30 -19 93v9q0 57 12 114q12 60 35 106t48 46q4 0 6 -5q3 -5 3 -14q0 -28 -29 -88q-31 -65 -34 -101v-8q0 -34 20 -78q22 -50 38 -58q4 -2 9 -2q14 0 35 17q44 37 45 131v5q0 101 -43 181
q-35 65 -76 65q-10 0 -20 -4q-12 -4 -22 -4q-5 0 -10 1q-13 4 -13 18q0 13 17 27.5t41 22.5q48 15 74 62q13 24 13 46q0 19 -10 35q-7 12 -29 15q-7 1 -13 1q-17 0 -34 -6q-23 -7 -38 -7q-20 1 -20 13q0 3 1 7q10 30 73 64q46 25 71 25q24 0 52 -23q45 -38 45 -72
q-1 -35 -49 -88q-23 -25 -29 -46q-3 -9 -3 -16q0 -9 4 -14q6 -8 20 -8q5 0 10 1q22 3 51 21q12 8 23 12q17 8 26 8q10 0 10 -10q0 -12 -12.5 -25t-30.5 -19q-26 -11 -28 -39v-6q0 -29 18 -99q16 -66 16 -109v-14q-4 -46 -34 -109zM151 728q18 34 35 49t49 24q19 6 30 7
q5 1 9 1t6 -1q4 -2 5 -12q1 -4 1 -9t-1 -12q-1 -28 -10.5 -37t-41.5 -14q-28 -4 -41 -14t-21 -37q-9 -27 -14 -31q-2 -1 -3 -1h-1q-6 0 -13 9q-4 3 -5 11v6q0 6 1 15q3 22 15 46z" />
    <glyph glyph-name="Zdotaccent" unicode="&#x17b;" horiz-adv-x="984" 
d="M815 -219q-72 -50 -173 -63q-37 -5 -73 -5q-59 0 -114 14q-88 21 -149 73.5t-61 121.5q0 43 -18 68t-49 25q-64 0 -64 -103q0 -27 -3 -43q-5 -31 -21 -31q-10 0 -25 13q-35 31 -35 75q0 17 6 35q17 68 85 106q33 19 62 19q8 0 15 -2q35 -7 87 -47q37 -29 64 -68.5
t27 -66.5q0 -57 41.5 -96.5t99.5 -49.5q20 -5 41 -5q39 0 81 13q65 19 105 69q65 81 65 175q0 93 -63 199q-39 67 -81.5 90t-121.5 23q-59 0 -113 -19t-79 -47q-23 -28 -50 -38q-12 -5 -22 -5q-13 0 -20 8q-9 6 -9 16t8 21q12 25 46 47q57 35 59 52v2q0 17 -48 58
q-66 58 -68 92v1q0 34 62 78q36 28 55 28h3q17 -3 32 -37q10 -22 14 -54v-23q0 -18 -3 -31q-1 -6 -1 -12q0 -28 40 -43q30 -11 68 -11q24 0 52 5q70 11 116 48q81 65 81 174v2q-2 111 -85 184q-81 70 -151 70h-16q-76 -10 -189 -114q-20 -20 -40 -35q-72 -62 -101 -62
q-7 0 -11 5q-5 4 -5 11q0 32 74 122q59 70 109.5 93.5t152.5 23.5q76 0 148 -22t124.5 -58t88 -83.5t48.5 -97.5q4 -21 4 -44q0 -29 -9 -58q-15 -52 -62 -95q-33 -31 -69.5 -53t-53.5 -22q-6 0 -8 -5v-2q0 -22 101 -101q91 -69 123 -163q15 -48 15 -94q0 -48 -15 -94
q-33 -93 -124 -157zM556 1012q-34 -35 -56 -35q-1 0 -2 1q-23 1 -56 42q-18 22 -18 36q0 3 1 6q4 15 41 34q22 12 44 13h4q20 0 34 -8q15 -9 24 -22q6 -10 6 -22q0 -5 -1 -10q-4 -19 -21 -35z" />
    <glyph glyph-name="zdotaccent" unicode="&#x17c;" horiz-adv-x="370" 
d="M269 -105q-28 -58 -56 -81.5t-70 -23.5q-31 0 -58.5 9t-35.5 22q-18 30 -19 93v9q0 57 12 114q12 60 35 106t48 46q4 0 6 -5q3 -5 3 -14q0 -28 -29 -88q-31 -65 -34 -101v-8q0 -34 20 -78q22 -50 38 -58q4 -2 9 -2q14 0 35 17q44 37 45 131v5q0 101 -43 181
q-35 65 -76 65q-10 0 -20 -4q-12 -4 -22 -4q-5 0 -10 1q-13 4 -13 18q0 13 17 27.5t41 22.5q48 15 74 62q13 24 13 46q0 19 -10 35q-7 12 -29 15q-7 1 -13 1q-17 0 -34 -6q-23 -7 -38 -7q-20 1 -20 13q0 3 1 7q10 30 73 64q46 25 71 25q24 0 52 -23q45 -38 45 -72
q-1 -35 -49 -88q-23 -25 -29 -46q-3 -9 -3 -16q0 -9 4 -14q6 -8 20 -8q5 0 10 1q22 3 51 21q12 8 23 12q17 8 26 8q10 0 10 -10q0 -12 -12.5 -25t-30.5 -19q-26 -11 -28 -39v-6q0 -29 18 -99q16 -66 16 -109v-14q-4 -46 -34 -109zM249 632q-34 -35 -56 -35q-1 0 -2 1
q-23 1 -56 42q-18 22 -18 36q0 3 1 6q4 15 41 34q22 12 44 13h4q20 0 34 -8q15 -9 24 -22q6 -10 6 -22q0 -5 -1 -10q-4 -19 -21 -35z" />
    <glyph glyph-name="circumflex" unicode="&#x2c6;" horiz-adv-x="322" 
d="M181 641q36 -23 95 -80q12 -15 12 -23v-4q-8 -12 -34 -13q-22 0 -34 15q-21 33 -62 75q-8 -13 -20 -26q-30 -36 -45 -49q-8 -8 -23 -12q-8 -2 -16 -2q-7 0 -14 2q-19 3 -19 14q1 6 19 20q25 19 77 72l5 5t6.5 5.5t6 4.5t7.5 4t9 2q10 0 30 -10z" />
    <glyph glyph-name="caron" unicode="&#x2c7;" horiz-adv-x="429" 
d="M190 621q-5 1 -9 2t-7.5 3.5t-6 4t-6.5 5t-5 4.5q-52 48 -77 65q-18 13 -19 19q0 10 19 12q7 2 14 2q8 0 16 -2q15 -3 23 -11q15 -11 45 -44q12 -12 20 -24q41 38 62 68q12 14 34 14q26 -1 34 -12v-3q0 -8 -12 -21q-59 -52 -95 -73q-20 -9 -30 -9z" />
    <glyph glyph-name="uni02C9" unicode="&#x2c9;" horiz-adv-x="630" 
d="M325 561q-38 -2 -62 -3q-16 -1 -30 -1q-8 0 -14 1q-20 0 -30.5 2t-18 7.5t-10 12t-3.5 16.5q-1 5 -1 8q0 21 12 26q5 2 15 2q16 0 44 -5q63 -12 137 -12h52q73 0 73 -15v-1q-4 -17 -88 -30q-35 -6 -76 -8z" />
    <glyph glyph-name="breve" unicode="&#x2d8;" horiz-adv-x="330" 
d="M152 611q-29 0 -55 13q-28 14 -47 39q-29 38 -29 64q0 15 9 26q10 12 29 14q3 1 6 1q15 0 26 -8q11 -7 11 -19q0 -4 -1 -8q-4 -10 -4 -20q0 -12 7 -26q12 -23 36 -33q8 -6 17 -6q22 0 48 32q10 12 10 23v7q-3 11 -3 23v8q1 16 16 23q10 5 19 5q15 0 30 -12q16 -13 16 -28
q0 -7 -2 -13q-10 -34 -35.5 -61.5t-60.5 -38.5q-20 -5 -39 -5h-4z" />
    <glyph glyph-name="dotaccent" unicode="&#x2d9;" horiz-adv-x="206" 
d="M161 632q-34 -35 -56 -35q-1 0 -2 1q-23 1 -56 42q-18 22 -18 36q0 3 1 6q4 15 41 34q22 12 44 13h4q20 0 34 -8q15 -9 24 -22q6 -10 6 -22q0 -5 -1 -10q-4 -19 -21 -35z" />
    <glyph glyph-name="ring" unicode="&#x2da;" horiz-adv-x="360" 
d="M155 811h5q59 -1 83 -45q6 -14 6 -30q0 -30 -30 -62q-48 -49 -79 -49h-2q-33 2 -81 60q-25 31 -25 51q0 5 2 8q6 22 57 48q33 18 64 19zM151 758q-16 0 -32 -8q-21 -11 -25 -20v-5q0 -9 11 -22q21 -25 35 -25q0 -1 1 -1q13 0 35 22q14 14 14 26q0 6 -3 14q-11 19 -36 19z
" />
    <glyph glyph-name="ogonek" unicode="&#x2db;" horiz-adv-x="232" 
d="M75 -97q-1 9 -1 17q0 17 4 32q2 12 6 19t9 9q8 4 13 4q2 0 4 -1q1 0 2 -2q3 -4 3 -18q0 -7 -1 -16v-11q0 -20 6 -31q8 -14 35 -28q28 -16 34 -28q2 -5 2 -12q0 -10 -5 -26q-3 -12 -7 -19q-5 -9 -11 -10q-4 0 -14 5q-10 6 -26 17q-27 21 -38 41t-15 58z" />
    <glyph glyph-name="tilde" unicode="&#x2dc;" horiz-adv-x="545" 
d="M359 544q-72 3 -142 74q-18 18 -31 35q-21 15 -48 15h-14q-35 -5 -35 -29q1 -12 13.5 -26.5t31.5 -26.5q27 -17 27 -24q0 -2 -6 -4q-3 -1 -8 -1h-6q-31 0 -50 27q-18 22 -18 53q0 6 1 13q5 38 36 60q13 8 29 8q23 0 50 -16q34 -11 86 -59q48 -42 74 -51q10 -4 18 -4
q17 0 33 10q38 24 38 63v6l27 -6q0 -56 -30 -87q-28 -30 -72 -30h-4z" />
    <glyph glyph-name="hungarumlaut" unicode="&#x2dd;" horiz-adv-x="346" 
d="M75 671q14 20 24 32q6 9 12 17q3 4 7 7q8 10 14 14.5t12 6.5q4 1 7 1h4q4 -1 11 -5q3 -1 5 -3q10 -6 10 -14v-2q-1 -3 -6 -8q-7 -9 -21 -21q-34 -28 -65 -67l-22 -27q-27 -33 -36 -33q-2 0 -3 1h-1q-2 2 -2 6q0 14 22 52q12 20 28 43zM182 671l24 32q7 9 12 17l7 7
q8 10 14 14.5t12 6.5q4 1 8 1h3q5 -1 11 -5q3 -1 5 -3q10 -6 10 -14v-2q-1 -3 -6 -8q-6 -9 -21 -21q-33 -28 -65 -67l-22 -27q-26 -33 -36 -33q-2 0 -3 1h-1q-2 2 -2 6q0 14 22 52q12 20 28 43z" />
    <glyph glyph-name="endash" unicode="&#x2013;" horiz-adv-x="390" 
d="M185 268q-30 -2 -50 -3q-13 -1 -24 -1q-6 0 -11 1q-16 0 -25 2t-14.5 7.5t-8 12t-3.5 16.5v8q0 21 9 26q5 2 13 2q13 0 35 -5q51 -12 111 -12h41q59 0 59 -15v-1q-3 -17 -71 -30q-28 -6 -61 -8z" />
    <glyph glyph-name="emdash" unicode="&#x2014;" horiz-adv-x="643" 
d="M317 268q-59 -2 -97 -3q-26 -1 -48 -1q-13 0 -23 1q-31 0 -48.5 2t-29 7.5t-15.5 12t-6 16.5q-1 5 -1 8q0 21 19 26q8 2 25 2q25 0 69 -5q100 -12 218 -12h83q115 0 115 -15v-1q-5 -17 -139 -30q-56 -6 -122 -8z" />
    <glyph glyph-name="quoteleft" unicode="&#x2018;" horiz-adv-x="197" 
d="M101 862q5 3 10 5q36 20 56 20q4 0 7 -1q4 -1 8 -3q6 -2 6 -7v-2q-1 -10 -25 -27q-40 -29 -49 -63l-1 -5q-1 -7 -1 -14q0 -24 15 -47q7 -13 7 -25v-5q-1 -4 -3 -8q-7 -15 -30 -21q-5 -1 -11 -1q-5 0 -11 1q-11 2 -22 8q-21 14 -21 54q1 18 4 35q4 23 14 47q20 42 47 59z
" />
    <glyph glyph-name="quoteright" unicode="&#x2019;" horiz-adv-x="210" 
d="M141 668q-4 -4 -8 -7q-37 -31 -59 -31q-4 0 -8 1q-8 2 -8 8q0 10 20 32q33 36 36 71v5q0 31 -26 57q-12 14 -12 28q0 4 1 8q4 17 25 27q11 4 22 4t23 -4q23 -9 31 -48q3 -18 3 -36q0 -23 -5 -48q-11 -45 -35 -67z" />
    <glyph glyph-name="quotesinglbase" unicode="&#x201a;" horiz-adv-x="210" 
d="M120 -121q-4 -4 -8 -7q-37 -31 -59 -31q-4 0 -8 1q-8 2 -8 8q0 10 20 32q33 36 36 71v5q0 31 -26 57q-12 14 -12 28q0 4 1 8q4 17 25 27q11 4 22 4t23 -4q23 -9 31 -48q3 -18 3 -36q0 -23 -5 -48q-11 -45 -35 -67z" />
    <glyph glyph-name="quotedblleft" unicode="&#x201c;" horiz-adv-x="410" 
d="M101 862q5 3 10 5q36 20 56 20q4 0 7 -1q4 -1 8 -3q6 -2 6 -7v-2q-1 -10 -25 -27q-40 -29 -49 -63l-1 -5q-1 -7 -1 -14q0 -24 15 -47q7 -13 7 -25v-5q-1 -4 -3 -8q-7 -15 -30 -21q-5 -1 -11 -1q-5 0 -11 1q-11 2 -22 8q-21 14 -21 54q1 18 4 35q4 23 14 47q20 42 47 59z
M233 862q5 3 10 5q36 20 56 20q4 0 7 -1q4 -1 8 -3q6 -2 6 -7v-2q-1 -10 -25 -27q-40 -29 -49 -63l-1 -5q-1 -7 -1 -14q0 -24 15 -47q7 -13 7 -25v-5q-1 -4 -3 -8q-7 -15 -30 -21q-5 -1 -11 -1q-5 0 -11 1q-11 2 -22 8q-21 14 -21 54q1 18 4 35q4 23 14 47q20 42 47 59z" />
    <glyph glyph-name="quotedblright" unicode="&#x201d;" horiz-adv-x="382" 
d="M141 668q-4 -4 -8 -7q-37 -31 -59 -31q-4 0 -8 1q-8 2 -8 8q0 10 20 32q33 36 36 71v5q0 31 -26 57q-12 14 -12 28q0 4 1 8q4 17 25 27q11 4 22 4t23 -4q23 -9 31 -48q3 -18 3 -36q0 -23 -5 -48q-11 -45 -35 -67zM274 681q-4 -4 -8 -7q-37 -31 -59 -31q-4 0 -8 1
q-8 2 -8 8q0 10 20 32q33 36 36 71v5q0 31 -26 57q-12 14 -12 28q0 4 1 8q4 17 25 27q11 4 22 4t23 -4q23 -9 31 -48q3 -18 3 -36q0 -23 -5 -48q-11 -45 -35 -67z" />
    <glyph glyph-name="quotedblbase" unicode="&#x201e;" horiz-adv-x="382" 
d="M124 -112q-4 -4 -8 -7q-37 -31 -59 -31q-4 0 -8 1q-8 2 -8 8q0 10 20 32q33 36 36 71v5q0 31 -26 57q-12 14 -12 28q0 4 1 8q4 17 25 27q11 4 22 4t23 -4q23 -9 31 -48q3 -18 3 -36q0 -23 -5 -48q-11 -45 -35 -67zM257 -99q-4 -4 -8 -7q-37 -31 -59 -31q-4 0 -8 1
q-8 2 -8 8q0 10 20 32q33 36 36 71v5q0 31 -26 57q-12 14 -12 28q0 4 1 8q4 17 25 27q11 4 22 4t23 -4q23 -9 31 -48q3 -18 3 -36q0 -23 -5 -48q-11 -45 -35 -67z" />
    <glyph glyph-name="dagger" unicode="&#x2020;" horiz-adv-x="952" 
d="M485 591q-2 -76 -5 -182q-7 -234 -19 -398q-13 -160 -24 -174q-1 -1 -3 -1q-2 2 -4 11q-6 33 -6 151q0 72 2 174q1 89 1 196v110q0 60 -1 112q-45 -1 -79 -2h-107q-50 1 -75.5 2.5t-44 5t-25 8.5t-8.5 12q-1 3 -1 6q0 9 11 14q13 6 55 6q34 0 106 -4q79 -5 167 -7
q-1 72 -3 126q-3 81 -3 133t3 75q2 23 10 33q6 7 14 7q4 0 8 -2q10 -4 17 -13q5 -10 8 -29l2 -7q4 -27 5.5 -64.5t1.5 -107.5q0 -69 -2 -152q54 -1 112 -1h122q90 0 137 -3q42 -2 42 -7q0 -3 -18 -6q-88 -17 -383 -22h-13z" />
    <glyph glyph-name="daggerdbl" unicode="&#x2021;" horiz-adv-x="913" 
d="M368 634q-1 72 -3 126q-3 81 -3 133t3 75q2 23 10 33q6 7 14 7q4 0 8 -2q10 -4 17 -13q5 -10 8 -29l2 -7q4 -27 5.5 -64.5t1.5 -107.5q0 -69 -2 -152q54 -1 112 -1h122q90 0 137 -3q42 -2 42 -7q0 -3 -18 -6q-88 -17 -383 -22h-13q-2 -76 -5 -182q-1 -42 -3 -82
q61 -1 126 -1h121q92 0 139 -3q41 -3 41 -7q0 -3 -19 -6q-86 -17 -383 -22q-13 0 -26 -1q-6 -156 -15 -276q-13 -160 -24 -174q-1 -1 -3 -1q-2 2 -4 11q-6 33 -6 151q0 72 2 174q1 54 1 115q-42 -1 -75 -1q-40 -1 -74 -1q-18 0 -34 1q-49 0 -75 1.5t-44 5t-24.5 8t-9.5 11.5
q-1 4 -1 7q0 9 11 14q13 6 55 6q35 0 108 -4q78 -5 163 -7v150q0 60 -1 112q-45 -1 -79 -2h-107q-50 1 -75.5 2.5t-44 5t-25 8.5t-8.5 12q-1 3 -1 6q0 9 11 14q13 6 55 6q34 0 106 -4q79 -5 167 -7z" />
    <glyph glyph-name="bullet" unicode="&#x2022;" horiz-adv-x="506" 
d="M331 344q-59 -61 -97 -61q-2 0 -4 2q-40 1 -97 73q-31 38 -31 62q0 5 2 10q7 26 71 59q38 21 76 23h7q35 0 59 -14q26 -15 42 -38q10 -17 10 -38q0 -9 -2 -18q-7 -33 -36 -60z" />
    <glyph glyph-name="ellipsis" unicode="&#x2026;" horiz-adv-x="2048" 
d="M29 35q-34 -35 -56 -35q-1 0 -2 1q-23 1 -56 42q-18 22 -18 36q0 3 1 6q4 15 41 34q22 12 44 13h4q20 0 34 -8q15 -9 24 -22q6 -10 6 -22q0 -5 -1 -10q-4 -19 -21 -35zM712 35q-34 -35 -56 -35q-1 0 -2 1q-23 1 -56 42q-18 22 -18 36q0 3 1 6q4 15 41 34q22 12 44 13h4
q20 0 34 -8q15 -9 24 -22q6 -10 6 -22q0 -5 -1 -10q-4 -19 -21 -35zM1395 35q-34 -35 -56 -35q-1 0 -2 1q-23 1 -56 42q-18 22 -18 36q0 3 1 6q4 15 41 34q22 12 44 13h4q20 0 34 -8q15 -9 24 -22q6 -10 6 -22q0 -5 -1 -10q-4 -19 -21 -35z" />
    <glyph glyph-name="guilsinglleft" unicode="&#x2039;" horiz-adv-x="390" 
d="M283 572h1q4 0 8 -6q4 -7 5 -18q2 -8 2 -18q0 -4 -1 -9q-1 -15 -6 -23q-3 -7 -7.5 -13.5t-7.5 -10t-9.5 -10t-8.5 -9.5q-39 -36 -90 -76q-22 -16 -42 -27q12 -10 38.5 -36t40.5 -37q22 -19 73 -55q15 -12 20 -27q2 -7 2 -16t-3 -21t-8 -18q-3 -5 -7 -5h-3q-4 0 -9.5 3
t-9 5.5t-9.5 8.5t-9 8q-36 34 -85 91q-38 44 -58 81q-6 15 -7 18v6q0 8 5 17q6 9 22 27q11 12 33.5 32.5t33.5 32.5q33 33 75 88q13 14 21 17z" />
    <glyph glyph-name="guilsinglright" unicode="&#x203a;" horiz-adv-x="352" 
d="M75 555q43 -55 77 -88q12 -12 35 -32.5t34 -32.5q16 -18 23 -27q5 -9 5 -17v-6q-2 -3 -8 -18q-20 -37 -59 -81q-51 -57 -88 -91q-2 -2 -8.5 -8t-10 -8.5t-9 -5.5t-10.5 -3h-2q-4 0 -8 5q-5 6 -8 18t-3 21t2 16q5 15 21 27q52 36 74 55q15 11 42 37t40 36q-21 11 -44 27
q-52 40 -92 76q-1 3 -8 9.5t-10 10t-8 10t-8 13.5q-5 8 -6 23q-1 5 -1 9q0 10 2 18q1 11 5 18q4 6 8 6h1q9 -3 22 -17z" />
    <glyph glyph-name="fraction" unicode="&#x2044;" horiz-adv-x="1096" 
d="M582 374q-156 -224 -273 -374q-114 -148 -134 -154h-3v2q0 4 3 12q24 56 203 318q88 128 196.5 295.5t172.5 274.5q97 161 133 202q17 21 31 25q4 1 8 1q10 0 17 -10t8 -22q-2 -13 -11 -35l-3 -7q-13 -29 -35 -66.5t-67 -105.5t-101 -148.5t-145 -207.5z" />
    <glyph glyph-name="fraction" unicode="&#x2215;" horiz-adv-x="1096" 
d="M582 374q-156 -224 -273 -374q-114 -148 -134 -154h-3v2q0 4 3 12q24 56 203 318q88 128 196.5 295.5t172.5 274.5q97 161 133 202q17 21 31 25q4 1 8 1q10 0 17 -10t8 -22q-2 -13 -11 -35l-3 -7q-13 -29 -35 -66.5t-67 -105.5t-101 -148.5t-145 -207.5z" />
    <glyph glyph-name="franc" unicode="&#x20a3;" horiz-adv-x="1226" 
d="M769 128q2 -12 3 -26q1 -12 1 -26q0 -65 -24 -134q-29 -84 -78 -125q-127 -100 -241 -104q-5 -1 -11 -1q-110 0 -222 87q-50 37 -66 109q-9 30 -9 62q0 42 13 84q20 76 71 127q20 19 33 40q29 43 29 72q0 12 -6 21q-6 11 -19 11q-17 0 -49 -27q-4 -4 -10 -8
q-40 -32 -66 -32q-7 0 -13 2q-10 4 -10 13q0 14 26 41q49 52 99 52q10 0 22 -3q56 -14 77 -80q9 -27 9 -53q0 -65 -52 -129q-66 -83 -69 -159v-8q0 -73 56 -117q58 -47 162 -47q90 0 173 62t83 130q0 23 -33 97q-14 31 -30 63q-13 -1 -24 -1q-28 -1 -52 -1q-13 0 -24 1
q-34 0 -52 2.5t-31 8.5t-17.5 13t-5.5 19q-1 5 -1 9q0 23 20 29q8 2 26 2q27 0 75 -6q24 -3 49 -5q-6 10 -12 21q-57 99 -74 157q-13 40 -13 81q0 18 3 36q7 61 45 167q8 22 8 38q0 23 -14 39q-26 27 -122 68q-110 45 -179 45q-13 0 -25 -2q-74 -10 -106 -82
q-10 -23 -10 -45q0 -41 30 -78q48 -62 143 -84q24 -7 39 -12q21 -6 21 -11t-36 -7h-13q-60 0 -111 21q-56 24 -85.5 64.5t-36.5 88.5q-3 10 -3 21q0 37 20 74q25 48 81 82q88 55 174 55q12 0 22 -1q96 -8 246 -88q81 -43 130.5 -64t83.5 -25q8 -1 13 -1q25 0 39 12
q18 14 28 48q11 36 15 36q6 0 11 -50v-6q0 -57 -51 -88q-55 -33 -161 -33q-85 0 -110 -49q-11 -23 -11 -64t13 -101l29 -136l93 102q64 69 92 78q6 1 12 1q27 0 72 -29q36 -24 50 -51q8 -14 8 -25q0 -12 -8 -22q-18 -25 -37 -25l-2 -1q-20 0 -51 24q-25 17 -55 22
q-12 2 -22 2q-16 0 -27 -5q-43 -24 -43 -96q-2 -1 -2 -2q0 -69 42 -92q12 -6 20 -16h113q123 0 123 -17v-1q-6 -19 -150 -34q-29 -3 -61 -5z" />
    </font>
</defs>
</svg>
